<?xml version="1.0" standalone="no"?>
<!DOCTYPE svg PUBLIC "-//W3C//DTD SVG 20010904//EN"
 "http://www.w3.org/TR/2001/REC-SVG-20010904/DTD/svg10.dtd">
<svg version="1.0" xmlns="http://www.w3.org/2000/svg"
 width="415.000000pt" height="739.000000pt" viewBox="0 0 415.000000 739.000000"
 preserveAspectRatio="xMidYMid meet">
<metadata>
Created by potrace 1.16, written by Peter Selinger 2001-2019
</metadata>
<g transform="translate(0.000000,739.000000) scale(0.100000,-0.100000)"
fill="#000000" stroke="none">
<path d="M1261 7055 c-6 -30 -16 -81 -21 -112 -6 -32 -13 -68 -16 -80 -4 -22
-2 -23 66 -23 38 0 70 3 70 8 0 4 -12 48 -25 97 -14 50 -30 107 -36 128 -5 20
-14 37 -19 37 -5 0 -13 -25 -19 -55z"/>
<path d="M927 7001 c3 -12 9 -21 14 -21 14 0 11 16 -5 29 -12 10 -13 8 -9 -8z"/>
<path d="M2355 6970 c-11 -4 -33 -14 -50 -21 -16 -7 -36 -11 -42 -10 -7 1 -13
-3 -13 -9 0 -6 -4 -9 -9 -5 -5 3 -12 1 -16 -5 -3 -5 -11 -10 -16 -10 -6 0 -7
6 -3 13 9 14 -17 -4 -58 -42 -16 -14 -28 -21 -29 -15 0 5 -4 0 -9 -11 -8 -18
-9 -18 -9 -2 -1 16 -3 17 -16 3 -8 -8 -15 -21 -16 -28 0 -7 -4 -4 -9 7 -7 17
-9 16 -10 -10 l-2 -30 -13 30 -14 30 -1 -27 c0 -39 -18 -44 -22 -6 -3 29 -5
27 -15 -22 -8 -39 -11 -47 -12 -25 -2 35 -21 73 -21 42 0 -10 -4 -15 -10 -12
-5 3 -10 -3 -10 -14 0 -29 -20 -27 -21 2 0 19 -1 20 -8 4 -8 -22 -21 -24 -32
-5 -7 10 -9 9 -9 -5 0 -10 -4 -15 -10 -12 -5 3 -10 0 -10 -7 0 -9 -3 -9 -10 2
-8 12 -10 12 -10 -5 0 -17 -2 -17 -10 -5 -8 12 -10 10 -11 -10 l-1 -25 -7 25
c-6 22 -8 23 -14 7 -4 -10 -11 -16 -16 -13 -5 3 -12 -11 -16 -32 l-8 -37 -9
34 c-7 26 -12 31 -19 20 -5 -8 -9 -23 -9 -34 -1 -18 -1 -19 -11 -2 -14 23 -26
22 -35 -5 -6 -20 -7 -21 -19 -4 -12 15 -14 12 -21 -26 -5 -31 -9 -38 -13 -23
-8 28 -31 30 -32 3 0 -22 -1 -22 -9 -3 -8 18 -9 18 -10 -5 -1 -23 -2 -23 -9
-5 -8 19 -9 19 -12 -3 -5 -30 -22 -30 -31 0 -5 21 -6 20 -8 -7 l-1 -30 -17 38
c-15 33 -21 38 -42 33 -14 -3 -82 -9 -153 -12 l-127 -7 -10 -37 c-22 -83 -23
-99 -6 -106 15 -6 15 -8 -3 -21 -17 -11 -51 -95 -51 -125 0 -12 241 -10 341 3
119 14 130 20 119 60 -13 45 -6 47 15 4 21 -46 14 -75 -28 -121 -39 -42 -100
-55 -252 -52 -55 1 -80 3 -55 5 112 7 266 26 280 33 8 4 -89 6 -215 3 -151 -4
-233 -10 -237 -17 -4 -6 -8 3 -9 19 0 27 -3 24 -18 -20 -33 -91 -8 -392 40
-505 30 -70 50 -86 89 -70 52 22 105 133 129 274 7 38 19 82 27 97 21 42 18
42 -31 4 -25 -19 -52 -38 -59 -42 -7 -5 -18 -39 -25 -77 -6 -38 -19 -83 -28
-99 l-16 -31 -20 40 c-12 23 -22 67 -25 106 -4 63 -7 70 -38 93 -19 14 -39 36
-45 48 -9 18 -5 16 22 -9 53 -48 66 -55 104 -64 31 -7 42 -3 96 31 33 22 66
40 72 42 7 1 20 15 30 31 28 44 32 22 5 -26 -24 -41 -39 -82 -52 -141 -6 -25
-5 -27 13 -18 26 14 58 71 85 153 25 73 42 103 31 53 -28 -125 -74 -215 -114
-225 -18 -4 -27 -19 -45 -75 -13 -39 -30 -84 -39 -101 -18 -35 -81 -94 -101
-94 -20 0 -53 41 -76 94 -26 62 -59 257 -60 359 0 32 -13 34 -47 7 -23 -18
-28 -19 -43 -5 -24 22 -40 18 -40 -9 0 -39 -21 -85 -42 -92 -11 -3 -28 -25
-38 -49 -13 -29 -24 -43 -36 -42 -14 2 -20 -8 -25 -43 -10 -63 -38 -127 -49
-110 -5 9 -11 -3 -15 -33 -6 -36 -12 -47 -25 -47 -14 0 -18 -8 -17 -37 0 -21
-7 -69 -16 -108 -9 -38 -16 -97 -15 -130 0 -33 3 -48 5 -34 2 14 15 47 28 75
22 43 24 46 25 21 0 -15 8 -40 17 -55 17 -26 17 -26 0 -13 -26 20 -47 -1 -29
-29 18 -30 16 -43 -7 -30 -29 15 -39 -8 -12 -26 12 -8 21 -22 21 -30 0 -21
-16 -17 -28 9 -10 21 -11 21 -11 -6 -1 -15 6 -42 16 -60 15 -31 15 -31 -2 -17
-17 14 -18 13 -12 -22 3 -20 14 -56 25 -80 l20 -43 1 81 c2 185 91 341 288
506 l31 27 27 -38 c30 -44 92 -96 130 -111 31 -12 76 4 132 47 32 25 35 25 25
6 -12 -22 -104 -73 -131 -73 -40 1 -101 41 -142 93 l-43 56 -18 -27 c-25 -38
-22 -91 7 -146 14 -26 20 -44 14 -40 -20 12 -49 88 -49 128 0 33 -2 37 -15 26
-17 -14 -21 -113 -6 -153 14 -37 51 -67 83 -67 31 0 36 -11 12 -34 -19 -20
-20 -20 -54 0 -46 28 -60 63 -60 154 l0 81 -40 -46 c-97 -112 -154 -223 -171
-335 -11 -70 -10 -82 11 -153 l23 -77 34 50 c19 28 40 49 46 47 7 -2 29 -28
50 -58 70 -101 90 -121 143 -146 52 -23 54 -26 54 -63 0 -56 -15 -63 -82 -36
-101 41 -218 131 -218 167 0 6 -4 8 -9 5 -15 -10 -34 -135 -28 -186 3 -27 15
-67 27 -89 17 -34 25 -41 51 -41 32 0 33 -1 45 -75 7 -40 15 -54 43 -72 42
-28 90 -29 141 -3 22 11 44 20 50 20 21 0 8 -37 -36 -102 -70 -102 -168 -140
-213 -82 l-21 27 0 -39 c0 -68 39 -205 85 -299 41 -85 72 -134 78 -124 1 2 10
14 20 26 18 21 18 23 -4 88 -19 58 -21 71 -10 107 25 81 88 117 155 87 22 -10
31 -8 64 13 53 35 92 42 136 24 52 -21 110 -3 114 36 6 50 -71 64 -83 15 -5
-19 -13 -22 -64 -22 -51 0 -64 -4 -98 -31 -35 -28 -41 -30 -58 -18 -14 10 -33
13 -61 8 -36 -5 -43 -3 -47 13 -3 13 -5 11 -6 -8 -2 -37 -21 -53 -37 -31 -12
15 -13 14 -14 -10 0 -16 -4 -28 -10 -28 -20 0 -9 67 18 111 16 24 41 68 57 98
16 29 39 57 51 61 15 6 24 21 28 47 16 93 52 143 100 143 17 0 55 -11 84 -25
30 -14 62 -25 71 -25 37 0 110 -58 136 -110 l25 -50 -24 0 c-76 0 -186 -48
-186 -80 0 -5 12 2 26 15 53 49 175 66 228 31 40 -26 59 -77 46 -124 -17 -61
-20 -63 -70 -46 -100 35 -236 -22 -287 -120 -19 -36 -20 -120 -3 -141 11 -13
9 -20 -10 -40 -20 -21 -23 -35 -22 -83 l1 -57 -14 48 c-7 27 -25 65 -39 86
-14 20 -26 48 -26 61 0 66 -80 164 -129 158 -25 -3 -26 -6 -26 -58 1 -84 18
-109 104 -152 43 -21 80 -47 87 -60 6 -13 17 -57 23 -98 7 -41 14 -85 17 -98
4 -20 -5 -27 -73 -58 -43 -19 -100 -49 -127 -66 -38 -25 -52 -29 -66 -21 -15
10 -16 8 -12 -15 3 -15 9 -33 15 -40 7 -9 5 -18 -7 -30 -9 -10 -13 -22 -9 -26
4 -4 1 -11 -7 -16 -12 -8 -10 -10 9 -10 24 0 24 0 5 -15 -18 -14 -17 -15 11
-10 17 3 24 2 17 -1 -6 -3 -9 -10 -6 -16 4 -5 -10 -23 -30 -40 -20 -16 -36
-34 -36 -40 0 -6 8 -4 18 5 10 10 27 17 38 17 15 -1 14 -4 -8 -16 -40 -21 -34
-26 9 -7 l38 15 -45 -41 c-25 -23 -38 -40 -30 -39 8 2 22 12 32 23 l18 20 -7
-20 c-3 -11 -15 -32 -25 -47 -26 -38 -22 -44 7 -11 l26 28 -21 -42 -21 -41 21
-71 c23 -75 36 -94 26 -38 -3 17 9 -8 28 -58 19 -49 35 -95 35 -100 1 -6 -49
-60 -110 -120 -61 -61 -131 -138 -156 -172 -57 -80 -137 -219 -152 -265 -7
-20 -19 -39 -27 -42 -8 -3 -24 -21 -35 -41 -12 -19 -27 -35 -33 -35 -18 0 -46
-33 -46 -53 0 -25 -29 -20 -39 6 -5 13 -23 35 -39 49 -37 31 -73 27 -103 -11
-26 -33 -57 -50 -90 -51 -14 0 -30 -5 -36 -11 -13 -13 -38 43 -29 67 8 20 -21
83 -49 106 -11 10 -15 17 -7 18 6 0 12 -5 12 -11 0 -5 4 -7 10 -4 14 9 12 48
-4 70 -11 15 -17 17 -28 7 -19 -15 -28 -6 -28 30 0 15 -5 28 -11 28 -5 0 -7 4
-4 10 3 5 2 18 -4 27 -7 12 -10 -370 -11 -1199 l0 -1218 367 0 c330 0 376 2
444 20 42 10 87 16 100 13 21 -5 20 -1 -13 33 -30 30 -40 36 -50 26 -22 -22
-57 -14 -71 16 -20 45 -47 67 -47 38 0 -26 -20 -28 -39 -5 -14 17 -22 21 -32
13 -17 -13 -28 -12 -57 5 -20 11 -27 10 -44 -6 -16 -13 -22 -15 -25 -5 -6 15
-75 52 -98 52 -9 0 -15 6 -12 13 2 7 19 12 40 11 32 -1 35 1 26 17 -9 18 -21
23 -46 20 -7 -1 -17 7 -22 18 -9 16 -5 23 24 45 19 15 35 32 35 39 0 7 -4 6
-10 -3 -9 -13 -12 -13 -24 3 -8 10 -28 19 -45 19 -30 1 -30 1 -15 30 13 26 13
29 -2 35 -9 3 -25 1 -35 -6 -22 -13 -24 -8 -9 20 9 17 7 19 -17 19 l-27 0 26
28 c25 25 26 31 17 76 -5 27 -14 55 -21 63 -9 11 -9 16 2 23 9 6 24 0 44 -16
20 -17 36 -24 52 -20 12 3 37 0 55 -8 30 -12 33 -18 35 -60 1 -33 -2 -46 -12
-46 -8 0 -23 -6 -34 -12 -17 -11 -22 -10 -29 1 -5 7 -7 21 -4 30 2 10 -2 23
-10 29 -11 10 -16 7 -25 -13 -7 -15 -8 -25 -2 -25 6 0 10 -13 10 -29 0 -19 9
-35 30 -51 16 -12 27 -27 24 -31 -5 -9 45 -33 53 -25 3 3 16 1 28 -4 17 -6 33
-4 56 7 43 22 115 21 137 -1 9 -9 18 -33 20 -54 4 -59 5 -61 14 -56 5 3 6 9 4
13 -8 12 42 7 56 -7 19 -19 26 -15 33 18 4 17 22 47 41 66 26 28 39 35 59 32
14 -3 25 -1 25 4 0 5 6 6 12 1 7 -4 24 -9 38 -11 14 -2 41 -19 61 -38 32 -31
39 -34 63 -24 15 5 32 7 38 4 18 -11 -45 -56 -76 -53 -15 1 -25 -24 -16 -41 5
-9 7 -38 5 -64 l-3 -47 44 -11 c24 -7 44 -18 44 -26 0 -7 4 -11 9 -8 17 11 6
-29 -12 -43 -18 -13 -18 -14 2 -33 19 -17 34 -19 129 -17 105 2 107 3 106 26
0 12 -4 26 -9 30 -4 5 -5 1 0 -7 5 -8 5 -12 0 -8 -4 4 -17 3 -29 -3 -19 -9
-19 -8 2 7 12 9 22 21 22 26 0 13 26 38 33 32 3 -3 3 -24 0 -47 l-5 -42 45 49
c25 28 44 54 41 58 -3 4 0 8 6 8 7 0 10 7 7 14 -4 9 2 18 15 22 14 4 17 8 8
14 -9 5 -4 19 17 50 15 23 36 54 45 68 10 16 15 36 12 49 -9 35 4 76 22 69 9
-3 32 13 62 43 26 26 62 56 80 67 49 28 38 47 -31 49 -26 1 -42 7 -53 23 -8
12 -29 29 -45 38 -19 9 -29 21 -25 29 3 8 -1 30 -9 49 -19 46 -19 49 6 65 18
11 23 11 30 -1 7 -10 10 -8 15 9 7 25 37 33 114 32 25 -1 58 4 73 10 33 13 47
7 47 -19 0 -13 5 -18 16 -13 16 6 17 48 1 70 -5 7 -10 33 -12 59 -2 39 2 51
25 78 24 26 32 29 47 20 12 -8 18 -24 18 -48 0 -21 6 -40 15 -46 15 -10 30 -4
30 11 0 6 -5 7 -11 3 -7 -4 -9 2 -7 17 1 12 9 25 17 27 10 3 12 0 8 -12 -7
-18 4 -21 20 -5 8 8 17 8 31 0 35 -19 37 -12 4 12 -20 16 -28 27 -22 33 16 16
-40 72 -75 76 -24 2 -31 9 -35 33 -4 22 -11 31 -30 33 -13 2 -31 13 -38 23 -7
11 -26 26 -42 34 -39 20 -44 49 -22 110 17 47 20 50 54 50 21 1 40 3 43 7 3 3
-2 21 -11 41 -19 40 -13 81 15 96 13 8 27 4 54 -14 46 -32 55 -31 63 2 4 16
13 40 21 56 10 21 11 27 1 25 -8 -2 -12 8 -12 29 0 26 11 43 52 83 28 27 48
50 44 50 -4 0 -2 4 4 8 6 4 43 49 83 100 40 50 76 92 80 92 4 0 12 10 18 23 6
12 53 78 105 147 52 69 113 153 136 187 54 80 242 306 249 299 3 -2 -15 -31
-39 -63 -25 -32 -67 -92 -95 -133 -100 -149 -354 -481 -363 -475 -6 3 -10 0
-10 -8 0 -14 -82 -116 -181 -225 -22 -23 -39 -49 -39 -57 0 -25 43 -17 83 16
21 17 41 29 44 25 4 -3 2 -6 -3 -6 -5 0 -11 -11 -12 -25 -3 -39 38 -32 93 15
25 22 55 40 65 40 13 0 17 5 13 19 -3 12 5 26 23 40 36 28 43 12 15 -35 -19
-32 -20 -35 -3 -40 47 -15 61 -25 73 -52 11 -25 15 -27 35 -18 19 9 23 19 22
53 -1 43 18 103 32 103 4 0 10 14 14 30 7 38 76 106 92 92 4 -4 4 -1 0 6 -9
15 24 68 78 126 l36 39 -17 -40 c-10 -22 -26 -50 -36 -64 -10 -13 -15 -18 -11
-10 5 9 3 12 -5 7 -6 -4 -9 -11 -6 -16 3 -5 -1 -20 -10 -34 -15 -23 -15 -26 4
-45 24 -24 26 -34 9 -61 -15 -24 -6 -34 24 -26 21 5 127 134 170 207 28 47
275 385 331 452 128 155 309 323 498 465 57 43 192 96 314 123 l55 12 0 414
c0 227 -2 413 -4 413 -2 0 -34 -13 -72 -29 -138 -58 -300 -141 -352 -179 -83
-62 -333 -295 -459 -427 -134 -140 -140 -135 -9 9 105 114 383 369 510 470
115 90 178 127 292 171 51 20 94 40 94 45 0 5 -16 12 -35 16 -40 7 -43 14 -15
32 22 14 27 51 8 70 -28 28 -104 0 -200 -74 -27 -20 -48 -34 -48 -31 0 3 38
34 85 68 89 64 114 94 97 111 -17 17 -100 -35 -207 -131 -30 -27 -34 -29 -15
-7 14 16 63 60 109 99 77 65 83 72 63 80 -15 7 -32 5 -54 -4 -34 -14 -402
-376 -538 -529 -41 -47 -143 -157 -225 -245 -83 -88 -178 -191 -210 -230 -33
-38 -100 -115 -150 -170 -50 -55 -108 -121 -130 -148 -43 -51 -68 -64 -40 -19
40 60 209 264 297 358 52 54 150 171 218 259 159 205 424 475 625 637 83 67
151 124 153 128 1 3 -8 16 -21 28 l-24 22 -79 -66 c-105 -89 -398 -387 -539
-549 -62 -71 -159 -180 -216 -240 -57 -61 -120 -130 -138 -155 -40 -52 -131
-157 -243 -280 -42 -47 -114 -133 -160 -191 -172 -221 -335 -408 -452 -519
-67 -63 -155 -150 -196 -194 -224 -236 -258 -268 -269 -262 -16 10 5 46 75
131 31 39 89 113 127 165 39 52 114 147 167 210 53 63 128 158 167 210 40 52
113 140 162 195 50 55 129 151 177 213 47 61 89 112 94 112 4 0 32 33 61 73
30 39 108 130 174 201 66 71 151 165 189 210 37 45 101 115 141 156 41 41 96
106 123 143 92 126 410 435 434 421 6 -4 8 -3 5 3 -8 12 117 123 138 123 7 0
27 -11 43 -25 17 -14 33 -22 35 -18 3 5 16 55 29 113 20 90 23 130 22 285 -1
163 -3 189 -28 279 -63 231 -207 446 -368 549 -29 18 -73 46 -97 61 -29 19
-40 31 -32 36 9 5 8 9 -4 14 -14 5 -15 9 -5 21 10 12 9 15 -6 16 -11 0 -14 3
-6 6 18 7 15 33 -5 34 -11 0 -13 3 -5 6 6 2 12 9 12 14 0 4 -7 6 -16 2 -15 -5
-14 -3 1 21 l18 27 -29 -7 c-27 -7 -28 -6 -14 11 14 17 13 18 -2 12 -10 -3
-18 -2 -18 4 0 5 7 12 15 15 8 4 15 10 15 15 0 6 -9 5 -20 -1 -12 -6 -20 -7
-20 -1 0 5 5 11 12 13 6 2 12 11 14 20 1 12 -3 15 -14 10 -15 -5 -15 -4 -2 13
14 17 13 17 -9 10 -13 -4 -21 -3 -18 2 3 5 2 15 -3 23 -6 10 -3 21 8 34 16 18
16 19 -2 12 -17 -6 -17 -5 -5 10 12 15 12 16 -7 10 -14 -4 -21 -2 -21 8 0 9 3
13 7 11 4 -2 7 2 7 10 0 11 -5 12 -21 3 -21 -11 -21 -11 -2 11 21 23 16 27
-15 10 -20 -10 -20 -10 -3 17 l18 27 -24 -13 -25 -13 24 27 c42 45 99 66 183
66 136 0 257 -60 385 -193 140 -145 224 -306 288 -552 l24 -90 1 156 c0 145
-2 161 -29 240 -63 186 -167 369 -278 490 -54 57 -71 88 -31 53 l22 -19 -20
28 c-10 15 -41 41 -69 57 -27 16 -61 39 -75 50 l-25 20 25 0 c14 1 34 5 45 10
14 7 8 8 -19 3 -28 -4 -37 -3 -32 6 5 7 -2 11 -19 11 -14 0 -24 4 -21 9 3 5
-6 12 -22 16 l-27 8 25 8 c17 6 5 7 -35 4 -57 -5 -59 -4 -40 11 l20 17 -20 -8
c-11 -4 -39 -14 -62 -22 -24 -8 -45 -19 -49 -24 -3 -5 -10 -9 -16 -9 -5 0 0 9
13 20 24 20 24 20 -18 0 -40 -19 -63 -25 -63 -16 0 2 7 17 15 32 8 16 14 45
14 64 l-2 35 -6 -40 -7 -40 -5 47 c-7 53 -64 182 -77 174 -5 -3 -26 12 -47 34
-21 22 -42 37 -47 34 -5 -3 -27 9 -51 27 -23 18 -36 26 -29 19 21 -24 13 -31
-15 -13 -23 14 -26 15 -15 2 8 -11 -34 -1 -135 32 -81 27 -178 52 -217 57 -43
5 -64 11 -53 15 9 4 25 10 35 14 9 4 -30 10 -88 14 -60 3 -113 2 -123 -3 -23
-12 -37 -1 -17 12 25 16 -26 12 -67 -5 -31 -13 -34 -13 -23 0 14 17 13 17 -15
5z m-170 -80 c-10 -11 -21 -18 -23 -15 -3 3 3 12 14 20 27 20 30 18 9 -5z
m532 -109 c54 -11 116 -27 138 -36 170 -72 277 -203 246 -305 -12 -42 -85
-118 -96 -100 -5 8 -10 8 -21 -1 -17 -14 -18 -6 -3 24 9 19 8 19 -11 -3 l-21
-25 6 25 c6 24 6 25 -10 5 -9 -11 -23 -29 -31 -40 -8 -11 -2 3 13 30 26 49 26
49 3 30 l-23 -20 13 24 c18 35 -7 17 -31 -23 -10 -17 -19 -25 -19 -18 0 7 -4
10 -10 7 -6 -3 -7 1 -3 10 4 11 8 13 13 6 3 -6 13 4 23 24 22 47 21 52 -4 24
-19 -23 -20 -23 -10 -2 17 34 12 40 -10 13 -17 -21 -19 -22 -10 -3 14 27 14
36 1 28 -5 -3 -10 -1 -10 6 0 7 -7 4 -15 -7 -8 -10 -14 -23 -14 -29 0 -5 6 -1
14 9 22 30 18 11 -6 -26 -12 -18 -19 -25 -15 -15 7 21 -3 49 -15 42 -4 -3 -3
8 2 25 6 16 15 33 20 36 5 3 9 10 9 16 0 5 -9 0 -21 -13 l-20 -24 7 25 c6 25
6 25 -11 5 -12 -14 -15 -15 -12 -4 3 9 -1 16 -9 16 -7 0 -11 -4 -8 -9 3 -4 0
-8 -5 -8 -6 0 -11 -6 -11 -13 0 -7 -7 -22 -15 -33 -9 -12 -7 0 6 36 l21 55
-21 -19 c-12 -11 -21 -25 -21 -32 0 -7 -5 -16 -12 -20 -8 -5 -9 -2 -4 12 20
48 24 73 13 71 -14 -2 -27 -18 -27 -32 0 -5 5 -3 11 5 8 12 10 12 7 1 -5 -16
-38 -24 -38 -10 0 6 -4 8 -9 4 -6 -3 -6 6 -1 25 12 40 5 38 -20 -7 l-20 -38 5
40 5 40 -14 -29 -13 -29 -21 21 c-20 20 -22 20 -32 4 -9 -14 -10 -11 -5 13 l5
30 -19 -22 c-11 -13 -21 -23 -24 -23 -3 0 -3 10 0 23 l6 22 -27 -24 -26 -25 6
35 c3 19 7 40 10 47 7 24 -5 12 -30 -30 -26 -43 -32 -39 -28 17 l2 20 -12 -20
c-6 -11 -14 -22 -18 -25 -4 -3 -10 -12 -13 -20 -3 -8 -6 -2 -7 15 l-1 30 -14
-25 c-13 -23 -14 -23 -16 -5 -1 11 -1 34 0 50 l1 30 -15 -33 c-18 -41 -39 -33
-30 11 6 31 5 30 -15 -8 -11 -22 -18 -32 -15 -22 6 24 -5 48 -19 40 -6 -3 -9
-4 -6 0 3 3 10 7 15 8 6 1 18 12 27 24 22 29 123 81 189 99 74 20 142 19 256
-3z m-880 -53 c-3 -8 -6 -5 -6 6 -1 11 2 17 5 13 3 -3 4 -12 1 -19z m1437 -24
c3 -8 2 -12 -4 -9 -6 3 -10 10 -10 16 0 14 7 11 14 -7z m-1776 -190 c-17 -17
-138 -34 -233 -32 l-70 1 80 8 c165 17 217 29 223 53 6 19 7 19 10 2 2 -10 -2
-25 -10 -32z m1264 -56 c-7 -7 -12 -8 -12 -2 0 14 12 26 19 19 2 -3 -1 -11 -7
-17z m19 -11 c-10 -9 -11 -8 -5 6 3 10 9 15 12 12 3 -3 0 -11 -7 -18z m61 -69
c-7 -7 -12 -8 -12 -2 0 14 12 26 19 19 2 -3 -1 -11 -7 -17z m-1000 -13 c-5
-10 -33 -29 -63 -44 -59 -29 -86 -59 -95 -108 -6 -30 -4 -33 17 -33 28 0 238
-49 261 -61 14 -8 21 -2 37 30 24 45 54 69 134 105 90 39 66 -1 -25 -44 -44
-21 -88 -70 -88 -99 0 -6 53 -36 117 -67 121 -56 118 -56 144 -12 5 10 44 34
87 55 42 20 82 44 89 52 9 13 10 10 6 -13 -5 -23 -17 -33 -67 -56 -34 -15 -75
-42 -90 -61 l-28 -33 23 -16 c13 -8 58 -44 101 -79 78 -63 79 -63 99 -45 12
10 46 28 77 40 32 12 56 27 55 33 -2 5 4 8 12 5 23 -9 9 -22 -66 -59 -38 -20
-69 -39 -69 -45 0 -5 5 -21 12 -35 11 -25 15 -26 53 -19 143 29 269 -26 349
-152 l27 -41 67 18 c36 11 94 18 127 18 l60 -2 -67 -7 c-55 -7 -163 -34 -176
-45 -5 -5 20 -95 28 -100 4 -3 34 7 65 21 50 23 67 26 136 22 63 -4 86 -10
118 -31 74 -49 108 -95 146 -196 19 -50 23 -55 75 -74 78 -28 172 -126 223
-231 77 -157 108 -374 76 -528 -12 -55 -29 -87 -29 -53 0 10 -7 26 -16 36 -15
17 -20 14 -94 -46 -43 -36 -118 -115 -169 -177 -50 -62 -105 -125 -124 -139
-43 -35 -328 -354 -396 -444 -65 -87 -213 -257 -218 -251 -10 10 50 108 109
178 226 274 329 390 462 523 188 187 350 364 342 372 -22 22 -234 -181 -402
-386 -215 -262 -467 -565 -492 -591 -8 -8 2 17 22 55 20 39 75 117 122 175 47
58 104 132 126 165 94 136 314 392 461 537 22 22 32 38 24 38 -15 0 -41 57
-102 222 l-36 97 21 100 c24 120 25 180 4 252 -48 160 -130 237 -264 246 -109
7 -185 -44 -264 -179 l-20 -33 41 33 c47 37 118 71 149 72 28 0 149 -126 174
-182 59 -134 20 -317 -82 -383 -26 -16 -47 -32 -47 -35 0 -3 15 -23 35 -45
l35 -40 35 40 c116 132 149 293 98 487 -8 33 -12 73 -8 92 7 39 -19 71 -67 81
-41 9 -36 25 7 25 190 0 179 -544 -15 -711 l-48 -42 14 -54 c18 -68 10 -103
-30 -142 -36 -36 -57 -39 -75 -11 -10 17 -10 20 2 20 25 0 46 42 46 89 0 56
-31 121 -77 161 -32 29 -40 31 -80 25 l-45 -7 18 32 c27 46 47 53 90 35 34
-14 39 -14 69 5 88 54 123 220 70 327 -35 69 -81 104 -164 124 -54 12 -82 2
-167 -62 -44 -32 -81 -54 -82 -49 -6 18 53 133 101 196 99 131 196 190 296
181 66 -6 143 -41 184 -85 15 -16 39 -56 53 -88 l25 -59 -5 42 c-4 24 -16 69
-27 100 -68 185 -308 235 -452 95 -21 -20 -63 -76 -93 -123 -69 -110 -112
-142 -199 -147 -74 -5 -155 16 -205 53 -35 25 -110 127 -110 148 0 6 13 -9 28
-34 98 -154 290 -204 401 -104 21 19 57 71 81 116 25 45 59 92 76 105 l32 25
-14 47 c-34 111 -93 189 -160 213 -64 23 -190 17 -249 -11 -27 -13 -52 -24
-55 -24 -44 -12 -90 -76 -128 -179 l-28 -77 -85 55 c-226 150 -441 220 -725
238 l-72 4 14 -33 c18 -43 18 -135 0 -177 -28 -69 -123 -129 -176 -112 -28 9
-25 25 4 25 34 0 106 58 133 105 17 30 23 56 23 106 0 74 -6 83 -62 92 -37 6
-38 5 -38 -26 -1 -48 -33 -109 -75 -144 l-37 -31 18 -121 c15 -105 16 -132 5
-203 -7 -46 -19 -99 -27 -118 -26 -62 -86 -111 -136 -110 -17 1 -14 4 15 14
48 18 64 32 87 75 46 90 53 196 25 358 l-18 98 -82 0 c-96 0 -112 9 -152 90
-24 51 -12 41 19 -14 23 -42 72 -64 144 -65 54 -1 68 3 105 30 26 18 54 50 67
75 12 25 49 149 81 276 61 237 78 286 106 297 9 3 45 6 79 6 61 0 62 0 74 33
16 44 65 93 123 123 26 13 51 29 54 34 11 18 18 3 7 -15z m1149 -48 c-10 -9
-11 -8 -5 6 3 10 9 15 12 12 3 -3 0 -11 -7 -18z m-49 -9 c-7 -7 -12 -8 -12 -2
0 14 12 26 19 19 2 -3 -1 -11 -7 -17z m-1799 -65 c-13 -2 -35 -2 -50 0 -16 2
-5 4 22 4 28 0 40 -2 28 -4z m1388 -210 c-12 -20 -14 -14 -5 12 4 9 9 14 11
11 3 -2 0 -13 -6 -23z m302 -27 c-3 -4 -9 -2 -14 5 -13 22 -11 31 5 17 8 -7
12 -17 9 -22z m-273 10 c0 -3 -4 -8 -10 -11 -5 -3 -10 -1 -10 4 0 6 5 11 10
11 6 0 10 -2 10 -4z m-1580 -22 c0 -8 -4 -13 -9 -10 -11 7 -51 -72 -51 -101 0
-26 25 -47 47 -39 15 5 15 4 -1 -9 -24 -18 -38 -19 -54 -3 -19 19 -14 60 13
113 13 27 23 51 21 53 -3 2 -23 -13 -45 -33 -45 -41 -48 -54 -27 -134 l13 -53
-35 -34 c-33 -32 -36 -33 -54 -18 -25 24 -22 56 9 78 20 15 30 17 43 8 16 -10
17 -8 7 26 -6 20 -12 39 -14 41 -1 2 -19 -9 -39 -24 -58 -45 -122 -206 -94
-240 8 -10 9 -19 1 -32 -9 -16 -11 -16 -19 7 l-10 25 -6 -25 c-4 -14 -2 -38 4
-54 11 -31 6 -46 -17 -46 -23 0 -12 68 30 184 47 126 70 164 160 259 56 58 80
77 100 77 18 0 27 -5 27 -16z m1955 -74 c-10 -11 -23 -20 -29 -20 -6 0 0 9 14
20 32 25 38 25 15 0z m-1956 -45 c1 -5 -6 -2 -15 7 -10 9 -13 21 -8 29 5 9 9
8 15 -7 4 -10 8 -23 8 -29z m1990 -38 c-2 -1 -13 -9 -24 -17 -19 -14 -19 -14
-6 3 7 9 18 17 24 17 6 0 8 -1 6 -3z m-191 -37 c-7 -10 -14 -17 -17 -15 -4 4
18 35 25 35 2 0 -1 -9 -8 -20z m207 10 c-3 -5 -16 -15 -28 -21 -19 -9 -19 -8
3 10 28 23 34 26 25 11z m-244 -23 c-10 -9 -11 -8 -5 6 3 10 9 15 12 12 3 -3
0 -11 -7 -18z m249 -57 c-8 -5 -19 -10 -25 -10 -5 0 -3 5 5 10 8 5 20 10 25
10 6 0 3 -5 -5 -10z m-2213 -28 c9 -6 7 -16 -10 -40 -26 -37 -42 -42 -33 -9 3
12 6 30 6 40 0 18 17 22 37 9z m624 -108 c-12 -64 -31 -102 -62 -129 -24 -20
-24 -20 -8 0 39 48 61 108 61 169 0 48 2 56 9 37 6 -15 6 -45 0 -77z m1231 69
c9 -10 25 -36 36 -59 11 -22 31 -46 44 -52 19 -10 14 -11 -34 -6 -51 6 -59 4
-81 -18 -28 -28 -44 -98 -28 -125 9 -15 10 -13 11 15 0 45 24 98 50 112 31 17
35 6 6 -14 -49 -31 -53 -121 -7 -145 34 -19 65 -11 94 24 l28 34 -36 28 c-19
15 -35 32 -35 36 0 5 14 -3 31 -17 37 -31 67 -33 103 -5 25 19 25 22 11 49
-21 40 -53 60 -97 60 -21 0 -38 5 -38 10 0 18 74 11 108 -10 18 -11 40 -36 49
-56 l18 -36 -28 -24 c-16 -13 -40 -24 -54 -24 -26 0 -26 0 -8 -20 10 -11 21
-17 24 -12 3 4 22 18 43 30 20 12 39 29 42 37 5 15 36 21 36 8 0 -5 -25 -26
-55 -48 -49 -36 -54 -44 -55 -78 0 -30 -7 -46 -33 -72 -82 -82 -224 -65 -312
37 -36 42 -37 45 -32 103 6 64 28 134 53 173 16 24 100 82 119 82 7 0 19 -8
27 -17z m-1024 -85 c-8 -141 -69 -236 -177 -273 -67 -23 -110 -20 -120 8 -11
29 -6 37 25 37 68 0 176 94 199 174 8 27 15 64 15 81 0 35 15 55 43 55 18 0
19 -6 15 -82z m175 56 c95 -22 174 -57 215 -97 58 -56 58 -62 2 -99 -54 -35
-105 -100 -115 -149 -5 -23 -11 -29 -23 -24 -81 31 -162 25 -245 -17 -69 -34
-95 -56 -154 -131 -74 -96 -218 -236 -259 -253 -18 -8 -58 -17 -88 -20 -47 -6
-57 -4 -62 11 -4 9 -3 29 2 44 8 22 15 25 41 23 37 -4 78 16 128 60 47 41 62
72 80 162 7 42 19 84 24 95 7 12 38 28 83 42 60 18 82 31 122 72 62 63 95 137
103 227 l6 70 34 0 c19 0 66 -7 106 -16z m1254 0 c-3 -3 -12 -4 -19 -1 -8 3
-5 6 6 6 11 1 17 -2 13 -5z m380 -123 c-4 -1 -10 -1 -12 0 -5 6 -8 59 -5 94 2
22 6 14 14 -30 7 -33 8 -62 3 -64z m-392 94 c-16 -8 -37 -14 -45 -14 -8 0 -1
6 15 14 17 7 37 13 45 13 8 0 2 -6 -15 -13z m353 -22 c-11 -11 -31 -16 -59
-15 -57 3 -63 12 -8 12 24 0 51 5 59 10 23 15 26 12 8 -7z m-125 0 c-7 -2 -19
-2 -25 0 -7 3 -2 5 12 5 14 0 19 -2 13 -5z m-2178 -233 c10 -11 24 -20 30 -20
15 0 41 38 61 88 l14 37 -4 -44 c-3 -34 -13 -52 -40 -79 -31 -32 -37 -34 -52
-21 -27 22 -54 90 -53 134 1 38 1 37 13 -17 7 -32 21 -66 31 -78z m-194 -6
c13 -15 39 -33 57 -41 34 -14 38 -29 10 -46 -29 -19 -65 1 -87 46 -34 70 -25
89 20 41z m23 -119 c33 -7 33 -8 39 -72 8 -80 37 -143 85 -183 l36 -29 -17
-36 c-18 -39 -54 -48 -78 -19 -7 8 -25 22 -40 29 -14 8 -53 53 -85 100 -36 53
-64 85 -75 85 -17 0 -17 3 -4 40 12 33 44 183 45 209 0 3 14 -22 31 -56 26
-54 34 -63 63 -68z m297 71 c24 -54 24 -139 -1 -194 -24 -53 -65 -92 -97 -92
-33 0 -79 48 -92 96 -19 69 -10 203 15 211 7 2 9 -27 6 -86 -4 -80 -2 -91 17
-110 13 -13 34 -21 53 -21 25 0 29 -3 20 -12 -9 -9 -19 -10 -42 -1 -28 10 -29
10 -20 -8 38 -69 107 -27 132 80 10 44 9 57 -10 109 -12 32 -22 64 -22 71 0
22 22 -1 41 -43z m664 -50 c28 -13 82 -46 120 -74 72 -52 153 -82 222 -82 44
0 104 -31 138 -72 40 -46 91 -159 116 -253 32 -120 32 -304 1 -404 -67 -211
-224 -451 -296 -451 -14 0 -13 7 8 49 45 87 94 214 122 316 27 94 29 112 29
290 0 140 -4 198 -14 220 l-14 30 -12 -48 c-29 -108 -120 -217 -222 -264 -77
-36 -134 -39 -230 -13 -83 22 -197 84 -190 103 2 6 43 21 92 34 113 30 184 70
266 152 72 72 147 189 155 243 l6 35 -78 -1 c-74 -1 -84 2 -163 42 -106 55
-160 62 -218 30 -24 -13 -106 -84 -184 -158 -187 -179 -221 -197 -249 -129
-15 34 0 64 51 101 17 13 74 73 125 135 52 61 106 120 122 131 103 73 193 84
297 38z m-788 -58 c25 -24 51 -15 69 26 13 30 13 30 14 6 0 -39 -26 -70 -61
-70 -25 0 -33 6 -45 35 -7 19 -14 47 -13 62 1 26 1 26 9 -6 4 -18 17 -42 27
-53z m1551 -245 c-9 -10 -13 -24 -11 -30 3 -7 0 -13 -7 -13 -6 0 -8 5 -5 10 3
6 1 10 -6 10 -6 0 -1 9 12 20 30 24 37 25 17 3z m9 -79 c0 -8 -14 -22 -31 -31
l-30 -16 29 32 c17 17 30 31 31 31 0 0 1 -7 1 -16z m-697 -12 c0 -4 -19 -26
-42 -49 -75 -72 -187 -116 -328 -127 -72 -6 -74 -6 -57 11 13 13 41 19 110 24
67 4 104 12 137 29 57 28 90 58 90 81 0 12 11 22 33 28 42 12 57 13 57 3z
m730 -11 c-14 -27 -39 -51 -53 -51 -6 0 -2 7 9 16 17 14 17 15 1 10 -11 -4
-16 -2 -12 5 4 6 13 8 19 6 7 -3 18 4 24 14 16 25 26 25 12 0z m-1424 -16 c9
-35 -9 -52 -73 -71 -64 -19 -100 -12 -115 21 -18 41 -5 55 54 56 29 0 62 4 73
9 36 16 54 11 61 -15z m570 -10 c19 -49 -144 -113 -230 -91 -33 8 -33 21 3 57
37 36 74 38 89 4 16 -35 49 -32 86 9 35 39 44 43 52 21z m843 -28 c-2 -1 -13
-9 -24 -17 -19 -14 -19 -14 -6 3 7 9 18 17 24 17 6 0 8 -1 6 -3z m1 -37 c-6
-11 -18 -20 -28 -19 -14 0 -14 2 3 9 11 5 16 9 12 9 -11 1 2 21 14 21 6 0 6
-8 -1 -20z m30 1 c-5 -11 -7 -27 -4 -35 3 -9 1 -16 -6 -16 -6 0 -8 5 -5 10 8
13 3 13 -30 0 -17 -7 -24 -7 -20 0 3 6 12 10 19 10 8 0 21 11 30 25 19 29 31
34 16 6z m-1530 -62 c-24 -8 -24 -8 5 -7 17 0 43 -4 58 -10 15 -7 39 -15 53
-18 13 -3 26 -10 29 -14 3 -5 -27 1 -66 12 -40 11 -82 17 -97 14 -20 -5 -23
-4 -12 4 8 5 11 10 7 10 -5 0 -5 5 -2 10 3 6 16 10 28 9 21 -1 20 -2 -3 -10z
m103 -6 c-7 -2 -21 -2 -30 0 -10 3 -4 5 12 5 17 0 24 -2 18 -5z m1417 -3 c0
-5 -10 -15 -22 -21 -23 -12 -23 -12 -4 10 21 23 26 26 26 11z m-1373 -6 c-3
-3 -12 -4 -19 -1 -8 3 -5 6 6 6 11 1 17 -2 13 -5z m1388 -24 c-4 -13 -2 -20 7
-20 7 0 0 -12 -15 -25 -27 -24 -54 -34 -43 -16 4 5 0 12 -6 15 -7 3 -4 4 8 1
13 -4 26 1 35 12 13 16 12 17 -2 5 -9 -7 -24 -9 -33 -6 -15 6 -15 7 1 19 10 7
21 11 25 8 5 -2 11 3 14 11 9 23 16 19 9 -4z m-1733 -20 c20 -35 39 -37 85 -9
l33 21 -11 -26 c-19 -41 -90 -70 -156 -63 -33 4 -63 13 -72 23 -15 15 -14 16
14 10 74 -16 104 -18 121 -7 16 9 13 10 -13 5 -44 -9 -80 2 -94 28 -10 18 -8
24 7 35 31 23 67 16 86 -17z m348 -32 c104 -43 140 -63 140 -78 0 -5 -16 1
-35 14 -44 30 -208 96 -238 96 -13 0 -32 -7 -43 -15 -26 -19 -40 -19 -23 1 34
42 63 39 199 -18z m110 6 c0 -3 -13 4 -30 16 -16 12 -30 24 -30 26 0 3 14 -4
30 -16 17 -12 30 -24 30 -26z m189 -33 c47 -32 123 -77 169 -100 45 -23 82
-46 82 -51 0 -16 -46 -30 -98 -30 -112 0 -286 152 -258 225 3 8 8 15 12 15 4
0 46 -26 93 -59z m1321 18 c9 -16 8 -24 -4 -38 -27 -30 -20 -86 15 -125 51
-59 118 -60 170 -4 26 30 27 30 34 8 10 -31 -2 -68 -24 -75 -38 -12 -128 -7
-158 9 -65 33 -112 123 -99 189 11 56 46 75 66 36z m103 -20 c5 -9 7 -28 3
-42 -5 -20 -13 -27 -31 -27 -30 0 -49 32 -41 67 5 19 12 24 33 21 14 -2 30
-10 36 -19z m-348 1 c-27 -12 -43 -12 -25 0 8 5 22 9 30 9 10 0 8 -3 -5 -9z
m25 -20 c-8 -5 -24 -10 -35 -10 -17 0 -17 2 -5 10 8 5 24 10 35 10 17 0 17 -2
5 -10z m400 -58 c0 -60 -65 -105 -119 -82 -39 16 -59 40 -67 78 -8 39 4 41 36
7 33 -35 65 -32 92 9 18 28 26 32 40 25 11 -6 18 -21 18 -37z m-412 31 c-10
-2 -26 -2 -35 0 -10 3 -2 5 17 5 19 0 27 -2 18 -5z m-1143 -59 c26 -40 129
-110 203 -138 60 -23 81 -39 164 -124 133 -135 178 -233 178 -383 0 -104 -27
-176 -83 -225 -62 -54 -209 -121 -292 -134 -84 -14 -140 -8 -293 31 -191 48
-246 40 -370 -53 -37 -27 -61 -38 -79 -36 -24 3 -20 8 48 54 150 104 188 112
371 79 181 -33 248 -39 323 -27 108 17 178 47 239 103 49 44 95 123 81 137 -2
3 -31 -20 -63 -50 -98 -94 -192 -128 -352 -128 -103 0 -371 40 -394 59 -32 27
-38 223 -7 254 10 10 83 54 162 97 209 115 227 126 249 162 21 33 23 92 5 146
-11 32 9 28 54 -14 26 -23 46 -53 57 -86 10 -31 19 -46 24 -38 4 7 16 9 29 5
13 -4 18 -11 14 -18 -4 -8 -1 -7 9 1 13 10 18 10 24 1 5 -8 3 -10 -7 -5 -8 4
-6 1 4 -7 14 -11 15 -16 5 -20 -7 -3 -2 -4 11 -3 14 2 27 8 29 14 2 7 8 10 12
7 5 -3 0 -22 -11 -43 -12 -20 -14 -29 -6 -19 11 13 16 14 19 6 3 -9 7 -7 11 5
4 10 3 15 -3 11 -6 -3 -10 -2 -10 4 0 17 17 22 28 8 7 -8 7 -18 2 -27 -6 -8
-9 -22 -9 -30 0 -8 5 -3 11 13 5 15 14 24 19 21 6 -3 5 -11 -2 -20 -6 -8 -10
-16 -8 -19 3 -2 10 4 16 14 10 16 2 28 -55 84 -101 99 -177 160 -264 212 -77
46 -119 88 -132 132 -10 30 16 21 39 -13z m1135 16 c-8 -5 -26 -9 -40 -9 l-25
1 25 8 c14 4 32 8 40 9 13 1 13 0 0 -9z m40 -10 c-8 -5 -22 -9 -30 -9 -10 0
-8 3 5 9 27 12 43 12 25 0z m40 -19 c-24 -14 -87 -25 -75 -13 11 11 39 19 70
21 16 0 17 -1 5 -8z m-5 -46 c-16 -8 -39 -14 -50 -14 -11 0 -2 6 20 14 52 17
68 17 30 0z m58 -32 c-7 -2 -21 -2 -30 0 -10 3 -4 5 12 5 17 0 24 -2 18 -5z
m-86 -19 c-3 -3 -12 -4 -19 -1 -8 3 -5 6 6 6 11 1 17 -2 13 -5z m173 -24 c11
-7 7 -9 -18 -6 -32 3 -58 16 -33 16 7 0 9 5 5 11 -6 11 11 3 46 -21z m-63 -26
c-3 -3 -12 -4 -19 -1 -8 3 -5 6 6 6 11 1 17 -2 13 -5z m-959 -189 c-3 -3 -9 2
-12 12 -6 14 -5 15 5 6 7 -7 10 -15 7 -18z m918 -167 l29 -33 -32 29 c-31 28
-38 36 -30 36 2 0 16 -15 33 -32z m25 -60 c15 -28 5 -21 -21 15 -15 20 -17 27
-6 18 9 -8 22 -23 27 -33z m804 -94 c-134 -131 -196 -182 -164 -137 16 22 208
206 257 246 76 61 39 18 -93 -109z m-834 99 c13 -16 12 -17 -3 -4 -10 7 -18
15 -18 17 0 8 8 3 21 -13z m902 -104 c-130 -121 -447 -453 -658 -690 -66 -73
-123 -135 -127 -137 -8 -4 -246 -265 -380 -417 -53 -61 -151 -157 -217 -214
-67 -58 -156 -146 -200 -200 -72 -87 -145 -164 -127 -134 5 9 2 11 -8 7 -8 -3
-12 -12 -9 -20 4 -10 0 -12 -11 -8 -10 4 -26 -1 -39 -12 -25 -21 90 100 394
411 202 208 420 444 471 510 12 17 111 129 219 250 193 217 267 292 404 410
39 33 95 83 125 111 91 85 215 192 218 189 2 -2 -23 -27 -55 -56z m-1342 -236
c13 -16 12 -17 -3 -4 -10 7 -18 15 -18 17 0 8 8 3 21 -13z m-28 -35 c18 -18
21 -23 7 -11 -14 12 -36 26 -50 32 -18 7 -20 10 -7 10 9 1 32 -14 50 -31z
m-193 -272 c0 -12 -5 -7 -19 24 -11 24 -11 24 3 6 9 -11 16 -24 16 -30z m-389
-51 c11 -22 14 -31 7 -21 -7 11 -25 34 -40 51 -33 38 -37 56 -7 29 12 -10 30
-37 40 -59z m29 35 c6 -11 8 -20 6 -20 -3 0 -10 9 -16 20 -6 11 -8 20 -6 20 3
0 10 -9 16 -20z m-493 -12 c-3 -8 -6 -5 -6 6 -1 11 2 17 5 13 3 -3 4 -12 1
-19z m198 -69 l4 -64 -9 62 c-5 35 -12 69 -16 75 -5 10 -4 10 5 2 7 -7 14 -40
16 -75z m-248 49 c-3 -8 -6 -5 -6 6 -1 11 2 17 5 13 3 -3 4 -12 1 -19z m-10
-55 c-3 -10 -5 -4 -5 12 0 17 2 24 5 18 2 -7 2 -21 0 -30z m180 15 c-3 -8 -6
-5 -6 6 -1 11 2 17 5 13 3 -3 4 -12 1 -19z m100 -60 c-3 -7 -5 -2 -5 12 0 14
2 19 5 13 2 -7 2 -19 0 -25z m-374 -73 c4 -24 3 -34 -2 -25 -5 8 -12 38 -15
65 -7 57 7 25 17 -40z m14 28 c-3 -10 -5 -4 -5 12 0 17 2 24 5 18 2 -7 2 -21
0 -30z m670 -10 c-3 -10 -5 -2 -5 17 0 19 2 27 5 18 2 -10 2 -26 0 -35z m-870
-25 c-3 -7 -5 -2 -5 12 0 14 2 19 5 13 2 -7 2 -19 0 -25z m530 0 c-3 -7 -5 -2
-5 12 0 14 2 19 5 13 2 -7 2 -19 0 -25z m-220 -10 c-3 -8 -6 -5 -6 6 -1 11 2
17 5 13 3 -3 4 -12 1 -19z m1748 -57 c-31 -62 -173 -230 -310 -366 -56 -55
-155 -161 -220 -235 -164 -184 -356 -373 -368 -361 -6 6 -2 20 11 38 11 15 31
49 45 74 37 65 108 141 196 209 98 75 299 280 432 440 117 140 230 263 236
256 2 -2 -7 -27 -22 -55z m-1783 -48 c6 -7 8 -13 4 -13 -9 0 -66 91 -66 104 0
6 12 -9 26 -34 14 -25 30 -51 36 -57z m238 32 c-16 -47 -23 -40 -8 8 6 20 13
35 16 33 2 -3 -1 -21 -8 -41z m-49 -12 c-12 -20 -14 -14 -5 12 4 9 9 14 11 11
3 -2 0 -13 -6 -23z m1685 -35 c-29 -41 -181 -217 -184 -213 -6 6 184 235 196
235 2 0 -4 -10 -12 -22z m243 -7 c-57 -71 -419 -532 -460 -586 -25 -33 -85
-120 -133 -192 -48 -73 -89 -133 -92 -133 -3 0 -2 4 1 10 3 5 1 19 -5 30 -8
15 -8 20 2 20 10 0 9 3 -1 9 -11 7 -8 17 18 50 18 22 42 49 54 58 12 10 80 97
151 193 148 199 247 320 383 468 91 98 131 134 82 73z m-1939 5 c0 -8 -9 -24
-20 -37 l-19 -24 17 37 c19 41 22 45 22 24z m903 -43 c-50 -61 -165 -214 -234
-315 -89 -127 -318 -428 -384 -503 -34 -38 -87 -107 -119 -152 -60 -86 -67
-92 -103 -85 -19 4 -21 7 -12 18 6 8 17 14 25 14 17 0 46 29 39 41 -4 5 -2 9
4 9 10 0 75 78 121 145 14 21 40 54 58 75 17 20 32 45 32 54 0 9 4 16 9 16 5
0 46 46 90 102 58 72 78 104 69 109 -7 4 -10 10 -8 11 14 11 67 44 76 48 13 6
43 45 164 210 94 130 202 262 208 255 3 -2 -13 -26 -35 -52z m-940 22 c-3 -9
-8 -14 -10 -11 -3 3 -2 9 2 15 9 16 15 13 8 -4z m1726 -137 c-61 -79 -141
-181 -177 -227 -87 -110 -168 -221 -217 -299 -22 -35 -85 -118 -140 -186 -55
-67 -113 -141 -130 -164 -33 -45 -46 -53 -38 -22 3 11 10 20 15 20 5 0 6 5 2
12 -4 6 0 16 8 22 8 6 21 22 28 36 19 36 163 234 229 315 32 39 111 140 176
225 65 85 146 186 179 224 73 84 168 186 172 186 2 0 -47 -64 -107 -142z
m-587 -89 c-39 -55 -172 -197 -381 -406 -176 -178 -324 -323 -329 -323 -4 0 2
7 12 15 11 8 16 15 12 15 -10 0 43 55 307 321 117 118 239 248 271 289 63 81
157 182 164 176 2 -2 -23 -42 -56 -87z m765 -26 c-34 -43 -140 -182 -236 -309
-110 -146 -180 -230 -188 -227 -7 3 -10 9 -7 14 3 5 9 7 13 5 4 -3 8 1 8 8 0
14 80 126 190 268 67 86 270 318 278 318 3 0 -23 -35 -58 -77z m-582 -130
c-24 -38 -193 -254 -299 -383 -48 -58 -120 -145 -160 -195 -41 -49 -93 -105
-116 -124 -38 -30 -42 -32 -54 -16 -11 16 -14 15 -31 -11 -11 -16 -20 -32 -20
-35 0 -3 -21 -28 -46 -56 -30 -34 -50 -49 -58 -43 -9 5 10 33 67 96 129 143
182 195 192 189 6 -3 10 0 10 7 0 7 75 94 166 193 91 99 191 212 222 250 63
79 132 155 139 155 3 0 -3 -12 -12 -27z m-1395 -18 c0 -12 -24 -55 -32 -55
-12 0 -10 34 4 48 12 12 28 16 28 7z m-40 -91 c-6 -14 -17 -36 -25 -47 -8 -12
-15 -32 -15 -44 0 -13 -8 -31 -17 -41 -10 -9 -20 -29 -21 -42 -5 -36 -18 -45
-31 -21 -10 17 -8 24 9 38 11 10 20 26 20 36 0 10 9 30 20 44 13 16 18 34 14
48 -4 16 1 27 17 39 33 23 40 20 29 -10z m250 -21 c0 -13 -3 -13 -15 -3 -8 7
-15 19 -15 27 0 13 3 13 15 3 8 -7 15 -19 15 -27z m-167 -3 c-3 -10 -11 -25
-19 -31 -11 -9 -14 -8 -14 8 0 19 17 43 31 43 4 0 5 -9 2 -20z m542 0 c0 -8
-12 -17 -27 -21 -23 -6 -28 -4 -28 11 0 10 8 21 18 23 25 7 37 2 37 -13z
m-315 -31 c22 -12 37 -25 34 -30 -8 -13 -34 -11 -34 2 0 6 -6 9 -14 6 -16 -6
-36 11 -36 30 0 17 2 17 50 -8z m245 1 c0 -8 -7 -15 -15 -15 -8 0 -21 -4 -27
-8 -7 -5 -17 -6 -22 -2 -5 3 -12 1 -16 -4 -3 -6 -12 -8 -20 -4 -9 3 -21 0 -29
-6 -10 -8 -16 -8 -26 4 -7 8 -9 16 -4 17 24 4 30 6 48 13 11 5 26 3 39 -4 18
-12 19 -11 14 9 -5 19 -2 21 26 18 20 -2 32 -8 32 -18z m-175 -25 c0 -8 -4
-15 -10 -15 -5 0 -7 7 -4 15 4 8 8 15 10 15 2 0 4 -7 4 -15z m-336 -17 c-3
-13 -11 -29 -17 -37 -6 -7 -12 -20 -13 -28 -5 -33 -15 -46 -25 -36 -8 8 -7 18
2 34 7 13 12 28 11 33 -4 12 27 56 39 56 6 0 8 -9 3 -22z m96 -3 c0 -14 -35
-75 -43 -75 -13 0 0 62 16 72 14 9 27 10 27 3z m-32 -112 c-2 -10 -13 -19 -25
-21 -17 -3 -20 1 -16 17 7 26 46 29 41 4z m-123 -52 c-6 -37 -21 -51 -37 -35
-4 3 1 26 9 51 19 55 38 44 28 -16z m-87 7 c-3 -35 -22 -48 -32 -22 -9 24 2
54 20 54 11 0 14 -9 12 -32z m202 -18 c0 -12 -35 -31 -43 -24 -3 3 -3 12 0 20
6 16 43 19 43 4z m-220 -54 c0 -29 -10 -38 -29 -27 -17 11 -5 51 15 51 8 0 14
-10 14 -24z m88 -15 c3 -16 -1 -22 -10 -19 -7 3 -15 15 -16 27 -3 16 1 22 10
19 7 -3 15 -15 16 -27z m122 4 c0 -15 -6 -25 -14 -25 -19 0 -27 25 -13 39 18
18 27 13 27 -14z m-220 -54 c0 -11 -5 -23 -10 -26 -6 -3 -7 -17 -4 -31 5 -20
2 -24 -15 -24 -22 0 -29 24 -11 35 6 4 8 15 5 26 -4 10 -3 23 0 29 11 17 35
11 35 -9z m90 -34 c5 -41 4 -47 -12 -47 -15 0 -17 4 -9 18 6 11 6 24 0 33 -13
21 -11 51 4 47 6 -3 14 -26 17 -51z m140 8 c0 -16 -6 -25 -15 -25 -8 0 -15 4
-15 9 0 5 -3 16 -6 25 -4 12 0 16 15 16 16 0 21 -6 21 -25z m731 -8 c-10 -9
-11 -8 -5 6 3 10 9 15 12 12 3 -3 0 -11 -7 -18z m-111 9 c0 -2 -8 -10 -17 -17
-16 -13 -17 -12 -4 4 13 16 21 21 21 13z m634 -12 c20 -20 20 -27 -4 -72 -27
-52 -57 -88 -66 -79 -19 19 -11 89 14 128 29 44 34 46 56 23z m-556 -34 c-12
-19 -38 -35 -38 -24 0 5 41 43 48 44 1 0 -3 -9 -10 -20z m-685 -20 c6 -23 0
-30 -19 -23 -8 3 -14 16 -14 29 0 28 25 23 33 -6z m-262 -7 c1 -5 3 -17 4 -28
1 -11 5 -30 9 -42 6 -20 4 -23 -17 -23 -20 0 -24 5 -25 33 -2 39 6 67 19 67 5
0 10 -3 10 -7z m117 -18 c1 -16 -3 -25 -13 -25 -15 0 -21 31 -8 43 12 13 19 7
21 -18z m792 1 c0 -2 -8 -10 -17 -17 -16 -13 -17 -12 -4 4 13 16 21 21 21 13z
m-605 -22 c26 -17 34 -44 13 -44 -20 1 -60 38 -53 50 8 13 11 13 40 -6z m-171
-39 c17 -26 17 -26 -11 -19 -37 9 -38 11 -23 29 16 19 15 20 34 -10z m1132
-33 c-17 -16 -18 -16 -5 5 7 12 15 20 18 17 3 -2 -3 -12 -13 -22z m-65 -98
c-10 -38 -20 -10 -13 36 4 30 6 32 13 13 4 -12 4 -34 0 -49z m-283 -96 c5 -25
-27 -51 -44 -37 -19 16 -18 36 4 48 21 13 36 9 40 -11z m72 -7 c0 -6 -10 -17
-22 -26 -28 -19 -39 0 -12 20 22 17 34 19 34 6z m-495 -391 c8 -25 -1 -41 -20
-33 -23 8 -18 53 6 53 4 0 10 -9 14 -20z m-1273 -430 c3 -29 -19 -34 -35 -8
-8 12 -7 21 3 33 16 19 28 9 32 -25z m-40 -70 c16 -19 16 -22 0 -50 -13 -23
-19 -27 -27 -17 -5 8 -20 13 -33 12 -20 -1 -22 2 -18 21 4 16 1 23 -11 26 -15
3 -15 4 0 19 21 22 67 16 89 -11z m894 -20 c16 0 28 -35 20 -63 -4 -17 2 -26
24 -39 44 -25 54 -51 29 -80 l-20 -23 12 25 c11 22 11 24 -4 12 -13 -11 -16
-10 -22 7 -3 12 -3 26 1 33 4 7 4 10 -1 6 -4 -4 -14 0 -20 9 -11 15 -17 15
-39 5 -18 -8 -33 -9 -45 -3 -13 7 -20 5 -30 -11 -13 -20 -13 -20 -28 9 -14 29
-13 32 10 55 13 13 26 30 28 37 2 6 14 13 25 13 16 2 20 8 17 27 l-4 26 17
-22 c9 -13 22 -23 30 -23z m48 25 c-4 -8 -11 -15 -16 -15 -6 0 -5 6 2 15 7 8
14 15 16 15 2 0 1 -7 -2 -15z m-824 -359 c0 -2 -7 -6 -15 -10 -8 -3 -15 -1
-15 4 0 6 7 10 15 10 8 0 15 -2 15 -4z"/>
<path d="M2572 6575 c0 -16 2 -22 5 -12 2 9 2 23 0 30 -3 6 -5 -1 -5 -18z"/>
<path d="M2827 6481 c-9 -16 -17 -33 -17 -38 1 -4 8 5 16 20 8 15 19 25 24 22
6 -3 7 1 4 9 -8 20 -7 21 -27 -13z"/>
<path d="M1489 6133 c-24 -62 -120 -395 -115 -400 2 -2 75 -8 163 -13 88 -5
197 -17 244 -26 146 -27 357 -119 477 -208 34 -25 66 -46 72 -46 5 0 14 17 19
37 10 34 8 40 -15 64 -37 39 -228 145 -341 189 -107 42 -300 85 -428 95 -44 3
-92 9 -107 11 -48 9 -31 24 27 24 46 0 60 4 80 24 31 31 43 92 24 125 -19 34
-45 38 -80 12 -33 -25 -39 -11 -9 19 12 12 33 20 55 20 29 0 39 -6 55 -32 24
-39 25 -71 5 -127 l-14 -41 27 -7 c15 -4 52 -7 82 -8 53 0 56 1 72 35 30 62
32 86 10 108 -25 25 -55 19 -81 -14 -26 -33 -35 -30 -16 6 28 54 72 64 110 25
29 -28 32 -72 10 -135 -8 -23 -15 -44 -15 -46 0 -2 15 -4 33 -4 22 0 28 3 18
9 -18 11 -9 49 19 79 27 28 83 31 78 4 -2 -11 2 -25 8 -33 15 -19 35 -81 29
-87 -13 -13 -45 34 -45 65 0 21 -6 36 -15 40 -22 8 -55 -26 -55 -57 0 -23 6
-28 56 -44 56 -18 56 -18 80 5 13 12 35 39 50 60 15 22 35 39 45 39 23 0 45
-34 54 -81 6 -30 2 -41 -19 -65 -23 -27 -26 -28 -42 -12 -9 9 -14 24 -11 32 8
19 43 21 50 4 3 -7 6 -1 6 13 1 25 -32 80 -42 69 -16 -18 -67 -94 -67 -100 0
-7 58 -34 97 -45 16 -4 25 1 39 24 11 18 29 33 47 37 37 8 46 -2 14 -17 -36
-16 -51 -53 -28 -73 15 -13 22 -14 44 -3 25 11 27 17 25 56 -4 52 -26 73 -58
53 -24 -15 -27 0 -4 22 20 20 27 20 53 -1 23 -19 42 -81 34 -112 -3 -10 -16
-24 -30 -30 -13 -6 -23 -17 -20 -24 5 -17 47 -37 80 -37 23 0 26 -3 18 -18 -6
-12 -5 -23 4 -35 16 -22 22 -22 35 4 9 17 8 23 -6 34 -17 12 -16 13 4 19 28 9
29 46 3 70 -18 16 -20 15 -49 -14 -18 -18 -41 -30 -56 -30 -35 0 -33 15 4 30
16 7 36 23 45 36 18 28 46 31 67 7 21 -24 29 -73 16 -98 -6 -12 5 -5 28 16 22
20 51 43 67 51 l27 14 -32 46 c-97 136 -409 317 -647 378 -95 23 -214 40 -292
40 -56 0 -60 -2 -70 -27z m470 -159 c13 -9 29 -32 37 -50 17 -39 19 -104 3
-104 -6 0 -8 8 -4 19 7 24 -15 80 -41 102 -25 21 -57 29 -78 17 -19 -10 -22 2
-4 20 17 17 59 15 87 -4z m-404 -4 c3 -5 -1 -23 -10 -40 -13 -25 -22 -30 -50
-30 -40 0 -43 10 -14 51 20 29 61 40 74 19z m202 -36 c-3 -20 -11 -42 -18 -50
-13 -16 -99 -20 -99 -4 0 6 16 10 35 10 29 0 35 4 35 22 0 22 26 58 43 58 5 0
7 -15 4 -36z"/>
<path d="M1497 5963 c-11 -10 -8 -43 3 -43 9 0 30 31 30 44 0 8 -25 7 -33 -1z"/>
<path d="M2593 5738 c-29 -5 -53 -14 -53 -20 0 -6 9 -8 23 -4 55 16 153 17
201 2 27 -8 44 -10 39 -5 -12 12 -111 39 -138 38 -11 -1 -44 -6 -72 -11z"/>
<path d="M818 5789 c-24 -14 -23 -49 1 -49 24 0 45 25 37 45 -6 17 -14 18 -38
4z"/>
<path d="M2537 5624 c-25 -16 -46 -42 -58 -70 -22 -48 -37 -178 -23 -187 5 -3
26 2 47 10 32 13 37 20 37 47 0 46 20 109 39 122 9 7 31 15 49 19 37 7 37 4
15 50 -21 43 -50 46 -106 9z"/>
<path d="M2740 5365 c-14 -43 -44 -65 -87 -65 -36 0 -105 29 -97 41 2 4 18 1
34 -7 45 -23 109 -15 129 16 l15 25 -22 -19 c-28 -24 -74 -23 -119 4 -35 21
-38 21 -75 4 -21 -9 -38 -20 -38 -24 0 -11 43 -47 77 -64 18 -9 56 -16 85 -16
88 0 149 53 134 114 -9 36 -22 32 -36 -9z"/>
<path d="M1780 4070 c0 -5 5 -10 11 -10 5 0 7 5 4 10 -3 6 -8 10 -11 10 -2 0
-4 -4 -4 -10z"/>
<path d="M1974 4038 c-5 -7 -3 -8 6 -3 9 5 11 1 6 -16 -3 -13 -3 -18 0 -11 3
6 10 9 16 6 6 -4 5 2 -1 15 -13 24 -17 25 -27 9z"/>
<path d="M1780 4010 c12 -16 24 -30 26 -30 3 0 -4 14 -16 30 -12 17 -24 30
-26 30 -3 0 4 -13 16 -30z"/>
<path d="M1856 4023 c-6 -14 -5 -15 5 -6 7 7 10 15 7 18 -3 3 -9 -2 -12 -12z"/>
<path d="M1921 3998 c-1 -21 15 -32 25 -17 4 7 3 9 -4 5 -6 -3 -13 2 -15 11
-4 16 -5 16 -6 1z"/>
<path d="M1877 3983 c-10 -9 -9 -23 1 -23 5 0 9 7 9 15 0 17 -1 18 -10 8z"/>
<path d="M1730 3962 c0 -5 7 -16 16 -23 14 -12 16 -11 13 5 -4 20 -29 35 -29
18z"/>
<path d="M1670 3920 c-8 -5 -11 -12 -8 -16 10 -9 38 3 38 16 0 12 -10 13 -30
0z"/>
<path d="M1825 3920 c3 -5 8 -10 11 -10 2 0 4 5 4 10 0 6 -5 10 -11 10 -5 0
-7 -4 -4 -10z"/>
<path d="M1916 3907 c3 -10 9 -15 12 -12 3 3 0 11 -7 18 -10 9 -11 8 -5 -6z"/>
<path d="M1597 3903 c-4 -3 -7 -14 -7 -24 0 -12 6 -16 20 -12 11 3 20 9 20 13
0 12 -26 30 -33 23z"/>
<path d="M1881 3874 c0 -11 3 -14 6 -6 3 7 2 16 -1 19 -3 4 -6 -2 -5 -13z"/>
<path d="M1720 3871 c0 -6 5 -13 10 -16 6 -3 10 1 10 9 0 9 -4 16 -10 16 -5 0
-10 -4 -10 -9z"/>
<path d="M1515 3850 c-7 -12 12 -40 26 -40 5 0 9 7 9 16 0 8 -4 12 -10 9 -6
-3 -7 1 -4 9 7 18 -11 22 -21 6z"/>
<path d="M1662 3839 c2 -7 10 -15 17 -17 8 -3 12 1 9 9 -2 7 -10 15 -17 17 -8
3 -12 -1 -9 -9z"/>
<path d="M1896 3832 c-2 -4 4 -13 15 -20 11 -7 19 -8 19 -2 0 5 -5 10 -11 10
-5 0 -7 5 -4 10 3 6 2 10 -4 10 -5 0 -12 -4 -15 -8z"/>
<path d="M1343 3814 c-3 -8 -3 -18 1 -21 3 -4 6 -1 6 5 0 21 19 13 34 -15 18
-33 21 -25 5 11 -14 30 -38 41 -46 20z"/>
<path d="M1440 3810 c0 -5 5 -10 10 -10 6 0 10 5 10 10 0 6 -4 10 -10 10 -5 0
-10 -4 -10 -10z"/>
<path d="M1609 3807 c6 -8 9 -16 6 -18 -2 -3 4 -10 15 -17 18 -11 18 -10 2 18
-9 17 -21 30 -26 30 -5 0 -3 -6 3 -13z"/>
<path d="M1715 3790 c3 -5 8 -10 11 -10 2 0 4 5 4 10 0 6 -5 10 -11 10 -5 0
-7 -4 -4 -10z"/>
<path d="M1460 3780 c0 -5 5 -10 11 -10 5 0 7 5 4 10 -3 6 -8 10 -11 10 -2 0
-4 -4 -4 -10z"/>
<path d="M1825 3780 c3 -5 11 -10 16 -10 6 0 7 5 4 10 -3 6 -11 10 -16 10 -6
0 -7 -4 -4 -10z"/>
<path d="M1297 3773 c-4 -3 -7 -11 -7 -17 0 -6 5 -5 12 2 6 6 9 14 7 17 -3 3
-9 2 -12 -2z"/>
<path d="M1530 3771 c0 -5 7 -11 15 -15 9 -3 15 0 15 9 0 8 -7 15 -15 15 -8 0
-15 -4 -15 -9z"/>
<path d="M1470 3750 c0 -5 5 -10 10 -10 6 0 10 5 10 10 0 6 -4 10 -10 10 -5 0
-10 -4 -10 -10z"/>
<path d="M1710 3750 c0 -5 5 -10 10 -10 6 0 10 5 10 10 0 6 -4 10 -10 10 -5 0
-10 -4 -10 -10z"/>
<path d="M1860 3739 c0 -5 5 -7 10 -4 6 3 10 8 10 11 0 2 -4 4 -10 4 -5 0 -10
-5 -10 -11z"/>
<path d="M1631 3724 c0 -11 3 -14 6 -6 3 7 2 16 -1 19 -3 4 -6 -2 -5 -13z"/>
<path d="M1410 3719 c0 -5 5 -7 10 -4 6 3 10 8 10 11 0 2 -4 4 -10 4 -5 0 -10
-5 -10 -11z"/>
<path d="M1441 3714 c0 -11 3 -14 6 -6 3 7 2 16 -1 19 -3 4 -6 -2 -5 -13z"/>
<path d="M1555 3720 c-3 -5 -1 -10 4 -10 6 0 11 5 11 10 0 6 -2 10 -4 10 -3 0
-8 -4 -11 -10z"/>
<path d="M1480 3709 c0 -5 5 -7 10 -4 6 3 10 8 10 11 0 2 -4 4 -10 4 -5 0 -10
-5 -10 -11z"/>
<path d="M1720 3700 c0 -5 5 -10 10 -10 6 0 10 5 10 10 0 6 -4 10 -10 10 -5 0
-10 -4 -10 -10z"/>
<path d="M1410 3680 c0 -5 5 -10 11 -10 5 0 7 5 4 10 -3 6 -8 10 -11 10 -2 0
-4 -4 -4 -10z"/>
<path d="M1505 3670 c-3 -5 -1 -10 4 -10 6 0 11 5 11 10 0 6 -2 10 -4 10 -3 0
-8 -4 -11 -10z"/>
<path d="M1560 3666 c0 -9 5 -16 10 -16 6 0 10 4 10 9 0 6 -4 13 -10 16 -5 3
-10 -1 -10 -9z"/>
<path d="M1612 3660 c0 -14 2 -19 5 -12 2 6 2 18 0 25 -3 6 -5 1 -5 -13z"/>
<path d="M1090 626 c0 -2 8 -10 18 -17 15 -13 16 -12 3 4 -13 16 -21 21 -21
13z"/>
<path d="M2548 6973 c7 -3 16 -2 19 1 4 3 -2 6 -13 5 -11 0 -14 -3 -6 -6z"/>
<path d="M2279 6953 c-13 -17 -13 -17 6 -3 11 8 22 16 24 17 2 2 0 3 -6 3 -6
0 -17 -8 -24 -17z"/>
<path d="M980 6907 c0 -19 16 -31 24 -18 3 5 -1 14 -9 21 -12 10 -15 10 -15
-3z"/>
<path d="M416 6844 c-9 -23 22 -70 37 -55 7 7 8 20 1 38 -11 32 -29 40 -38 17z"/>
<path d="M1268 6823 c-68 -4 -78 -11 -59 -42 7 -11 25 -12 87 -7 89 8 94 10
94 37 0 15 -6 19 -27 17 -16 -1 -58 -3 -95 -5z"/>
<path d="M1265 6761 l-79 -6 -9 -44 c-5 -24 -5 -47 0 -51 9 -8 248 11 258 22
3 3 -3 24 -15 47 -17 34 -25 41 -48 39 -15 -1 -63 -4 -107 -7z"/>
<path d="M515 6680 c-11 -18 4 -80 22 -87 34 -13 37 52 3 82 -13 11 -20 13
-25 5z"/>
<path d="M820 6572 c0 -12 19 -26 26 -19 2 2 -2 10 -11 17 -9 8 -15 8 -15 2z"/>
<path d="M910 6433 c1 -5 7 -19 14 -32 15 -27 31 -13 21 19 -6 19 -35 29 -35
13z"/>
<path d="M740 6338 c0 -15 4 -29 9 -33 17 -10 20 10 5 35 l-13 25 -1 -27z"/>
<path d="M1420 6334 c-63 -7 -168 -13 -233 -13 -90 -1 -118 -4 -115 -13 6 -16
146 -21 322 -11 118 7 130 10 144 31 8 12 11 21 6 21 -5 -1 -61 -7 -124 -15z"/>
<path d="M830 6266 c0 -30 27 -55 36 -33 6 17 -12 57 -26 57 -6 0 -10 -11 -10
-24z"/>
<path d="M280 6267 c0 -18 28 -42 37 -33 9 8 -9 38 -25 44 -7 2 -12 -3 -12
-11z"/>
<path d="M500 6065 c0 -5 5 -17 10 -25 5 -8 10 -10 10 -5 0 6 -5 17 -10 25 -5
8 -10 11 -10 5z"/>
<path d="M1115 6000 c-10 -16 3 -110 19 -138 l13 -24 12 31 c7 17 14 54 15 83
1 50 0 53 -26 56 -14 2 -29 -2 -33 -8z"/>
<path d="M3335 5960 c-3 -5 -1 -10 5 -10 6 0 8 -4 5 -10 -4 -6 1 -7 11 -3 11
4 13 8 6 11 -7 2 -10 8 -6 13 3 5 1 9 -5 9 -5 0 -13 -4 -16 -10z"/>
<path d="M620 5893 c0 -56 11 -78 34 -70 20 8 20 27 2 71 -23 54 -36 54 -36
-1z"/>
<path d="M447 5730 c7 -25 19 -34 28 -20 7 11 -11 40 -25 40 -5 0 -6 -9 -3
-20z"/>
<path d="M90 5611 c0 -35 31 -77 49 -67 15 10 6 54 -16 79 -23 25 -33 21 -33
-12z"/>
<path d="M445 5083 c7 -31 23 -53 36 -53 14 0 10 34 -7 58 -21 31 -38 28 -29
-5z"/>
<path d="M641 5054 c0 -11 3 -14 6 -6 3 7 2 16 -1 19 -3 4 -6 -2 -5 -13z"/>
<path d="M655 5003 c11 -70 17 -93 25 -93 9 0 -3 62 -20 101 -9 22 -10 21 -5
-8z"/>
<path d="M352 4924 c1 -9 9 -19 16 -22 9 -3 13 2 10 14 -1 9 -9 19 -16 22 -9
3 -13 -2 -10 -14z"/>
<path d="M450 4863 c0 -63 17 -108 40 -108 21 0 18 91 -4 133 -24 47 -36 39
-36 -25z"/>
<path d="M3764 4272 c-80 -69 -459 -461 -572 -594 -42 -50 -106 -123 -140
-161 -67 -74 -198 -228 -345 -406 -76 -92 -254 -325 -436 -571 -30 -41 -136
-154 -234 -252 -110 -107 -177 -181 -174 -190 4 -9 6 -10 6 0 1 6 6 12 12 12
10 0 62 46 195 175 41 40 223 247 300 340 22 28 73 97 112 155 39 58 94 128
122 155 28 28 84 91 125 141 40 50 98 117 127 149 29 31 91 106 138 166 105
134 404 462 533 586 53 50 126 111 164 136 37 25 97 74 132 110 56 57 62 67
52 86 -18 33 -42 25 -117 -37z"/>
<path d="M550 4123 c0 -5 7 -18 15 -29 15 -18 15 -18 13 5 -3 23 -28 44 -28
24z"/>
<path d="M106 4105 c4 -8 10 -15 15 -15 4 0 6 7 3 15 -4 8 -10 15 -15 15 -4 0
-6 -7 -3 -15z"/>
<path d="M0 3849 c0 -11 4 -18 10 -14 5 3 7 12 3 20 -7 21 -13 19 -13 -6z"/>
<path d="M150 3826 c0 -8 5 -18 10 -21 6 -3 10 1 10 9 0 8 -4 18 -10 21 -5 3
-10 -1 -10 -9z"/>
<path d="M625 3730 c3 -5 8 -10 11 -10 2 0 4 5 4 10 0 6 -5 10 -11 10 -5 0 -7
-4 -4 -10z"/>
<path d="M210 3690 c0 -41 31 -87 50 -75 22 13 5 88 -24 107 -21 14 -26 8 -26
-32z"/>
<path d="M1056 3708 c3 -5 10 -6 15 -3 13 9 11 12 -6 12 -8 0 -12 -4 -9 -9z"/>
<path d="M1101 3684 c0 -11 3 -14 6 -6 3 7 2 16 -1 19 -3 4 -6 -2 -5 -13z"/>
<path d="M0 3651 c0 -12 5 -21 10 -21 6 0 10 6 10 14 0 8 -4 18 -10 21 -5 3
-10 -3 -10 -14z"/>
<path d="M1071 3594 c0 -11 3 -14 6 -6 3 7 2 16 -1 19 -3 4 -6 -2 -5 -13z"/>
<path d="M72 3579 c2 -7 10 -15 17 -17 8 -3 12 1 9 9 -2 7 -10 15 -17 17 -8 3
-12 -1 -9 -9z"/>
<path d="M940 3570 c0 -5 5 -10 11 -10 5 0 7 5 4 10 -3 6 -8 10 -11 10 -2 0
-4 -4 -4 -10z"/>
<path d="M965 3529 c-4 -6 -5 -12 -2 -15 2 -3 7 2 10 11 7 17 1 20 -8 4z"/>
<path d="M750 3501 c0 -20 17 -37 27 -28 7 8 -7 47 -18 47 -5 0 -9 -9 -9 -19z"/>
<path d="M461 3413 c-28 -53 -1 -163 39 -163 50 0 47 97 -4 157 -23 27 -23 27
-35 6z"/>
<path d="M230 3291 c0 -12 5 -21 10 -21 6 0 10 6 10 14 0 8 -4 18 -10 21 -5 3
-10 -3 -10 -14z"/>
<path d="M91 3264 c0 -11 3 -14 6 -6 3 7 2 16 -1 19 -3 4 -6 -2 -5 -13z"/>
<path d="M224 3175 c-7 -18 3 -35 22 -35 15 0 17 9 8 34 -8 20 -23 21 -30 1z"/>
<path d="M730 3166 c0 -15 18 -31 26 -23 7 7 -7 37 -17 37 -5 0 -9 -6 -9 -14z"/>
<path d="M122 3123 c2 -27 8 -39 21 -41 20 -4 23 27 7 59 -17 31 -31 22 -28
-18z"/>
<path d="M460 3123 c1 -18 18 -35 24 -24 4 6 4 16 1 21 -7 12 -25 13 -25 3z"/>
<path d="M555 3099 c-10 -15 3 -75 19 -88 17 -15 50 14 42 36 -3 8 -6 18 -6
23 0 11 -29 40 -40 40 -5 0 -12 -5 -15 -11z"/>
<path d="M891 3074 c0 -11 3 -14 6 -6 3 7 2 16 -1 19 -3 4 -6 -2 -5 -13z"/>
<path d="M230 3000 c0 -20 25 -38 36 -27 8 7 -15 47 -26 47 -6 0 -10 -9 -10
-20z"/>
<path d="M4070 2968 c-36 -16 -102 -45 -148 -64 -71 -28 -100 -49 -204 -141
-140 -124 -206 -199 -370 -418 -113 -152 -204 -272 -365 -480 l-71 -93 25 -11
c15 -7 23 -18 21 -29 -2 -9 6 -25 18 -34 12 -10 24 -31 28 -48 3 -20 10 -29
17 -24 6 4 0 -14 -15 -38 -31 -53 -27 -74 18 -92 28 -11 32 -10 47 8 14 17 21
18 41 9 19 -9 28 -7 47 8 30 24 69 24 101 0 18 -15 25 -30 27 -63 4 -66 5 -68
28 -68 33 0 47 -23 40 -63 -6 -30 -4 -36 14 -42 12 -3 21 -11 21 -16 0 -5 14
-9 30 -9 17 0 30 5 30 10 0 17 36 11 64 -11 l26 -20 0 21 c0 21 -43 73 -68 81
-26 9 -1 39 32 39 l31 1 -37 22 c-26 15 -36 27 -32 37 3 8 7 21 8 29 4 22 47
48 72 43 13 -2 24 0 24 5 0 13 -33 43 -47 43 -6 0 -16 7 -23 15 -20 24 17 64
60 65 30 0 38 5 55 37 11 20 35 46 53 56 30 18 37 18 75 6 53 -18 77 -42 77
-77 0 -40 9 -44 42 -21 27 20 30 20 47 5 24 -22 28 -20 36 14 9 43 45 64 99
58 39 -5 43 -3 39 13 -3 11 0 19 6 19 7 0 9 -5 5 -12 -4 -7 -3 -8 4 -4 6 4 21
2 32 -4 18 -10 20 -8 20 24 0 31 -3 34 -35 40 -29 6 -35 11 -35 32 0 34 17 64
37 64 12 0 13 3 4 14 -6 7 -9 20 -6 28 4 9 -4 22 -19 32 -31 20 -59 71 -52 94
8 24 63 55 87 49 18 -5 19 2 19 194 l0 199 -42 -26 c-114 -72 -185 -138 -317
-296 -40 -49 -75 -88 -78 -88 -3 0 -1 6 4 13 165 211 301 359 377 407 l55 35
1 168 0 167 -36 -15 c-50 -21 -192 -107 -261 -159 -82 -62 -247 -236 -318
-335 -33 -46 -80 -109 -105 -141 -45 -59 -110 -152 -196 -285 -26 -38 -51 -74
-56 -80 -11 -10 1 11 79 150 22 39 61 109 87 158 48 89 120 186 231 312 34 39
72 83 86 99 13 16 73 73 132 127 110 100 195 157 300 199 53 22 57 26 57 57 0
18 -3 33 -7 32 -5 0 -37 -14 -73 -31z m-911 -1140 c-20 -37 -101 -158 -107
-158 -2 0 4 12 14 28 10 15 35 55 57 90 38 60 60 84 36 40z"/>
<path d="M342 2948 c-18 -18 -15 -53 7 -72 17 -16 20 -16 35 0 17 16 14 46 -6
72 -13 15 -21 15 -36 0z"/>
<path d="M60 2931 c0 -5 5 -13 10 -16 6 -3 10 -2 10 4 0 5 -4 13 -10 16 -5 3
-10 2 -10 -4z"/>
<path d="M570 2881 c0 -12 5 -21 10 -21 6 0 10 6 10 14 0 8 -4 18 -10 21 -5 3
-10 -3 -10 -14z"/>
<path d="M807 2883 c-4 -3 -7 -29 -7 -58 0 -57 18 -92 44 -82 22 9 21 80 -1
118 -18 30 -25 34 -36 22z"/>
<path d="M54 2806 c-7 -28 12 -69 29 -63 17 5 20 29 8 60 -13 33 -29 35 -37 3z"/>
<path d="M154 2806 c-13 -51 27 -96 53 -60 11 15 9 53 -4 77 -10 17 -43 6 -49
-17z"/>
<path d="M722 2758 c2 -6 10 -14 16 -16 7 -2 10 2 6 12 -7 18 -28 22 -22 4z"/>
<path d="M410 2710 c0 -5 5 -10 10 -10 6 0 10 5 10 10 0 6 -4 10 -10 10 -5 0
-10 -4 -10 -10z"/>
<path d="M590 2701 c-16 -30 -12 -66 10 -86 39 -35 74 17 50 75 -14 35 -44 40
-60 11z"/>
<path d="M251 2614 c0 -11 3 -14 6 -6 3 7 2 16 -1 19 -3 4 -6 -2 -5 -13z"/>
<path d="M376 2615 c4 -8 8 -15 10 -15 2 0 4 7 4 15 0 8 -4 15 -10 15 -5 0 -7
-7 -4 -15z"/>
<path d="M620 2520 c0 -5 5 -10 11 -10 5 0 7 5 4 10 -3 6 -8 10 -11 10 -2 0
-4 -4 -4 -10z"/>
<path d="M590 2386 c0 -9 5 -16 10 -16 6 0 10 4 10 9 0 6 -4 13 -10 16 -5 3
-10 -1 -10 -9z"/>
<path d="M416 2365 c-8 -21 3 -45 20 -45 15 0 18 18 8 44 -8 20 -20 20 -28 1z"/>
<path d="M531 2291 c-6 -11 -11 -32 -11 -46 0 -22 4 -26 23 -23 18 2 22 9 22
42 0 44 -18 58 -34 27z"/>
<path d="M2393 1998 c-15 -18 -35 -58 -29 -58 2 0 13 16 25 35 20 35 22 46 4
23z"/>
<path d="M2887 1813 c-10 -9 -9 -33 1 -33 4 0 8 9 9 20 2 21 0 24 -10 13z"/>
<path d="M1970 1380 c0 -32 21 -49 58 -48 35 1 72 21 72 40 0 14 -39 9 -48 -8
-8 -14 -13 -13 -45 6 -22 13 -37 17 -37 10z"/>
<path d="M2870 940 c0 -5 5 -10 10 -10 6 0 10 5 10 10 0 6 -4 10 -10 10 -5 0
-10 -4 -10 -10z"/>
<path d="M1754 785 c-3 -8 -3 -19 1 -25 11 -18 25 -11 25 15 0 27 -17 34 -26
10z"/>
<path d="M1950 651 c0 -6 5 -13 10 -16 6 -3 10 1 10 9 0 9 -4 16 -10 16 -5 0
-10 -4 -10 -9z"/>
<path d="M4100 583 c0 -1 9 -18 20 -38 20 -35 28 -63 11 -36 -9 15 -41 8 -41
-8 0 -5 10 -11 22 -13 30 -4 35 -34 8 -48 -27 -15 -40 -5 -40 31 0 32 -24 49
-43 30 -20 -20 -46 -13 -53 14 -3 14 -16 30 -27 37 -18 9 -24 6 -48 -23 -15
-19 -24 -38 -21 -44 12 -18 8 -30 -18 -52 -33 -29 -19 -41 18 -14 24 17 32 18
46 8 15 -11 15 -13 -4 -29 -11 -10 -20 -15 -20 -12 0 4 -7 1 -15 -6 -11 -9
-12 -17 -5 -31 9 -15 6 -20 -15 -25 -14 -3 -31 -14 -38 -23 -6 -10 -20 -20
-30 -24 -9 -4 -20 -15 -23 -24 -3 -10 -10 -26 -15 -36 -9 -16 -7 -18 13 -11
60 19 61 3 2 -43 -38 -28 -51 -33 -65 -25 -14 9 -18 6 -22 -18 -4 -16 -20 -38
-37 -50 -20 -14 -30 -17 -28 -8 4 17 -64 23 -93 7 -20 -10 -21 -9 -16 10 3 14
1 21 -5 19 -6 -2 -12 -12 -14 -22 -1 -10 -4 -19 -6 -20 -2 -1 -15 -10 -30 -19
-16 -10 -28 -22 -28 -27 0 -6 131 -10 355 -10 l355 0 0 293 0 292 -25 0 c-14
0 -25 -1 -25 -2z m-90 -157 c0 -11 -19 -15 -25 -6 -3 5 1 10 9 10 9 0 16 -2
16 -4z m-156 -172 c10 -27 7 -36 -9 -20 -8 8 -15 19 -15 25 0 17 17 13 24 -5z"/>
<path d="M2734 427 c3 -14 2 -16 -9 -7 -11 9 -22 6 -50 -15 -36 -28 -46 -55
-21 -55 8 0 22 -3 32 -7 13 -5 16 -3 11 10 -7 20 -6 20 27 7 21 -8 24 -7 19 8
-4 12 -3 14 4 7 6 -5 14 -21 18 -35 5 -20 4 -22 -5 -10 -10 13 -11 13 -7 0 2
-8 10 -15 18 -15 8 0 13 -8 13 -16 -1 -9 6 -16 15 -15 8 0 16 -3 16 -9 1 -16
26 -59 47 -78 10 -10 15 -24 12 -30 -4 -7 -4 -9 1 -5 4 4 22 -2 39 -14 17 -12
25 -15 19 -7 -7 9 -10 18 -7 22 3 3 -3 8 -14 11 -21 7 -89 86 -74 86 6 0 23
-15 40 -34 17 -19 34 -32 38 -28 4 4 4 2 0 -5 -3 -7 2 -14 14 -18 12 -4 17
-11 14 -18 -4 -7 -4 -9 1 -5 4 4 15 2 23 -4 17 -15 44 -20 36 -7 -3 5 -8 7
-12 5 -12 -7 -41 40 -32 54 6 9 11 7 20 -10 10 -18 14 -20 22 -9 8 11 9 10 5
-3 -4 -10 9 -34 34 -62 24 -27 37 -51 33 -57 -4 -8 -3 -9 4 -5 7 4 12 3 12 -3
0 -5 -3 -11 -7 -14 -5 -2 -2 -2 5 0 9 2 11 -3 8 -15 -5 -13 1 -17 24 -19 17
-1 30 3 30 9 0 6 -3 8 -7 5 -7 -8 -33 11 -33 25 0 5 5 6 10 3 15 -9 12 1 -7
33 -32 51 -97 122 -112 122 -8 0 -12 3 -8 6 7 7 -21 44 -122 167 -62 74 -66
78 -103 75 -33 -2 -38 -5 -34 -21z m59 -22 c-3 -9 -8 -14 -10 -11 -3 3 -2 9 2
15 9 16 15 13 8 -4z m75 -100 c-3 -3 -9 2 -12 12 -6 14 -5 15 5 6 7 -7 10 -15
7 -18z m-23 5 c3 -5 2 -10 -4 -10 -5 0 -13 5 -16 10 -3 6 -2 10 4 10 5 0 13
-4 16 -10z m59 -36 c3 -8 2 -12 -4 -9 -6 3 -10 10 -10 16 0 14 7 11 14 -7z
m206 -214 c0 -5 -2 -10 -4 -10 -3 0 -8 5 -11 10 -3 6 -1 10 4 10 6 0 11 -4 11
-10z"/>
<path d="M3822 391 c2 -7 7 -12 11 -12 12 1 9 15 -3 20 -7 2 -11 -2 -8 -8z"/>
<path d="M1029 373 c-13 -16 -12 -17 4 -4 16 13 21 21 13 21 -2 0 -10 -8 -17
-17z"/>
<path d="M3761 367 c16 -12 79 -45 79 -42 0 7 -63 45 -74 45 -5 0 -7 -1 -5 -3z"/>
<path d="M2582 330 c-12 -11 -31 -20 -42 -20 -23 0 -82 -58 -74 -72 10 -15 23
-8 18 10 -4 13 -1 11 14 -6 14 -15 22 -18 25 -10 3 8 6 6 6 -4 1 -19 42 -34
67 -24 13 5 15 15 11 42 -5 30 -4 34 8 24 11 -9 14 -7 12 15 -1 14 -9 30 -17
35 -13 8 -12 10 3 10 9 0 17 -4 17 -10 0 -5 6 -7 13 -4 9 3 22 -13 37 -48 13
-29 22 -57 21 -61 0 -4 14 -24 33 -45 19 -20 34 -40 33 -43 -1 -4 7 -16 17
-28 11 -12 15 -21 10 -21 -9 0 -38 39 -39 52 0 13 -15 21 -15 8 0 -10 -3 -10
-15 0 -13 11 -14 6 -9 -34 6 -38 4 -46 -9 -46 -9 0 -19 5 -23 12 -4 7 -3 8 4
4 8 -5 11 10 9 49 -2 30 1 55 5 55 4 0 8 -4 8 -10 0 -5 5 -10 11 -10 8 0 8 4
0 14 -6 7 -23 14 -37 13 -23 0 -25 -3 -22 -28 l4 -28 -30 16 c-17 9 -25 18
-18 20 19 7 14 25 -5 21 -10 -1 -25 2 -33 7 -8 5 -3 -7 12 -27 15 -19 24 -39
20 -43 -4 -5 -2 -5 4 -2 6 4 19 -2 29 -13 10 -11 20 -18 24 -16 3 2 6 -6 6
-19 0 -18 -3 -21 -12 -13 -10 8 -13 4 -13 -16 0 -14 -3 -26 -6 -26 -3 0 -24
16 -47 35 -35 30 -42 33 -50 19 -5 -8 -6 -18 -3 -21 3 -3 1 -14 -5 -24 -9 -18
-1 -19 208 -19 l218 0 -39 26 c-27 19 -35 29 -27 37 7 7 16 6 28 -5 10 -8 25
-18 33 -22 8 -4 2 4 -14 18 -16 13 -31 33 -32 43 -2 10 -14 28 -28 40 -14 12
-33 34 -43 50 -10 15 -24 29 -31 31 -8 1 -3 -11 11 -30 13 -18 27 -41 30 -51
4 -10 11 -16 16 -12 5 3 13 0 17 -7 4 -7 4 -10 -1 -6 -4 4 -13 1 -20 -8 -10
-14 -18 -8 -63 41 -29 31 -52 61 -52 67 0 6 -11 24 -25 40 -14 16 -23 33 -20
38 7 11 -45 51 -56 44 -5 -3 -9 0 -9 5 0 18 -35 12 -58 -9z m113 -30 c3 -6 -1
-7 -9 -4 -18 7 -21 14 -7 14 6 0 13 -4 16 -10z m121 -195 c9 -37 0 -40 -13 -5
-6 17 -7 30 -2 30 5 0 11 -11 15 -25z m75 -38 c-13 -13 -31 0 -24 19 4 11 8
12 20 3 9 -8 10 -16 4 -22z"/>
<path d="M1940 315 c-11 -13 -10 -14 4 -9 9 3 16 10 16 15 0 13 -6 11 -20 -6z"/>
<path d="M864 296 c-3 -8 -2 -22 3 -31 8 -13 10 -10 10 14 0 34 -5 39 -13 17z"/>
<path d="M616 284 c-9 -24 -8 -26 21 -22 37 4 45 38 10 38 -14 0 -28 -7 -31
-16z"/>
<path d="M3607 278 c-17 -6 -33 -23 -42 -45 -19 -45 -19 -43 10 -43 14 0 28
-7 31 -15 4 -9 15 -13 27 -11 12 3 30 5 39 5 25 1 32 42 14 85 -16 38 -29 42
-79 24z"/>
<path d="M904 272 c3 -5 1 -12 -6 -14 -8 -3 -9 -6 -1 -11 6 -4 13 0 17 8 3 8
0 17 -6 21 -6 4 -8 3 -4 -4z"/>
<path d="M1066 193 c-6 -14 -5 -15 5 -6 7 7 10 15 7 18 -3 3 -9 -2 -12 -12z"/>
<path d="M1796 195 c-3 -8 -1 -15 4 -15 6 0 10 7 10 15 0 8 -2 15 -4 15 -2 0
-6 -7 -10 -15z"/>
<path d="M2097 196 c-3 -8 -2 -18 3 -21 13 -8 20 9 11 24 -6 10 -10 9 -14 -3z"/>
<path d="M520 193 c0 -5 4 -15 10 -23 11 -18 25 -7 17 15 -6 15 -27 21 -27 8z"/>
<path d="M2343 177 c-3 -6 -1 -7 5 -3 16 10 15 0 -4 -29 -8 -13 -18 -39 -20
-57 -2 -18 -6 -46 -9 -61 -3 -17 -1 -26 5 -22 6 3 10 15 10 26 0 22 24 52 34
42 3 -4 6 0 6 7 0 8 10 23 23 35 13 11 16 16 7 10 -13 -9 -13 -8 -1 7 7 10 11
24 8 32 -7 17 -55 27 -64 13z"/>
<path d="M2430 165 c-9 -11 -10 -19 -3 -26 13 -13 35 12 24 29 -6 10 -11 9
-21 -3z"/>
<path d="M3180 155 c0 -8 5 -15 10 -15 6 0 10 -7 10 -15 0 -17 16 -20 25 -4 4
6 -2 19 -14 30 -24 23 -31 24 -31 4z"/>
<path d="M2580 142 c6 -13 14 -21 18 -18 3 4 -2 14 -12 24 -18 16 -18 16 -6
-6z"/>
<path d="M2450 120 c0 -5 5 -10 11 -10 5 0 7 5 4 10 -3 6 -8 10 -11 10 -2 0
-4 -4 -4 -10z"/>
<path d="M3005 122 c-5 -4 -11 -13 -13 -21 -2 -11 0 -12 11 -3 11 10 20 7 43
-10 l29 -22 -29 32 c-17 18 -30 32 -30 32 -1 0 -5 -4 -11 -8z"/>
<path d="M2268 103 c-33 -21 -61 -73 -38 -73 6 0 11 10 11 23 1 20 2 20 6 2 8
-31 19 -37 34 -19 12 16 12 17 -1 12 -11 -4 -16 1 -18 17 -1 13 5 26 13 29 9
3 15 -1 15 -10 0 -9 -5 -12 -12 -8 -7 4 -8 3 -4 -4 11 -18 31 -4 32 23 2 29
-2 30 -38 8z"/>
<path d="M2387 93 c-4 -3 -7 -20 -6 -37 l1 -31 8 35 c9 36 8 45 -3 33z"/>
<path d="M2431 91 c-9 -6 -10 -11 -2 -15 6 -4 15 -5 20 -1 6 3 14 -2 19 -11 8
-15 10 -15 15 0 4 10 3 15 -3 11 -6 -3 -10 1 -10 9 0 18 -17 21 -39 7z"/>
<path d="M2530 80 c0 -11 2 -20 4 -20 2 0 6 9 9 20 3 11 1 20 -4 20 -5 0 -9
-9 -9 -20z"/>
<path d="M2612 88 c-17 -17 -15 -26 9 -39 13 -7 19 -7 15 -1 -3 6 -2 13 3 17
11 6 4 35 -8 35 -4 0 -12 -5 -19 -12z m18 -18 c0 -5 -4 -10 -10 -10 -5 0 -10
5 -10 10 0 6 5 10 10 10 6 0 10 -4 10 -10z"/>
<path d="M3230 72 c0 -4 9 -13 21 -20 19 -12 19 -11 9 8 -10 19 -30 28 -30 12z"/>
<path d="M2403 51 c1 -11 7 -23 14 -25 17 -7 16 4 -2 28 -13 18 -14 18 -12 -3z"/>
<path d="M2511 65 c1 -19 18 -51 18 -35 0 8 -4 22 -9 30 -5 8 -9 11 -9 5z"/>
<path d="M2357 53 c-4 -3 -7 -13 -7 -22 1 -13 3 -13 11 2 11 19 8 33 -4 20z"/>
<path d="M3015 28 c11 -15 26 -28 33 -28 19 0 15 7 -20 32 l-32 22 19 -26z"/>
<path d="M3220 15 c0 -8 9 -15 20 -15 13 0 18 5 14 15 -4 8 -12 15 -20 15 -8
0 -14 -7 -14 -15z"/>
</g>
</svg>
