<?xml version="1.0" standalone="no"?>
<!DOCTYPE svg PUBLIC "-//W3C//DTD SVG 20010904//EN"
 "http://www.w3.org/TR/2001/REC-SVG-20010904/DTD/svg10.dtd">
<svg version="1.0" xmlns="http://www.w3.org/2000/svg"
 width="415.000000pt" height="739.000000pt" viewBox="0 0 415.000000 739.000000"
 preserveAspectRatio="xMidYMid meet">
<metadata>
Created by potrace 1.16, written by Peter Selinger 2001-2019
</metadata>
<g transform="translate(0.000000,739.000000) scale(0.100000,-0.100000)"
fill="#000000" stroke="none">
<path d="M0 3695 l0 -3695 2075 0 2075 0 0 3695 0 3695 -2075 0 -2075 0 0
-3695z m2292 1076 c13 -11 39 -50 57 -88 18 -37 44 -82 57 -100 42 -56 46 -77
29 -180 -16 -96 -11 -123 19 -123 6 0 28 -14 48 -30 25 -21 56 -34 95 -41 85
-16 96 -29 90 -112 -2 -37 -7 -70 -10 -74 -4 -3 -15 5 -26 18 l-20 24 -1 -63
c0 -77 -21 -132 -49 -132 -27 0 -26 -16 1 -71 18 -35 23 -63 24 -138 l2 -93
66 -60 c74 -67 139 -146 130 -159 -3 -5 -18 -9 -35 -9 -41 0 -36 -14 11 -33
36 -14 40 -19 40 -50 0 -19 7 -40 15 -47 8 -7 15 -18 15 -25 0 -24 -42 -64
-73 -70 l-33 -6 1 -98 0 -98 35 -19 c57 -31 80 -89 79 -199 l-2 -90 -8 75
c-12 107 -32 144 -101 191 l-57 39 20 35 c18 31 20 42 12 105 -5 38 -7 73 -4
78 3 4 25 14 48 20 54 16 59 26 33 59 -12 15 -18 34 -15 44 5 14 -7 25 -54 48
-33 17 -62 35 -66 40 -8 15 26 29 58 24 47 -7 32 24 -54 110 -99 99 -104 108
-88 154 15 48 5 100 -36 188 -19 40 -35 76 -35 79 0 3 15 6 34 6 18 0 39 6 45
14 17 20 25 126 13 169 -12 42 -6 46 31 17 l25 -20 5 27 c3 15 3 32 0 39 -7
18 -66 36 -96 29 -19 -5 -34 2 -68 32 -25 21 -58 48 -73 59 l-29 21 11 84 c18
127 16 152 -14 180 -14 13 -43 54 -64 90 -22 36 -53 81 -70 98 -16 18 -30 37
-30 42 0 16 36 10 62 -10z m-852 -94 c0 -2 -13 -16 -30 -32 -33 -32 -42 -21
-10 13 18 19 40 29 40 19z m425 -65 c28 -13 67 -43 89 -66 21 -22 54 -57 72
-78 55 -58 76 -118 83 -233 l6 -100 21 44 21 45 27 -46 c14 -25 33 -80 41
-123 24 -122 18 -230 -10 -185 -13 20 -25 9 -25 -23 0 -17 -9 -64 -20 -102
-25 -88 -25 -121 1 -187 24 -60 21 -150 -5 -177 -14 -13 -19 -13 -51 2 -19 9
-41 14 -50 11 -17 -7 -20 -30 -5 -39 6 -4 8 -10 5 -15 -3 -5 -59 16 -125 46
-66 30 -123 54 -127 54 -14 -1 39 -40 53 -40 8 0 14 -9 14 -19 0 -11 5 -23 11
-26 5 -4 23 -28 39 -53 16 -26 30 -41 30 -33 0 10 5 10 25 -3 20 -13 37 -15
70 -10 44 6 45 6 45 -22 0 -50 -12 -104 -23 -104 -5 0 -15 8 -22 17 -11 15
-15 13 -32 -23 -11 -21 -23 -55 -27 -74 -3 -19 -22 -57 -41 -84 -19 -27 -35
-61 -35 -75 0 -48 -19 -7 -22 49 l-3 55 -18 -55 c-51 -151 -141 -247 -367
-390 -155 -97 -255 -174 -296 -228 -19 -25 -34 -40 -34 -34 0 17 84 124 137
172 93 88 201 168 356 264 40 25 26 31 -27 13 -26 -9 -46 -12 -46 -7 0 4 6 11
13 14 17 9 -174 -1 -198 -10 -14 -5 -17 -4 -10 4 6 6 35 17 65 25 l55 14 -40
7 c-79 13 -300 67 -315 76 -24 15 -1 13 140 -15 69 -14 126 -25 128 -25 1 0
-16 23 -38 51 -22 28 -40 54 -40 59 0 4 26 17 58 29 32 11 69 32 82 46 l23 24
29 -24 c36 -30 34 -30 102 -4 31 11 72 19 93 17 38 -3 38 -3 37 -48 0 -31 -9
-58 -28 -88 -15 -24 -25 -46 -22 -49 7 -8 106 88 120 117 7 14 16 39 19 57 7
37 -1 42 -88 50 -47 4 -72 0 -113 -16 -29 -12 -61 -21 -72 -21 -37 0 -53 44
-57 158 -5 126 3 145 67 179 59 32 64 37 51 62 -15 28 -38 27 -37 -1 1 -19 -7
-24 -54 -35 -59 -14 -102 -10 -138 14 l-23 14 24 28 c19 23 25 45 30 107 4 55
12 85 26 104 18 25 18 28 3 44 -15 15 -15 18 -2 26 12 8 10 14 -12 37 -15 15
-31 40 -37 56 -6 15 -16 27 -24 27 -7 0 -30 18 -51 39 -34 34 -38 44 -32 72 5
27 4 30 -9 19 -8 -7 -15 -19 -15 -26 0 -8 -7 -14 -15 -14 -21 0 -19 37 6 76
31 51 37 120 24 267 -7 72 -10 139 -7 147 3 8 16 30 29 48 20 26 21 32 8 32
-12 0 -9 10 15 45 37 54 74 75 133 75 40 0 45 -3 66 -40 22 -39 44 -47 35 -12
-13 46 68 85 156 75 30 -3 78 -17 105 -31z m-641 -686 c14 -19 58 -58 97 -87
59 -45 99 -90 99 -114 0 -3 -10 -5 -23 -5 -32 0 -99 52 -140 108 -68 94 -99
184 -33 98z m1284 -112 c36 -24 65 -98 58 -146 -12 -71 -36 -103 -147 -187
-17 -14 -54 -53 -81 -88 l-49 -62 -21 19 c-18 17 -20 23 -10 45 10 21 9 25 -5
25 -14 0 -15 11 -10 87 5 63 11 89 22 95 11 7 15 26 15 70 0 84 38 143 105
161 30 8 97 -2 123 -19z m-1373 -20 c-4 -26 -2 -39 7 -45 23 -15 36 -10 31 11
-8 29 23 37 63 15 40 -22 43 -33 9 -40 -14 -3 -35 -7 -48 -10 -36 -7 -79 9
-100 37 -25 34 -15 68 20 68 24 0 25 -2 18 -36z m327 -445 c32 -17 48 -71 47
-156 0 -102 -10 -153 -31 -167 -13 -8 -39 -5 -105 12 -96 25 -153 28 -185 11
-26 -14 -30 -8 -17 29 14 39 34 46 106 33 31 -6 61 -11 66 -11 17 0 -13 28
-43 40 -24 10 -30 18 -30 44 0 70 85 176 142 176 16 0 38 -5 50 -11z m900 -80
c37 -66 6 -157 -59 -174 -36 -9 -61 3 -78 35 -17 32 -21 140 -5 140 6 0 10
-11 10 -25 0 -14 7 -41 14 -60 12 -29 20 -35 44 -35 41 0 56 21 49 73 -3 23
-9 53 -13 66 -11 36 15 22 38 -20z m281 -251 c17 -32 17 -34 -2 -72 -13 -24
-17 -45 -12 -53 4 -8 39 -25 76 -38 81 -27 100 -47 115 -120 13 -62 9 -124 -4
-70 -4 17 -15 50 -24 75 -16 40 -22 46 -57 53 -140 30 -155 42 -155 127 0 53
23 130 40 130 3 0 13 -15 23 -32z m-459 -144 c31 -119 19 -288 -29 -419 -15
-41 35 29 67 95 35 73 33 74 56 -40 l8 -45 17 35 17 35 -4 -57 c-6 -72 -58
-185 -116 -251 -23 -26 -46 -47 -51 -47 -5 0 -40 62 -78 138 -39 75 -70 127
-70 116 -1 -31 43 -178 73 -246 l25 -57 -20 -15 c-14 -9 -19 -21 -15 -33 4
-13 -2 -27 -18 -42 l-24 -22 -55 31 c-60 33 -177 60 -260 59 l-52 0 81 -24
c95 -28 167 -56 161 -62 -6 -5 -669 -4 -675 1 -6 7 45 88 91 144 24 29 68 71
98 93 102 76 154 138 88 104 -17 -9 -35 -15 -42 -12 -17 5 79 103 125 126 42
21 67 19 49 -3 -11 -13 60 -2 198 29 35 8 66 13 69 11 13 -13 -82 -159 -153
-235 -76 -80 -77 -83 -31 -51 78 56 153 147 199 240 29 60 61 106 109 157 87
91 121 161 126 262 5 82 12 79 36 -15z m286 63 c0 -7 9 -30 20 -52 25 -49 25
-54 1 -48 -10 2 -24 16 -30 29 -14 31 -15 97 -1 89 6 -3 10 -12 10 -18z m258
-231 c13 -39 28 -95 33 -125 17 -97 16 -94 65 -87 24 3 54 1 66 -5 13 -6 46
-45 73 -87 45 -67 58 -81 112 -107 83 -41 100 -58 108 -112 9 -62 14 -73 35
-73 32 0 71 -40 68 -69 l-3 -26 -415 -2 c-358 -2 -412 -1 -397 12 11 7 58 24
105 37 104 27 78 36 -41 14 -113 -21 -107 -23 -94 27 12 50 15 300 4 340 -5
18 -4 27 4 27 15 0 118 -65 242 -153 54 -38 138 -87 185 -109 48 -22 97 -49
110 -61 28 -26 29 -11 1 19 l-21 22 30 16 c17 9 47 16 66 16 40 0 57 -19 77
-87 12 -43 41 -83 60 -83 6 0 -1 14 -15 31 -14 17 -26 38 -26 47 -1 30 -37 98
-66 126 -16 14 -43 31 -61 37 -24 8 -48 32 -88 89 l-56 79 -67 3 -67 3 -7 70
c-9 95 -25 152 -55 203 -22 39 -23 43 -6 40 12 -2 25 -24 41 -72z m-300 -365
c11 -87 0 -257 -18 -306 -7 -18 -17 -25 -36 -25 -30 0 -30 8 1 110 10 33 19
108 22 188 3 73 9 130 13 125 5 -4 13 -46 18 -92z m-232 -417 c21 -10 53 -42
80 -80 39 -54 50 -64 76 -64 23 0 29 -4 26 -17 -2 -11 -14 -19 -30 -21 -15 -2
-29 -11 -32 -20 -9 -31 -11 -247 -2 -265 7 -14 5 -16 -10 -11 -11 4 -27 14
-38 23 -17 15 -18 27 -11 144 l7 127 -36 0 c-24 0 -38 -6 -44 -17 -15 -28 -24
-221 -12 -244 9 -15 7 -19 -5 -19 -17 0 -55 35 -55 50 0 18 -22 11 -93 -30
-73 -42 -97 -45 -97 -11 0 13 16 29 50 48 27 15 50 31 50 35 0 4 -9 12 -20 18
-15 8 -34 7 -75 -6 -52 -17 -55 -17 -75 1 -34 30 -25 45 26 45 l45 0 -25 33
c-59 77 -10 167 89 167 32 0 35 2 35 31 0 22 9 40 30 59 44 41 93 49 146 24z
m506 -135 c43 -11 68 -49 68 -100 0 -50 -61 -104 -128 -114 -28 -4 -52 -9 -52
-12 0 -2 14 -21 30 -42 34 -42 96 -81 129 -81 11 0 21 -4 21 -10 0 -17 -69
-11 -115 11 -50 24 -132 108 -141 146 -5 17 -1 28 12 37 16 12 22 11 43 -5 30
-24 48 -24 89 1 35 22 68 79 59 104 -3 8 -17 22 -31 31 -35 23 -100 4 -141
-41 l-32 -34 -11 25 c-7 14 -12 30 -12 35 0 16 51 44 94 51 62 10 78 10 118
-2z m-985 -14 c21 -7 3 -35 -23 -35 -13 0 -27 -8 -32 -17 -14 -28 -23 -232
-12 -254 8 -15 7 -19 -4 -19 -17 0 -56 46 -56 66 0 17 -8 17 -40 -1 -64 -36
-140 -6 -161 64 -16 54 0 81 49 81 55 0 79 25 60 63 -7 14 -22 17 -83 17 -41
0 -75 -1 -76 -2 -8 -32 -14 -248 -7 -260 15 -29 -29 -22 -48 7 -12 19 -15 43
-13 102 l4 78 -27 3 c-20 2 -28 -1 -28 -12 0 -8 4 -17 9 -20 15 -10 21 -64 10
-95 -14 -39 -53 -63 -101 -63 -69 1 -121 55 -134 138 -7 46 5 78 37 95 29 15
31 9 13 -39 -30 -74 1 -142 64 -144 48 -1 82 26 82 66 0 37 -13 52 -49 58 -14
1 -26 8 -28 13 -7 23 19 38 86 48 39 6 71 15 71 19 0 4 -65 8 -145 8 -138 0
-145 1 -145 20 0 19 8 20 168 22 208 4 543 0 559 -7z m1466 5 c98 0 108 -2
105 -17 -2 -10 -13 -19 -26 -21 -12 -2 -26 -11 -31 -20 -14 -29 -24 -228 -11
-251 14 -27 0 -27 -34 0 -23 18 -26 28 -26 80 0 53 -2 59 -20 59 -12 0 -24 -9
-29 -22 -44 -113 -63 -138 -107 -138 -35 0 -84 47 -84 81 0 37 49 93 92 105
31 9 33 13 33 54 l0 45 -85 0 -85 0 -9 -123 c-7 -111 -7 -125 9 -142 17 -19
17 -20 1 -20 -9 0 -29 12 -43 26 -26 26 -26 26 -19 144 6 112 6 118 -14 123
-11 3 -20 12 -20 20 0 19 39 23 190 20 58 -1 154 -2 213 -3z"/>
<path d="M1517 4500 c-22 -74 -19 -540 3 -540 14 0 24 121 22 270 -3 181 -14
306 -25 270z"/>
<path d="M1695 4308 c-20 -121 -25 -176 -25 -279 0 -141 -7 -180 -32 -186 -11
-3 -18 -14 -18 -29 0 -13 -5 -34 -11 -48 -10 -22 -9 -28 10 -43 l22 -18 -25
-24 c-14 -14 -26 -33 -26 -44 0 -19 1 -19 18 -4 30 27 59 22 187 -38 35 -17
115 -45 124 -45 3 1 -12 11 -35 23 -81 44 -124 92 -60 67 15 -5 35 -10 44 -9
9 0 -1 7 -22 15 -22 8 -42 17 -45 20 -16 17 221 -18 282 -42 17 -6 18 -5 3 31
-22 52 -31 137 -18 174 7 19 7 33 1 36 -14 9 -151 -12 -201 -31 -57 -21 -106
-30 -93 -16 6 6 80 41 165 78 85 36 156 67 157 68 1 0 -50 1 -112 1 l-114 0
20 22 c30 31 51 33 102 11 29 -13 56 -18 72 -14 31 8 33 21 3 23 -13 1 -33 14
-45 28 -30 35 -58 32 -128 -14 -33 -22 -63 -37 -68 -34 -9 6 -5 54 7 88 6 14
-2 10 -23 -13 -17 -18 -31 -41 -31 -52 0 -23 -20 -70 -31 -70 -20 0 -44 150
-44 273 0 70 -1 127 -2 127 -1 0 -5 -15 -8 -32z m345 -489 c0 -95 -45 -151
-113 -144 -100 11 -135 14 -174 14 -49 1 -55 14 -16 34 22 12 33 12 74 -1 38
-12 54 -13 81 -4 l33 11 -32 -5 c-17 -3 -51 0 -75 6 l-43 12 24 19 c30 24 47
24 54 -1 3 -12 14 -20 25 -20 15 0 21 9 26 34 7 39 29 61 51 52 23 -8 18 -55
-7 -77 -21 -19 -21 -19 -2 -10 34 16 47 38 40 67 -8 29 5 44 37 44 12 0 17 -8
17 -31z"/>
<path d="M1425 4180 c7 -194 38 -328 81 -344 68 -26 102 73 109 324 l4 145
-14 -120 c-19 -157 -42 -259 -65 -287 -17 -22 -19 -22 -37 -6 -27 25 -48 113
-69 298 l-13 115 4 -125z"/>
<path d="M1967 3225 c4 -16 7 -56 7 -87 1 -39 4 -52 10 -41 11 19 2 115 -13
140 -9 14 -10 12 -4 -12z"/>
<path d="M2375 3771 c-69 -45 -98 -112 -66 -153 29 -36 26 -52 -11 -82 -21
-16 -29 -29 -22 -34 6 -4 13 -15 17 -24 9 -26 53 -23 71 4 11 16 16 46 16 105
0 125 21 158 80 128 42 -22 50 -64 25 -130 -6 -15 -3 -14 11 5 13 18 19 42 19
82 0 48 -4 62 -25 83 -35 34 -78 40 -115 16z"/>
<path d="M2560 2190 c-10 -7 1 -8 35 -4 28 4 52 8 54 10 10 9 -75 3 -89 -6z"/>
<path d="M2102 1874 c-28 -20 -30 -69 -3 -84 20 -10 171 -14 171 -5 0 4 -7 19
-15 35 -32 61 -105 88 -153 54z"/>
<path d="M1946 1749 c-32 -25 -36 -77 -8 -102 26 -24 36 -22 76 17 54 50 46
106 -15 106 -14 0 -38 -9 -53 -21z"/>
<path d="M2093 1718 c8 -30 -16 -83 -48 -104 -30 -20 -19 -34 28 -34 34 0 47
29 47 106 0 43 -3 54 -16 54 -12 0 -15 -6 -11 -22z"/>
<path d="M1543 1728 c19 -52 18 -58 -12 -88 -22 -22 -39 -30 -66 -30 -40 0
-55 -21 -34 -46 17 -21 92 -13 121 12 29 26 48 76 48 124 0 38 -1 40 -31 40
-21 0 -30 -4 -26 -12z"/>
<path d="M3104 1718 c3 -13 6 -33 6 -45 0 -16 6 -23 20 -23 23 0 40 28 40 64
0 23 -4 26 -36 26 -33 0 -36 -2 -30 -22z"/>
<path d="M2989 1561 c-32 -33 -35 -43 -15 -60 21 -18 43 -3 60 40 20 49 20 49
0 49 -8 0 -29 -13 -45 -29z"/>
</g>
</svg>
