 <svg version="1.0" xmlns="http://www.w3.org/2000/svg"  width="300.000000pt" height="534.000000pt" viewBox="0 0 300.000000 534.000000"  preserveAspectRatio="xMidYMid meet">  <g transform="translate(0.000000,534.000000) scale(0.100000,-0.100000)" fill="#000000" stroke="none"> <path d="M916 5129 c-7 -22 -26 -143 -26 -168 0 -21 4 -22 40 -18 23 2 43 7 46 10 6 6 -36 168 -47 181 -5 5 -10 3 -13 -5z"/> <path d="M1755 5043 c-11 -3 -24 -9 -29 -14 -6 -5 -15 -9 -20 -9 -6 0 -5 4 2 9 9 5 4 8 -16 7 -17 -1 -28 -4 -26 -8 5 -8 -33 -22 -61 -23 -11 0 -20 -5 -20 -12 0 -7 -6 -18 -12 -24 -10 -10 -13 -10 -13 2 -1 9 -7 7 -19 -9 -13 -15 -21 -18 -24 -10 -4 8 -9 3 -13 -11 -7 -23 -8 -24 -15 -5 -6 16 -8 14 -9 -11 l-2 -30 -8 30 -8 30 -2 -30 -2 -30 -7 30 c-7 30 -8 30 -18 -15 -10 -42 -11 -43 -12 -12 -1 28 -3 31 -15 20 -8 -7 -12 -16 -10 -19 2 -4 -12 -6 -32 -5 -35 1 -36 0 -39 -37 l-2 -38 23 22 c19 17 26 19 44 9 15 -8 20 -8 16 -1 -4 6 0 11 9 11 18 0 122 50 163 78 15 10 47 27 72 37 61 24 201 22 259 -4 l42 -18 -99 -5 c-88 -4 -105 -8 -153 -36 -80 -47 -105 -72 -122 -124 -19 -57 -7 -64 17 -10 18 41 98 98 170 122 53 17 195 8 276 -19 123 -39 222 -145 205 -218 -8 -34 -115 -154 -115 -129 0 10 -5 14 -11 10 -7 -4 -10 -1 -7 7 3 8 10 15 16 15 7 1 17 2 23 3 5 0 7 6 4 11 -4 6 -11 7 -17 4 -6 -4 -8 -1 -6 7 3 8 11 13 17 11 7 -1 10 2 7 7 -3 5 -19 7 -36 6 -20 -2 -29 2 -27 9 3 6 9 10 15 9 6 -2 9 4 5 13 -5 13 -7 13 -14 2 -5 -7 -14 -13 -20 -13 -7 0 -14 -6 -16 -12 -3 -7 2 -13 11 -13 18 0 21 -15 6 -25 -13 -8 -42 20 -32 30 4 5 2 5 -5 1 -16 -9 -63 14 -63 31 0 8 -4 11 -10 8 -14 -9 -12 1 6 36 8 17 13 33 10 36 -8 8 -48 -78 -42 -93 3 -8 13 -14 22 -14 10 0 14 -5 11 -14 -4 -10 -1 -13 10 -9 8 3 19 0 24 -8 13 -22 11 -29 -8 -23 -15 5 -15 4 -3 -4 9 -7 18 -8 26 -1 9 7 17 4 26 -10 8 -12 18 -18 21 -14 10 9 47 -27 48 -46 0 -10 2 -12 6 -3 2 6 11 12 19 12 8 0 13 5 12 12 -2 7 2 12 7 13 19 1 86 58 101 86 16 32 18 96 4 134 -5 14 -22 38 -37 52 -16 14 -21 23 -13 19 28 -14 -45 45 -88 71 -41 24 -54 45 -15 25 10 -6 36 -12 58 -13 75 -6 141 -50 173 -114 18 -37 38 -110 34 -127 -1 -4 9 -15 22 -23 21 -14 30 -15 73 -3 26 8 54 13 61 12 6 -1 19 -2 27 -3 8 0 32 -17 53 -36 20 -19 46 -42 58 -52 21 -19 115 -135 152 -190 36 -51 10 -46 -50 11 -99 92 -225 138 -333 122 -34 -6 -56 -17 -86 -46 -23 -21 -38 -44 -34 -49 3 -6 1 -11 -6 -11 -10 0 -10 -3 -1 -12 7 -7 12 -20 12 -30 0 -10 7 -21 15 -24 8 -4 13 -10 10 -14 -3 -5 2 -16 11 -24 9 -9 11 -16 4 -16 -7 0 -5 -7 4 -16 9 -8 14 -19 11 -24 -3 -5 -1 -11 5 -15 6 -4 8 -11 5 -16 -4 -5 -2 -9 4 -9 6 0 8 -7 5 -15 -4 -8 -1 -15 6 -15 6 0 9 -4 6 -9 -9 -14 5 -42 16 -35 6 4 5 -3 -1 -15 -14 -25 -54 -50 -45 -27 4 11 0 13 -15 9 -11 -3 -18 -9 -15 -14 8 -14 -11 -11 -68 11 -28 11 -54 17 -57 15 -2 -3 1 -5 7 -5 26 0 10 -19 -28 -34 -45 -18 -74 -21 -50 -6 9 6 10 10 3 10 -23 0 -42 -12 -37 -25 5 -11 14 -11 57 2 39 11 74 13 149 8 84 -6 102 -5 117 9 17 16 19 14 25 -30 7 -56 0 -69 -15 -26 -9 25 -14 29 -31 23 -11 -4 -50 -2 -85 5 -53 10 -77 9 -130 -2 -36 -7 -67 -15 -69 -17 -2 -2 2 -19 8 -39 l11 -36 40 21 c71 37 169 21 231 -38 26 -26 76 -117 76 -140 0 -5 20 -18 44 -28 84 -34 162 -140 201 -272 20 -64 26 -222 12 -287 -6 -28 -5 -38 4 -38 7 0 23 -9 35 -21 l22 -21 17 74 c37 161 30 342 -19 487 -49 146 -179 307 -294 365 -29 15 -50 31 -47 36 3 5 0 12 -6 16 -8 4 -7 9 2 15 11 7 9 9 -6 9 -16 0 -17 2 -5 10 13 8 12 11 -5 24 -16 11 -17 16 -7 29 11 13 10 16 -8 22 -18 6 -19 9 -8 23 11 13 10 15 -5 9 -15 -6 -16 -4 -7 13 10 19 4 25 -22 21 -5 0 -8 4 -8 10 0 6 9 8 23 4 17 -5 19 -4 7 4 -13 10 -13 11 0 11 13 0 13 1 0 10 -8 5 -11 10 -6 10 5 0 3 6 -3 14 -7 8 -22 12 -34 9 -19 -4 -20 -3 -4 7 25 16 22 33 -4 19 -15 -8 -19 -8 -15 0 4 6 2 11 -5 11 -7 0 -5 9 7 22 16 19 16 20 1 9 -9 -8 -20 -11 -23 -8 -4 3 16 20 42 37 45 29 55 31 119 28 209 -10 411 -242 480 -553 l14 -60 -1 115 c0 85 -5 132 -20 180 -31 100 -112 250 -179 329 -33 40 -58 75 -55 79 2 4 -20 23 -50 42 l-55 34 38 12 38 12 -53 1 c-33 1 -51 5 -47 11 3 6 -2 10 -12 10 -15 0 -16 2 -3 11 11 8 6 9 -23 5 -35 -4 -37 -3 -25 11 11 14 9 14 -20 -1 -19 -10 -39 -15 -46 -13 -7 3 -23 -1 -37 -9 -28 -16 -17 -19 14 -3 21 10 21 10 2 -6 -11 -8 -26 -13 -33 -10 -8 3 -18 5 -23 5 -6 0 -3 10 5 22 9 12 16 36 15 53 -1 29 -1 29 -9 5 -6 -21 -8 -22 -15 -8 -4 9 -3 22 1 29 5 8 3 9 -6 4 -10 -6 -12 -4 -7 8 3 9 2 19 -4 23 -6 3 -8 12 -5 20 3 7 0 16 -6 20 -7 5 -8 2 -3 -6 6 -9 4 -11 -4 -6 -7 5 -10 15 -7 23 3 8 2 12 -3 8 -5 -3 -19 7 -31 22 -12 16 -26 28 -31 28 -5 0 -25 13 -45 29 -29 23 -34 24 -25 8 9 -18 8 -20 -12 -17 -12 2 -62 17 -112 34 -49 17 -114 34 -143 38 -58 6 -60 11 -10 23 25 6 14 8 -52 10 -100 3 -91 3 -113 -5 -13 -6 -16 -3 -11 9 3 9 5 15 3 15 -2 -1 -13 -3 -24 -6z m805 -1070 c30 -20 130 -120 148 -148 29 -45 81 -164 96 -220 17 -60 34 -235 24 -235 -3 0 -14 33 -24 73 -9 39 -20 79 -24 87 -37 79 -50 102 -85 148 -22 29 -64 68 -93 87 -36 22 -63 50 -85 86 -18 30 -41 66 -51 82 -14 20 -15 26 -4 22 8 -3 23 3 33 15 22 24 33 25 65 3z"/> <path d="M300 4936 c0 -27 17 -43 30 -30 10 11 -6 54 -20 54 -5 0 -10 -11 -10 -24z"/> <path d="M932 4932 c-53 -3 -63 -6 -60 -20 3 -14 13 -16 63 -14 61 4 88 15 70 30 -6 4 -38 6 -73 4z"/> <path d="M919 4883 l-67 -4 -4 -34 -4 -34 91 6 c49 3 94 9 98 13 13 11 -14 60 -32 58 -9 -1 -46 -3 -82 -5z"/> <path d="M1274 4876 c-6 -6 -9 -22 -7 -34 1 -12 -2 -22 -7 -22 -6 0 -10 9 -10 19 0 11 -4 23 -10 26 -6 4 -10 -6 -10 -21 0 -27 -1 -27 -15 -8 -13 17 -14 17 -15 2 0 -21 -16 -24 -23 -5 -3 6 -6 -3 -6 -20 -1 -31 -20 -48 -22 -20 0 6 -4 3 -9 -8 -9 -20 -9 -20 -10 0 -1 18 -2 17 -11 -4 -5 -13 -7 -32 -4 -42 4 -11 2 -19 -5 -19 -6 0 -18 -6 -25 -13 -16 -16 -200 -39 -243 -31 -33 7 -44 -5 -57 -63 l-7 -33 60 0 c66 0 264 19 271 26 2 2 -1 21 -7 41 -16 53 -7 53 19 0 22 -45 22 -45 3 -78 -11 -19 -32 -40 -46 -46 -30 -15 -224 -23 -283 -13 -30 5 -13 8 65 10 58 1 130 6 160 10 38 5 4 7 -107 6 -142 -2 -163 0 -164 13 -1 9 -5 5 -9 -9 -12 -38 -11 -103 3 -120 25 -32 71 -60 96 -60 25 0 117 57 132 82 5 7 11 10 14 7 3 -4 -6 -30 -20 -60 -14 -30 -25 -63 -25 -74 1 -36 45 30 65 96 10 32 22 59 27 59 11 0 11 2 -12 -73 -21 -66 -52 -117 -74 -117 -6 0 -18 -21 -25 -47 -19 -63 -36 -95 -65 -122 -63 -59 -109 13 -135 206 -15 118 -17 123 -34 106 -14 -15 -21 -16 -37 -5 -28 17 -30 16 -30 -17 0 -28 -22 -61 -40 -61 -4 0 -13 -14 -19 -30 -5 -17 -16 -29 -23 -28 -7 2 -14 -8 -16 -22 -6 -48 -24 -90 -38 -90 -9 0 -14 -11 -14 -30 0 -21 -5 -30 -16 -30 -10 0 -14 -5 -10 -15 3 -9 -1 -41 -9 -72 -8 -32 -15 -83 -15 -114 0 -48 3 -59 19 -64 13 -4 18 -12 14 -21 -5 -13 -7 -13 -14 -2 -6 9 -9 8 -9 -7 0 -12 5 -26 12 -33 9 -9 9 -12 0 -12 -16 0 -15 -31 3 -71 l14 -34 1 61 c0 71 27 158 71 225 31 50 169 180 169 160 0 -17 60 -81 92 -97 27 -14 33 -13 74 6 24 12 44 26 44 31 0 5 5 9 10 9 21 0 9 -20 -27 -45 -54 -36 -94 -33 -144 12 -38 35 -39 35 -28 9 17 -36 57 -56 114 -56 37 0 52 6 81 33 33 30 39 46 89 230 29 108 58 204 65 212 8 10 31 15 64 15 51 0 53 1 70 40 13 30 32 48 79 76 34 21 64 39 66 40 2 2 6 22 8 45 4 29 2 39 -6 35 -6 -4 -11 -22 -12 -39 0 -26 -2 -28 -8 -12 -8 19 -9 18 -13 -5 l-5 -25 -11 25 c-9 20 -11 21 -10 5 2 -11 -1 -21 -5 -22 -12 -4 -36 -24 -89 -75 -45 -44 -68 -58 -68 -41 0 3 7 14 16 24 15 17 26 69 25 118 -1 37 -11 39 -11 2 0 -18 -4 -30 -8 -27 -11 6 -9 86 2 104 4 7 12 9 18 6 7 -5 9 -1 5 9 -6 15 3 22 26 18 4 0 7 6 7 15 0 11 6 15 20 11 11 -3 20 -1 20 5 0 6 7 7 15 4 9 -3 18 1 21 9 4 8 11 12 18 8 6 -3 8 -3 4 1 -4 5 -3 19 2 32 6 14 6 26 0 29 -6 4 -10 -2 -11 -12 0 -16 -1 -16 -7 -2 -5 13 -10 14 -18 5z m-194 -224 c0 -2 -16 -10 -35 -18 -39 -16 -205 -20 -205 -4 0 5 10 12 23 15 34 8 217 14 217 7z m-134 -194 c4 -4 -5 -12 -20 -18 -15 -5 -29 -16 -32 -25 -3 -8 -11 -12 -16 -9 -6 4 -14 0 -19 -7 -7 -12 -15 -11 -46 6 -45 24 -57 61 -23 73 22 8 143 -8 156 -20z m-241 -118 c3 -6 -1 -17 -9 -26 -34 -33 -33 -100 1 -87 16 6 16 5 4 -10 -37 -46 -64 9 -37 75 l16 42 -30 -29 c-17 -16 -28 -36 -26 -44 22 -76 20 -85 -38 -144 l-56 -57 0 35 c0 33 2 35 24 29 24 -6 25 -5 13 25 -10 27 -9 33 8 46 11 8 26 12 34 10 9 -4 11 0 7 11 -3 8 -6 21 -6 27 0 23 -53 -41 -77 -91 -19 -42 -23 -63 -18 -93 7 -38 -6 -55 -19 -26 -4 6 -4 -5 -2 -25 4 -28 1 -38 -9 -38 -23 0 -24 13 -3 80 35 113 59 158 128 230 65 69 83 80 95 60z m265 -117 c0 -3 -8 -31 -17 -62 -15 -47 -51 -95 -73 -96 -3 -1 -16 -7 -29 -14 -18 -10 -25 -10 -35 0 -8 9 -8 10 1 5 13 -7 25 0 65 39 18 18 35 50 59 113 8 20 29 32 29 15z m-242 -83 c3 -20 2 -22 -11 -12 -8 7 -21 10 -30 6 -20 -7 -34 16 -16 27 25 16 54 6 57 -21z m-245 -228 c10 -13 8 -14 -11 -8 -24 8 -29 -3 -10 -22 15 -15 6 -24 -16 -16 -19 7 -20 26 -4 71 12 32 13 33 21 11 4 -12 13 -28 20 -36z"/> <path d="M590 4175 c-7 -9 -10 -18 -7 -21 10 -11 37 5 37 21 0 19 -14 19 -30 0z"/> <path d="M370 4817 c0 -36 10 -57 26 -57 21 0 17 44 -6 65 -20 18 -20 17 -20 -8z"/> <path d="M928 4803 c-107 -4 -105 -3 -111 -78 -2 -26 2 -30 28 -34 17 -2 75 3 129 10 80 10 100 16 104 31 2 10 8 15 13 12 12 -7 11 7 -1 26 -9 13 -10 13 -10 0 -1 -8 -7 -3 -16 13 -8 15 -20 26 -27 25 -7 -1 -56 -4 -109 -5z m104 -49 c7 -5 -10 -13 -42 -20 -99 -23 -149 -15 -115 19 11 12 32 15 80 12 36 -2 70 -7 77 -11z"/> <path d="M1615 4798 c-20 -55 -35 -102 -35 -107 1 -14 34 56 41 86 7 32 3 46 -6 21z"/> <path d="M1676 4802 c-3 -5 -9 -27 -15 -50 -9 -40 -8 -42 16 -42 17 0 22 -4 17 -12 -6 -10 -5 -10 8 -1 8 7 28 11 44 9 50 -6 109 -18 119 -25 6 -3 17 -6 25 -6 8 0 15 -5 15 -12 0 -31 16 -20 39 26 30 59 31 62 10 54 -8 -3 -13 -11 -11 -17 3 -6 -1 -17 -8 -23 -10 -10 -14 -9 -19 3 -8 22 -7 26 4 19 12 -8 13 5 1 24 -7 10 -11 5 -16 -18 -3 -17 -11 -31 -17 -31 -6 0 -7 7 -4 15 3 8 9 22 13 32 4 11 3 14 -5 9 -7 -4 -12 -14 -12 -22 0 -8 -4 -14 -10 -14 -14 0 -28 32 -22 50 4 11 2 11 -11 -2 -10 -9 -17 -21 -17 -27 0 -5 -5 -13 -11 -17 -9 -5 -10 1 -5 22 l7 29 -21 -30 c-22 -33 -28 -16 -10 31 18 45 2 40 -20 -7 l-20 -44 -1 35 -1 35 -14 -32 c-17 -40 -28 -43 -20 -5 5 20 4 23 -4 12 -5 -8 -10 -23 -10 -32 0 -10 -3 -18 -8 -18 -4 0 -6 18 -4 40 3 25 8 37 15 33 6 -3 7 -1 3 5 -9 14 -13 15 -20 4z"/> <path d="M1631 4759 c-13 -39 -14 -49 -1 -49 10 0 26 68 17 76 -2 3 -10 -9 -16 -27z"/> <path d="M1497 4730 c-4 -14 -6 -36 -6 -50 1 -22 2 -20 10 8 6 19 9 41 7 50 -3 12 -6 10 -11 -8z"/> <path d="M1991 4696 c-19 -35 -1 -64 40 -62 18 1 34 7 37 14 2 7 8 9 14 6 6 -4 6 2 -1 14 -19 35 -46 46 -69 29 -9 -7 -11 -6 -6 7 9 24 -1 19 -15 -8z m72 -15 c17 -18 -20 -46 -40 -30 -10 9 -13 8 -13 -2 0 -11 -2 -11 -10 1 -15 23 -12 29 11 25 14 -3 19 0 16 9 -7 17 18 15 36 -3z"/> <path d="M1548 4695 c-3 -11 -13 -37 -22 -57 -9 -21 -14 -38 -11 -38 9 0 46 92 42 104 -2 6 -6 2 -9 -9z"/> <path d="M1637 4643 c-9 -21 -20 -54 -25 -73 -8 -28 -11 -31 -17 -17 -4 10 -1 36 9 60 21 56 20 65 -4 37 -11 -12 -17 -27 -14 -31 3 -5 0 -9 -7 -9 -6 0 -9 -8 -6 -20 3 -11 1 -18 -4 -14 -5 3 -9 0 -9 -6 0 -7 -6 -10 -14 -7 -8 3 -17 -1 -20 -9 -3 -9 -10 -13 -15 -10 -5 4 -15 0 -23 -6 -54 -52 -82 -69 -107 -63 -14 3 -35 7 -46 9 -11 2 -32 7 -47 11 l-28 7 49 39 c45 36 68 66 57 76 -2 3 -13 -4 -23 -14 -10 -10 -37 -28 -58 -39 -24 -12 -47 -34 -58 -55 l-17 -34 37 -8 c71 -16 148 -36 165 -42 11 -4 21 3 34 24 15 25 115 91 138 91 18 0 -11 -30 -45 -46 -42 -18 -79 -56 -79 -80 0 -8 4 -14 10 -14 5 0 42 -16 82 -35 l73 -34 20 24 c11 13 40 33 65 45 66 33 72 38 58 63 l-11 21 -18 -22 c-12 -15 -19 -18 -22 -10 -3 8 -6 6 -6 -5 -1 -14 -4 -15 -13 -6 -14 12 -18 70 -5 62 4 -2 7 5 7 17 0 19 -2 20 -15 6 -10 -10 -13 -24 -9 -41 4 -15 2 -25 -5 -25 -6 0 -10 -10 -8 -22 1 -14 -7 -27 -28 -39 -27 -16 -34 -17 -57 -5 -15 8 -28 12 -30 10 -2 -1 -9 6 -16 17 -11 17 -8 21 20 39 18 11 36 21 39 22 9 4 72 188 67 194 -3 2 -12 -13 -21 -33z"/> <path d="M1690 4612 c-14 -34 -28 -62 -32 -62 -11 0 -10 3 12 54 11 27 15 48 10 51 -6 4 -10 0 -10 -7 0 -7 -14 -46 -30 -87 l-31 -75 21 -20 c17 -17 20 -18 20 -4 0 9 -6 18 -12 20 -10 4 -10 10 0 32 6 15 16 24 22 21 5 -3 14 4 21 16 8 15 13 18 19 10 5 -9 9 -8 14 5 3 9 4 19 1 22 -3 3 -5 0 -5 -7 0 -7 -4 -9 -10 -6 -6 4 -4 17 6 36 8 17 14 38 12 47 -2 9 -14 -11 -28 -46z"/> <path d="M660 4641 c0 -20 17 -37 27 -28 7 8 -7 47 -18 47 -5 0 -9 -9 -9 -19z"/> <path d="M1765 4603 c-22 -41 -25 -44 -21 -18 5 27 3 25 -13 -10 -21 -46 -21 -42 2 -47 15 -2 24 10 42 60 12 34 21 62 19 62 -2 0 -15 -21 -29 -47z"/> <path d="M1863 4588 c-20 -41 -22 -55 -7 -55 7 0 15 6 18 14 3 7 0 13 -6 13 -7 0 -6 5 2 15 6 8 10 19 8 26 -2 6 -9 0 -15 -13z"/> <path d="M1787 4583 c-2 -10 -8 -26 -12 -36 -5 -13 -3 -16 8 -11 8 3 17 19 19 35 5 31 -6 40 -15 12z"/> <path d="M1039 4575 c-3 -2 -62 -6 -133 -9 -70 -2 -130 -7 -134 -10 -7 -8 287 -7 316 0 33 9 27 24 -11 24 -19 0 -36 -2 -38 -5z"/> <path d="M595 4541 c-7 -13 12 -51 25 -51 6 0 10 8 10 19 0 23 -25 46 -35 32z"/> <path d="M200 4525 c0 -16 27 -32 37 -21 7 7 -16 36 -28 36 -5 0 -9 -7 -9 -15z"/> <path d="M1798 4469 c-21 -57 -29 -66 -68 -85 -25 -12 -54 -32 -65 -44 -18 -20 -18 -23 -3 -31 9 -5 41 -29 71 -53 l54 -45 49 24 c27 14 54 29 60 34 7 5 15 7 18 3 4 -3 11 -1 15 6 9 15 51 25 51 12 0 -5 7 -7 15 -4 8 4 13 10 10 14 -3 5 -1 11 4 15 6 3 15 -3 21 -14 8 -17 6 -25 -10 -41 -11 -11 -16 -20 -12 -20 5 0 19 11 32 25 13 14 18 25 11 25 -7 0 -9 5 -6 10 5 8 11 7 21 -1 13 -10 8 -19 -28 -57 -24 -25 -37 -42 -30 -38 6 4 12 2 12 -3 0 -6 5 -11 11 -11 6 0 8 8 4 19 -5 16 5 27 47 54 29 19 71 54 93 78 36 39 35 38 -19 -9 -55 -50 -59 -52 -77 -36 -18 16 -17 40 2 29 5 -4 12 1 15 9 7 18 34 22 34 6 0 -5 -6 -10 -14 -10 -17 0 -31 -18 -22 -28 8 -7 96 78 96 93 0 5 -11 -3 -24 -18 -14 -16 -29 -26 -35 -23 -5 3 5 22 22 40 18 19 34 30 35 25 4 -11 22 -2 22 12 0 6 -4 7 -10 4 -5 -3 -10 -1 -10 5 0 6 -23 -14 -51 -44 -28 -31 -56 -56 -62 -56 -7 0 -7 4 1 12 7 7 12 17 12 22 0 6 -8 -1 -17 -14 -10 -14 -17 -29 -15 -34 2 -5 -4 -4 -13 4 -13 11 -19 10 -36 -6 -25 -22 -50 -27 -42 -8 3 8 9 12 13 9 4 -3 14 3 21 13 13 15 12 16 -3 4 -10 -8 -17 -9 -20 -2 -1 5 -13 12 -25 14 -14 3 -23 -1 -26 -15 -3 -10 -11 -19 -17 -19 -9 0 -10 4 -2 13 6 7 8 23 5 36 -4 17 -8 19 -14 9 -12 -18 -11 -31 1 -23 6 4 7 -1 3 -11 -4 -11 -8 -13 -11 -6 -4 14 -22 6 -22 -9 0 -6 5 -7 10 -4 6 3 13 -1 16 -10 6 -14 11 -12 35 11 16 15 29 23 29 17 0 -6 -14 -23 -31 -37 -22 -19 -35 -24 -47 -17 -28 15 -53 51 -46 64 4 7 4 9 -1 5 -4 -4 -14 0 -23 8 -15 16 -18 58 -7 95 6 17 9 19 16 8 6 -10 9 -11 9 -1 0 6 4 12 10 12 5 0 7 -7 4 -15 -4 -8 -13 -15 -22 -15 -8 0 -12 -3 -9 -6 3 -4 1 -16 -5 -28 -6 -11 -7 -18 -3 -14 5 4 15 2 24 -5 14 -11 14 -10 2 6 -12 16 -12 20 3 35 17 16 18 16 12 -8 -3 -14 -3 -19 0 -12 5 10 9 9 19 -5 7 -10 10 -22 6 -28 -11 -13 -21 -45 -16 -45 3 0 12 11 21 25 14 21 14 28 3 43 -12 15 -12 16 1 5 20 -15 31 -7 60 44 13 23 27 40 31 38 4 -3 9 2 13 10 11 30 -14 25 -33 -6 -22 -36 -56 -50 -46 -19 3 10 1 21 -4 25 -7 4 -8 -1 -4 -11 6 -15 3 -15 -28 2 -19 10 -37 23 -40 28 -4 4 -17 -21 -31 -55z m85 8 c4 3 7 -2 7 -11 0 -12 5 -16 15 -12 9 3 15 0 15 -10 0 -8 -4 -12 -10 -9 -5 3 -10 0 -11 -7 0 -9 -2 -10 -5 -1 -3 7 -12 9 -20 6 -8 -3 -15 -1 -15 3 -8 63 -8 69 5 52 7 -10 16 -15 19 -11z m-79 -142 c15 -14 24 -25 20 -25 -3 0 -1 -6 5 -14 10 -12 8 -17 -9 -26 -17 -9 -27 -8 -52 7 -46 27 -57 49 -33 67 28 21 38 20 69 -9z"/> <path d="M2018 4468 c-10 -12 -18 -26 -18 -30 0 -15 18 -8 24 8 4 9 9 14 13 11 3 -4 -2 -19 -11 -34 -17 -28 -17 -28 8 2 14 16 22 32 17 35 -4 3 -10 10 -12 17 -3 8 -10 4 -21 -9z"/> <path d="M2096 4428 c-25 -29 -46 -56 -46 -60 0 -4 19 14 43 40 23 26 49 52 57 59 8 7 10 13 4 13 -6 0 -32 -24 -58 -52z"/> <path d="M1080 4431 c-11 -22 -80 -259 -80 -277 0 -8 37 -14 113 -19 61 -4 144 -13 184 -21 115 -23 278 -97 354 -162 25 -21 32 -23 40 -11 22 35 10 57 -53 97 -82 51 -160 90 -226 113 -71 24 -251 59 -307 59 -24 0 -50 3 -59 6 -28 11 -6 24 40 24 42 0 46 2 59 35 27 63 -12 109 -57 68 -15 -13 -18 -14 -18 -2 0 42 69 54 94 17 19 -27 20 -58 4 -93 -6 -14 -9 -27 -7 -30 3 -2 30 -7 60 -11 52 -6 55 -5 67 20 17 38 15 85 -4 93 -8 3 -25 -4 -38 -16 -12 -11 -26 -21 -29 -21 -14 0 13 39 34 50 51 28 89 -28 65 -97 -13 -38 -13 -41 3 -46 14 -3 17 1 14 17 -5 25 32 69 54 64 9 -2 24 -25 34 -52 17 -42 18 -48 3 -42 -8 3 -18 6 -20 6 -2 0 -4 14 -4 30 0 31 -17 39 -38 18 -23 -23 -13 -43 33 -60 l44 -17 36 50 c20 27 41 49 45 49 16 0 40 -44 40 -73 0 -38 -25 -64 -45 -47 -12 10 -13 16 -4 26 9 11 15 11 25 3 17 -14 19 3 4 32 -15 26 -22 24 -50 -13 l-23 -31 23 -19 c38 -31 66 -24 86 22 13 29 24 40 39 40 28 0 49 -39 43 -81 l-5 -33 23 28 c19 22 27 25 43 16 11 -5 22 -23 26 -40 l7 -30 25 20 c14 11 32 20 40 20 38 0 -53 94 -157 162 -132 87 -257 139 -399 163 -118 21 -168 20 -181 -4z m148 -27 c18 -5 20 -9 11 -20 -16 -20 -42 -17 -62 6 -16 19 -16 20 6 20 12 0 32 -3 45 -6z m201 -100 c27 -35 34 -60 22 -81 -9 -16 -10 -15 -11 8 0 15 -10 39 -21 54 -18 22 -28 26 -50 21 -29 -5 -41 8 -16 17 29 12 57 5 76 -19z m71 16 c11 -7 12 -12 3 -21 -13 -13 -33 -4 -33 17 0 16 9 18 30 4z m-376 -8 c9 -14 -24 -52 -44 -52 -27 0 -32 13 -14 38 15 22 48 30 58 14z m136 -51 c-11 -22 -64 -30 -75 -11 -4 6 5 10 20 10 15 0 28 7 32 18 3 9 11 23 17 31 9 12 12 11 14 -7 2 -11 -2 -30 -8 -41z"/> <path d="M1955 4419 c-6 -17 -9 -19 -16 -8 -5 8 -9 10 -9 4 0 -20 17 -38 25 -26 5 8 17 4 40 -13 29 -22 34 -23 39 -9 4 9 4 18 1 21 -3 3 -5 0 -5 -6 0 -7 -5 -12 -11 -12 -5 0 -7 5 -3 12 4 7 3 8 -4 4 -7 -4 -12 -2 -12 4 0 6 -5 8 -12 4 -7 -5 -9 -2 -5 9 4 11 2 14 -9 10 -10 -4 -12 0 -8 11 3 9 4 16 1 16 -3 0 -9 -10 -12 -21z"/> <path d="M730 4378 c0 -79 44 -247 69 -262 39 -24 85 44 116 170 13 51 26 98 30 104 4 6 -11 -1 -33 -17 -35 -24 -41 -34 -47 -78 -4 -27 -14 -61 -23 -75 l-16 -25 -18 40 c-9 22 -18 58 -18 81 0 33 -5 44 -30 62 l-30 23 0 -23z m90 -203 c-11 -13 -10 -15 6 -9 15 5 16 4 4 -4 -10 -8 -18 -8 -27 0 -19 16 -16 28 8 28 18 0 19 -2 9 -15z"/> <path d="M2250 4391 c0 -8 -6 -11 -17 -7 -10 4 -14 4 -10 0 4 -4 -5 -21 -20 -38 -25 -27 -25 -28 -3 -11 51 41 63 55 57 62 -4 3 -7 1 -7 -6z"/> <path d="M2245 4319 c-16 -16 -36 -27 -43 -24 -7 3 -10 0 -7 -5 3 -6 1 -10 -5 -10 -7 0 -33 -18 -58 -40 -45 -40 -46 -40 -57 -20 -11 20 -12 20 -26 4 -9 -11 -9 -15 -1 -10 15 9 16 -6 1 -21 -7 -7 -6 -12 5 -16 17 -7 130 76 119 87 -3 3 -1 6 5 6 27 0 17 -20 -28 -54 -53 -41 -69 -61 -21 -27 34 25 49 27 31 5 -12 -13 -10 -14 13 -3 30 13 37 32 10 23 -10 -4 -4 5 12 19 17 13 41 34 55 46 l25 21 -37 -21 c-43 -24 -53 -12 -10 13 31 18 70 58 56 57 -5 0 -22 -13 -39 -30z"/> <path d="M810 4303 c0 -38 14 -72 24 -62 3 3 9 27 12 52 6 43 5 47 -15 47 -18 0 -21 -6 -21 -37z"/> <path d="M2131 4280 c-40 -27 -63 -60 -41 -60 12 0 31 26 23 33 -3 4 0 7 9 7 8 0 25 11 38 25 30 32 25 31 -29 -5z"/> <path d="M444 4254 c9 -47 23 -64 32 -40 9 23 -7 68 -25 74 -11 4 -12 -3 -7 -34z"/> <path d="M1936 4272 c-4 -7 -34 -26 -67 -42 -56 -29 -58 -31 -47 -55 8 -18 17 -24 27 -19 58 23 177 3 209 -35 8 -9 11 -10 7 -3 -3 7 1 15 11 19 10 4 19 2 22 -5 2 -6 11 -8 20 -5 14 4 15 3 2 -6 -9 -6 -18 -7 -24 -1 -15 15 -25 12 -21 -7 1 -10 10 -17 19 -17 8 1 14 -2 11 -6 -3 -5 -2 -15 1 -24 6 -15 10 -14 41 4 26 15 39 18 54 10 13 -7 19 -7 19 0 0 5 -7 10 -16 10 -10 0 -14 6 -10 15 3 8 0 14 -7 12 -7 -1 -11 4 -10 11 2 6 -2 12 -7 12 -9 0 -12 -8 -9 -27 1 -9 -31 -26 -38 -19 -3 3 0 12 7 21 7 8 9 15 4 15 -5 0 -2 5 6 10 11 8 7 9 -15 4 l-30 -7 25 22 25 23 -25 -16 c-28 -19 -60 -21 -60 -5 0 8 -5 7 -16 -1 -12 -11 -15 -11 -12 1 2 10 -6 14 -29 13 -35 -1 -39 4 -23 24 7 9 7 9 -2 2 -17 -14 -31 -12 -22 3 6 9 4 9 -8 -1 -13 -10 -16 -9 -21 10 -4 13 0 26 10 33 9 7 14 18 11 25 -3 11 -6 11 -12 2z"/> <path d="M2287 4240 c-8 -12 -21 -20 -28 -18 -8 2 -13 -3 -11 -9 1 -7 -2 -14 -8 -14 -5 -1 -14 -3 -20 -4 -5 -1 -16 -3 -22 -4 -10 -1 -9 -4 1 -10 9 -6 29 0 61 20 58 35 80 59 57 59 -9 0 -22 -9 -30 -20z"/> <path d="M2313 4216 c-15 -13 -47 -33 -70 -45 -50 -25 -58 -38 -10 -16 17 8 44 21 60 27 15 7 27 18 27 25 0 7 7 13 15 13 8 0 15 5 15 10 0 15 -5 13 -37 -14z"/> <path d="M2280 4160 c-41 -21 -72 -39 -68 -40 13 0 137 61 143 71 8 12 9 13 -75 -31z"/> <path d="M1595 4181 c-3 -7 0 -8 9 -5 23 9 20 -9 -4 -24 -36 -22 -23 -56 19 -45 18 5 22 11 19 42 -3 36 -28 55 -43 32z"/> <path d="M1858 4143 c-10 -2 -18 -9 -18 -14 0 -6 5 -7 12 -3 6 4 39 10 72 14 l61 7 -55 0 c-30 1 -63 -1 -72 -4z"/> <path d="M985 4083 c-4 -25 -20 -50 -45 -75 -35 -32 -38 -40 -33 -72 3 -23 11 -36 20 -36 28 0 90 42 108 73 23 39 26 124 4 138 -30 19 -47 10 -54 -28z m33 -27 c-3 -40 -12 -65 -32 -91 -16 -20 -30 -34 -33 -31 -3 2 5 18 18 35 14 20 24 50 27 86 2 30 9 55 14 55 6 0 9 -22 6 -54z"/> <path d="M1067 4100 c3 -8 8 -35 10 -60 7 -81 -50 -153 -122 -154 l-36 -1 6 -42 c7 -48 -10 -153 -31 -198 -16 -32 -46 -58 -81 -69 -35 -11 -27 7 10 24 71 33 97 150 68 300 l-12 65 -59 0 c-48 1 -64 5 -84 24 -25 23 -41 64 -37 90 2 13 0 13 -14 1 -21 -18 -16 -92 9 -119 11 -12 13 -21 7 -25 -13 -8 -41 45 -41 78 0 14 -5 28 -11 32 -8 5 -10 -11 -7 -56 4 -50 9 -67 28 -82 13 -11 31 -16 41 -13 23 8 25 -8 4 -25 -41 -34 -100 45 -93 123 l4 39 -33 -38 c-53 -61 -99 -153 -112 -220 -6 -34 -9 -67 -7 -75 3 -8 10 -34 16 -58 l11 -44 25 37 c14 20 29 34 35 31 5 -4 27 -32 48 -64 29 -42 52 -64 85 -80 35 -16 46 -27 46 -44 0 -48 -13 -51 -82 -17 -62 29 -101 60 -132 105 -13 18 -15 14 -26 -39 -19 -92 8 -188 52 -183 19 2 23 -4 29 -42 10 -72 64 -97 135 -63 38 19 44 20 44 6 0 -20 -64 -109 -93 -129 -31 -22 -73 -19 -91 7 -61 87 4 -179 69 -282 26 -41 27 -41 41 -22 12 17 12 26 -2 64 -19 53 -12 97 21 128 21 20 31 22 71 16 37 -5 51 -2 67 11 14 14 34 17 76 16 31 -1 66 0 79 3 28 6 30 39 3 54 -16 8 -23 6 -35 -11 -11 -16 -26 -22 -60 -23 -31 -1 -53 -9 -68 -23 -18 -17 -27 -19 -41 -12 -10 6 -28 9 -40 7 -12 -2 -27 4 -34 12 -10 13 -12 10 -13 -14 0 -21 -4 -27 -15 -22 -9 3 -15 0 -15 -9 0 -8 -4 -15 -10 -15 -21 0 -8 41 35 111 25 40 52 77 60 82 8 4 18 26 21 48 8 49 38 89 68 89 12 0 60 -16 106 -35 47 -19 77 -28 67 -21 -10 8 -54 29 -98 46 -75 31 -80 31 -104 16 -33 -22 -42 -20 -20 4 24 27 41 25 132 -11 74 -29 114 -54 111 -68 -1 -3 6 -20 15 -38 22 -42 22 -43 -13 -43 -35 0 -101 -25 -112 -43 -16 -24 -7 -30 15 -10 28 26 100 46 137 38 46 -10 63 -38 58 -90 -3 -25 -8 -48 -10 -50 -2 -3 -18 0 -34 7 -38 14 -109 4 -152 -22 -52 -32 -74 -76 -68 -137 3 -37 0 -55 -10 -64 -8 -6 -14 -21 -14 -33 0 -20 -1 -20 -15 4 -24 42 -33 64 -39 92 -8 35 -63 98 -86 98 -23 0 -30 -20 -21 -62 13 -56 28 -74 79 -96 55 -24 58 -29 77 -125 14 -75 18 -69 -58 -104 -27 -13 -61 -32 -77 -43 -33 -24 -50 -25 -50 -5 0 8 -4 15 -9 15 -11 0 -1 -53 11 -61 6 -4 -1 -24 -16 -47 -19 -30 -22 -41 -12 -45 8 -3 19 0 25 6 6 6 14 8 18 4 3 -4 -9 -24 -28 -45 -19 -20 -27 -31 -19 -24 22 19 29 14 24 -15 -2 -16 -1 -23 3 -17 5 6 18 15 31 19 21 6 22 5 11 -13 -7 -12 -16 -19 -20 -16 -4 2 -11 -1 -15 -7 -4 -7 -3 -9 3 -6 18 11 22 -17 7 -44 -16 -28 -19 -17 -3 14 10 21 10 21 -5 3 -21 -26 -21 -57 -1 -50 11 5 15 0 14 -17 0 -23 -1 -23 -9 -4 -9 20 -9 20 -9 0 0 -11 4 -29 9 -40 9 -20 9 -20 10 0 1 11 12 -10 26 -46 l24 -66 -88 -89 c-91 -92 -179 -215 -208 -291 -17 -44 -74 -113 -93 -113 -6 0 -12 -4 -12 -10 -1 -5 -2 -15 -3 -22 -2 -23 -22 -16 -41 15 -27 43 -69 49 -99 14 -12 -14 -37 -30 -56 -36 -30 -10 -37 -9 -47 5 -7 9 -10 29 -7 43 4 21 -1 33 -20 52 -28 26 -36 50 -10 28 14 -11 15 -9 12 17 -2 23 -7 29 -25 27 -18 -2 -23 3 -24 20 -1 31 -6 58 -13 65 -11 11 -6 -98 6 -121 24 -46 28 -57 33 -88 3 -18 15 -45 27 -62 18 -26 25 -29 59 -24 21 3 51 14 68 26 37 27 45 26 86 -5 l34 -26 30 21 c47 34 92 92 145 187 27 49 53 90 58 92 4 2 8 10 8 17 0 8 48 63 106 124 l105 110 -6 48 c-7 60 -14 85 -24 79 -13 -8 -19 114 -9 184 3 19 1 40 -4 47 -17 21 1 49 54 83 61 40 121 62 151 55 12 -2 62 -14 111 -26 104 -25 187 -26 264 -4 61 18 161 71 168 90 3 7 23 18 46 26 35 11 46 11 92 -5 57 -20 78 -34 71 -46 -3 -5 0 -12 6 -16 8 -4 9 -3 5 4 -13 22 11 12 28 -10 13 -18 15 -19 7 -3 -12 26 -48 58 -86 78 -24 13 -26 16 -10 17 11 0 31 -7 43 -16 12 -8 22 -12 22 -8 0 3 7 1 15 -6 8 -7 12 -17 8 -23 -3 -6 -1 -7 6 -3 6 4 14 0 17 -9 4 -9 12 -14 19 -11 8 3 11 -2 8 -15 -3 -11 0 -19 6 -19 7 0 9 -4 6 -10 -3 -5 -1 -10 4 -10 20 0 11 37 -18 78 -37 51 -81 66 -171 59 l-67 -5 15 59 16 58 45 4 46 3 -47 2 -47 2 10 30 c6 17 17 30 24 30 7 0 29 13 49 29 23 18 44 27 56 24 11 -3 17 -9 14 -15 -6 -9 136 -1 146 9 3 3 -22 4 -55 2 -33 -1 -68 1 -77 4 -10 4 -26 10 -35 13 -15 6 -14 8 7 14 14 5 19 8 12 9 -7 1 -10 6 -7 11 18 29 251 1 272 -33 4 -6 0 -8 -9 -4 -16 6 -19 -8 -5 -30 4 -6 1 -13 -5 -16 -9 -3 -7 -10 6 -23 13 -13 16 -13 7 -2 -8 11 -9 18 -1 23 6 4 10 3 9 -2 -1 -4 3 -20 9 -35 6 -15 14 -50 18 -77 4 -28 11 -48 15 -45 5 3 7 9 4 14 -3 5 -7 30 -9 57 -3 26 -8 57 -12 68 -7 18 -6 19 12 5 12 -9 8 -1 -10 24 -26 35 -27 38 -7 31 30 -9 26 0 -10 25 -38 27 -114 48 -190 52 -57 3 -58 3 -52 28 7 32 52 100 67 101 6 0 2 4 -8 8 -18 7 -16 9 12 22 34 15 42 29 18 29 -8 0 -17 3 -19 8 -3 4 16 8 42 8 26 1 76 9 111 18 63 16 66 16 107 -5 39 -20 60 -45 48 -57 -3 -3 -13 2 -22 10 -10 9 -34 23 -54 32 -34 16 -41 16 -100 1 -67 -18 -97 -32 -41 -20 20 4 32 3 32 -4 0 -6 10 -11 23 -10 21 0 21 1 2 8 -16 7 -13 9 21 15 28 5 52 3 75 -8 l34 -14 -37 -1 c-50 -1 -74 -11 -56 -23 8 -6 -9 -8 -50 -6 -38 3 -57 1 -50 -5 9 -6 6 -7 -8 -4 -12 2 -28 0 -35 -5 -9 -6 13 -7 61 -3 45 4 87 2 103 -4 18 -7 26 -7 22 -1 -8 13 1 13 28 -2 20 -10 21 -10 8 5 -7 10 -28 21 -45 26 -28 8 -29 9 -6 10 14 1 40 -8 58 -19 43 -27 92 -130 92 -195 0 -56 -19 -135 -32 -135 -6 0 -7 8 -3 18 14 34 16 87 6 112 l-11 25 5 -27 c7 -37 -1 -35 -21 4 -9 18 -23 38 -30 46 -8 7 -12 17 -9 22 3 4 -1 12 -8 18 -12 10 -17 12 -38 12 -6 0 -8 7 -4 18 4 12 3 14 -5 6 -6 -6 -32 -10 -58 -8 -47 4 -47 4 -12 -7 19 -6 44 -19 55 -29 11 -9 26 -15 34 -13 9 4 11 0 7 -15 -4 -11 -2 -23 4 -27 5 -3 10 -11 10 -17 0 -6 -7 -5 -17 3 -9 8 -19 14 -22 14 -3 0 -5 3 -4 7 1 3 -4 9 -12 12 -21 8 -19 -8 4 -28 11 -10 18 -26 16 -37 -2 -11 0 -17 6 -14 5 4 12 0 15 -9 3 -8 13 -17 22 -21 14 -5 14 -4 1 12 -9 10 -14 26 -11 36 5 22 22 12 22 -14 0 -10 5 -19 10 -19 6 0 10 -8 11 -17 0 -10 3 -13 5 -6 6 13 -30 88 -46 98 -5 3 -10 11 -10 18 0 21 51 -39 64 -76 6 -20 10 -53 8 -73 l-5 -38 -20 25 -20 24 8 -25 c4 -14 10 -30 12 -36 2 -7 0 -15 -6 -19 -6 -3 -11 -3 -12 2 0 4 -2 17 -3 29 -3 21 -41 66 -49 57 -10 -9 15 -68 38 -89 22 -20 22 -22 5 -27 -14 -3 -17 -1 -13 11 4 10 2 13 -5 8 -7 -4 -12 -23 -12 -42 0 -31 -12 -45 -23 -26 -2 4 -2 1 -1 -5 2 -7 -1 -13 -6 -13 -5 0 -7 -7 -4 -15 4 -8 1 -21 -5 -29 -6 -7 -12 -25 -13 -40 -1 -14 -6 -26 -10 -26 -5 0 -6 -19 -3 -42 5 -41 3 -46 -50 -103 -30 -33 -55 -63 -55 -67 0 -4 -10 -17 -23 -30 -12 -13 -47 -52 -76 -88 -30 -36 -59 -64 -65 -63 -12 2 -97 -102 -186 -227 -50 -70 -179 -240 -356 -469 -36 -47 -69 -91 -73 -99 -8 -15 -61 -24 -61 -11 0 5 -9 9 -19 9 -25 0 -62 52 -68 96 -4 27 -1 34 12 34 13 0 16 -6 13 -25 -3 -14 -1 -25 3 -25 5 0 9 -6 9 -13 0 -18 51 -54 71 -50 9 2 54 54 100 114 46 61 114 147 151 191 46 55 65 85 58 93 -6 7 2 17 25 29 19 11 58 53 92 100 32 44 93 125 137 180 43 55 71 96 62 93 -10 -4 -22 -7 -27 -7 -5 0 -9 -7 -9 -16 0 -8 -4 -12 -10 -9 -5 3 -10 2 -10 -2 0 -5 -10 -19 -23 -33 -13 -14 -58 -72 -101 -130 -43 -58 -90 -116 -105 -128 -36 -32 -114 -67 -184 -82 -55 -11 -60 -10 -102 14 -24 14 -46 26 -50 26 -15 0 30 -57 53 -68 29 -12 142 -12 142 1 0 4 11 7 25 7 14 0 25 5 25 10 0 6 11 10 25 10 29 0 34 -18 8 -26 -10 -4 -32 -12 -49 -20 -38 -16 -162 -26 -170 -13 -3 5 -10 7 -15 4 -5 -4 -12 1 -16 10 -7 20 -47 65 -57 65 -16 0 -2 -38 24 -68 38 -41 62 -50 128 -47 29 1 52 -2 52 -7 0 -6 -20 -39 -45 -75 -25 -35 -45 -68 -45 -73 0 -6 -4 -10 -9 -10 -4 0 -21 -18 -36 -40 -15 -22 -36 -42 -47 -46 -21 -6 -42 8 -43 29 -1 7 -5 25 -9 40 -6 19 -2 60 9 118 l17 89 -23 37 c-13 21 -27 40 -31 41 -5 2 -5 9 -2 14 5 7 2 8 -6 3 -9 -5 -10 -2 -5 14 4 12 2 21 -4 21 -6 0 -10 3 -10 8 5 28 -5 20 -25 -23 -37 -78 -73 -158 -80 -179 -5 -15 -9 -17 -19 -7 -9 9 -9 16 1 31 6 11 12 26 12 34 0 7 7 19 15 26 8 7 15 23 15 37 0 13 7 26 15 29 8 4 15 16 15 29 0 13 7 25 15 29 19 7 20 25 1 22 -33 -5 -84 -81 -88 -132 -1 -13 -6 -24 -10 -24 -11 0 -35 -60 -43 -111 -4 -24 -11 -48 -15 -54 -8 -11 -8 -10 -16 -113 -6 -66 -4 -75 15 -93 21 -20 71 -18 71 3 0 5 10 2 22 -6 27 -19 51 -21 45 -3 -2 6 -12 11 -21 11 -9 -1 -16 4 -16 12 0 24 21 26 41 3 10 -12 20 -17 20 -11 1 7 2 21 3 31 1 23 16 41 16 19 0 -24 44 -58 95 -73 40 -13 50 -13 67 -1 12 9 34 12 59 9 25 -4 39 -2 39 6 0 6 10 11 23 12 12 0 16 3 9 6 -19 8 31 66 268 308 119 121 233 242 254 268 42 52 98 108 104 102 10 -10 -137 -181 -257 -297 -171 -167 -354 -365 -349 -379 3 -10 557 552 690 701 37 41 138 156 226 256 88 99 199 216 248 260 48 43 139 126 202 182 83 75 119 102 133 99 10 -3 19 -1 19 4 0 5 7 9 15 9 26 0 14 -31 -17 -43 -12 -4 -15 -2 -11 9 10 28 -17 13 -73 -38 -88 -82 -339 -340 -454 -468 -56 -63 -135 -149 -174 -190 -40 -41 -122 -131 -183 -200 -61 -69 -148 -157 -193 -195 -45 -38 -118 -114 -163 -168 -120 -145 -122 -147 -130 -147 -4 0 0 12 9 28 9 15 -9 0 -39 -33 -54 -57 -71 -91 -24 -47 24 22 47 29 47 13 0 -4 -11 -26 -25 -47 l-26 -39 38 41 c126 138 166 185 201 240 22 33 63 81 93 105 98 81 260 243 354 354 140 164 174 201 175 187 1 -38 -92 -153 -284 -353 -216 -224 -541 -571 -550 -587 -12 -21 -17 -62 -8 -62 4 0 12 -13 18 -29 9 -21 8 -34 -3 -55 -8 -15 -11 -36 -7 -48 5 -16 3 -20 -9 -15 -11 4 -20 -6 -31 -34 -28 -70 -22 -94 39 -154 30 -30 55 -57 55 -60 0 -3 -11 -16 -25 -28 -23 -19 -31 -44 -34 -94 -1 -7 -18 -15 -38 -18 -81 -13 -126 -29 -150 -54 -21 -23 -23 -32 -18 -71 4 -25 13 -49 21 -53 8 -5 11 -14 8 -20 -4 -7 -4 -9 1 -5 4 4 17 -4 28 -18 17 -22 18 -27 6 -35 -11 -7 -11 -9 -1 -9 8 0 -2 -15 -21 -34 -41 -39 -55 -75 -36 -87 11 -6 10 -9 -4 -15 -12 -4 -23 0 -31 11 -9 13 -15 15 -20 6 -4 -6 -12 -8 -18 -5 -6 4 -8 1 -6 -7 3 -8 10 -13 16 -12 5 1 18 -7 27 -17 15 -16 15 -22 5 -35 -7 -8 -9 -15 -4 -15 5 0 -2 -7 -14 -16 -12 -8 -22 -21 -22 -29 0 -7 -8 -15 -17 -17 -12 -2 -18 -14 -19 -41 -2 -20 0 -37 4 -36 12 0 48 52 62 89 7 19 28 55 45 80 27 37 31 50 24 74 -9 33 -3 50 16 42 7 -2 22 9 35 26 12 16 38 36 57 44 41 18 39 40 -5 36 -21 -2 -34 3 -44 16 -7 10 -22 23 -32 29 -20 11 -24 23 -29 78 -2 25 1 30 21 29 12 0 22 5 22 13 0 8 13 13 33 14 50 1 90 6 114 14 17 6 22 2 25 -17 4 -21 5 -21 13 -4 5 11 4 26 -3 37 -19 29 -15 93 7 113 25 23 53 11 49 -23 -1 -14 1 -32 6 -39 8 -13 26 -7 26 9 0 6 -5 7 -10 4 -13 -8 -13 6 0 25 9 13 11 13 20 0 5 -8 10 -11 10 -7 0 4 9 3 21 -3 11 -7 23 -9 26 -6 3 3 -6 10 -20 17 -14 6 -23 17 -20 24 6 18 -30 53 -59 57 -15 2 -23 10 -23 23 0 13 -8 21 -22 23 -13 2 -23 8 -23 13 0 5 -11 15 -25 21 -32 14 -39 37 -25 88 10 39 12 40 47 37 19 -2 39 -11 44 -20 11 -19 64 -20 80 0 17 19 2 30 -21 15 -43 -27 -122 54 -90 92 16 20 44 20 60 1 10 -12 40 -22 40 -12 0 1 4 17 10 36 l9 34 -24 -23 c-27 -25 -35 -17 -11 9 8 9 17 29 20 44 3 16 17 41 32 55 15 15 54 61 87 102 33 41 68 84 78 95 11 11 86 110 168 221 83 110 163 215 179 232 18 19 25 32 16 32 -8 0 -11 6 -8 15 4 10 10 12 18 6 7 -6 37 22 93 90 72 86 81 104 52 101 -3 -1 -5 13 -4 31 1 37 24 77 43 77 7 0 10 4 7 10 -8 13 154 184 290 306 180 162 278 230 381 264 66 22 83 40 39 40 -27 0 -34 15 -10 24 19 7 20 40 1 55 -18 15 -53 0 -124 -53 -39 -29 -50 -42 -40 -48 9 -6 6 -7 -9 -3 -12 3 -24 1 -28 -5 -3 -5 -12 -10 -18 -10 -16 1 33 43 116 102 66 47 82 68 51 68 -24 0 -97 -61 -256 -214 -78 -75 -146 -136 -152 -135 -14 0 250 257 333 322 54 43 61 52 45 58 -13 4 -31 -2 -54 -19 -47 -35 -313 -302 -429 -432 -52 -58 -126 -139 -165 -181 -39 -41 -129 -141 -200 -222 -71 -81 -130 -147 -132 -147 -21 0 109 166 242 310 38 41 111 127 161 190 104 130 326 354 453 455 86 69 101 85 80 85 -7 0 -10 7 -6 16 9 22 -6 12 -114 -82 -139 -120 -336 -329 -575 -608 -33 -38 -110 -126 -170 -195 -61 -69 -135 -157 -165 -196 -115 -148 -219 -265 -360 -405 -80 -80 -178 -180 -217 -222 -66 -73 -93 -92 -93 -67 0 13 49 84 82 119 13 14 52 63 87 110 35 47 87 112 116 145 28 33 73 89 100 125 27 36 81 101 120 145 62 70 125 145 263 318 36 45 222 253 337 376 39 42 91 103 117 136 49 65 235 248 334 331 60 50 61 51 47 77 -7 15 -16 27 -19 27 -14 0 -110 -96 -177 -176 -41 -49 -87 -100 -103 -114 -40 -34 -185 -196 -269 -300 -123 -152 -159 -192 -163 -181 -8 25 217 298 422 512 242 251 249 259 232 259 -22 0 -182 -155 -265 -256 -94 -116 -362 -436 -379 -454 -37 -38 49 100 108 173 36 45 77 98 90 117 47 68 180 226 267 318 71 74 86 95 76 105 -7 7 -31 60 -53 117 l-40 105 16 74 c28 124 1 244 -68 308 -86 81 -209 65 -283 -38 -19 -27 -35 -52 -35 -55 0 -3 19 8 43 25 23 17 56 33 72 37 27 5 36 0 82 -49 67 -71 91 -142 74 -225 -14 -68 -38 -111 -78 -138 l-30 -20 24 -28 24 -28 23 21 c36 34 73 110 86 178 10 51 10 74 -4 143 -9 45 -14 90 -11 100 7 23 -27 60 -55 60 -11 0 -20 5 -20 10 0 19 56 10 78 -13 89 -94 59 -382 -51 -488 -35 -34 -35 -36 -30 -95 5 -59 5 -61 -28 -88 -31 -27 -34 -27 -46 -10 -12 16 -11 19 6 26 47 17 34 113 -21 168 -26 27 -37 31 -65 27 -38 -7 -40 -2 -13 33 17 23 21 24 52 12 29 -11 36 -10 58 6 58 43 80 161 45 236 -22 46 -87 86 -141 86 -31 0 -51 -9 -97 -46 -32 -25 -61 -43 -64 -41 -8 9 54 121 97 175 44 55 104 96 157 107 80 16 177 -47 212 -138 26 -68 27 -28 1 43 -26 72 -48 99 -100 127 -75 40 -169 25 -234 -35 -15 -15 -46 -55 -68 -89 -55 -87 -86 -107 -164 -106 -78 1 -135 30 -180 93 -35 50 -51 90 -35 90 5 0 13 -10 16 -22 20 -64 93 -126 163 -139 87 -17 145 17 192 111 13 24 36 57 52 71 l28 27 -19 52 c-27 71 -64 116 -107 130 -53 18 -167 9 -193 -14 -12 -11 -21 -15 -21 -11 0 5 -16 -6 -35 -25 -22 -22 -42 -56 -56 -97 -11 -35 -23 -63 -25 -63 -3 0 -32 19 -66 41 -84 58 -231 125 -311 144 -37 8 -110 19 -162 23 -84 7 -95 6 -88 -8z m853 -29 c10 -26 16 -29 45 -24 41 7 70 -9 91 -49 16 -31 16 -32 -6 -50 -12 -10 -29 -18 -38 -18 -12 0 -13 -3 -4 -12 9 -9 21 -4 52 21 22 18 46 31 52 29 7 -3 -9 -20 -34 -39 -38 -27 -47 -41 -50 -69 -6 -66 -113 -104 -187 -66 -40 21 -91 83 -91 110 0 30 29 127 44 145 18 23 69 51 92 51 14 0 26 -10 34 -29z m-760 -37 c0 -72 -31 -137 -82 -175 -45 -32 -103 -45 -124 -28 -23 19 -17 26 30 38 62 15 123 85 131 149 9 64 12 72 30 72 12 0 15 -12 15 -56z m167 25 c67 -20 153 -76 153 -98 0 -5 -17 -20 -38 -33 -23 -15 -48 -45 -62 -74 -14 -27 -26 -51 -28 -53 -1 -3 -8 1 -14 7 -7 7 -36 12 -65 12 -88 0 -151 -38 -237 -143 -98 -118 -155 -164 -216 -172 -59 -8 -65 -5 -56 29 5 20 12 24 36 24 38 -1 104 44 124 85 8 18 18 56 22 84 3 29 12 57 18 62 6 5 38 19 71 30 90 32 144 110 145 209 l0 52 38 0 c20 0 70 -10 109 -21z m-567 -137 c0 -15 7 -38 16 -50 15 -22 17 -22 35 -6 10 9 22 32 25 51 4 22 10 31 16 25 6 -6 6 -23 0 -46 -6 -20 -7 -36 -3 -36 29 0 42 -131 17 -178 -35 -67 -83 -79 -120 -29 -16 22 -21 43 -21 95 0 37 4 76 8 87 8 17 12 11 26 -35 19 -64 42 -75 65 -33 l15 28 1 -25 c0 -32 -17 -50 -46 -50 -16 0 -26 10 -37 38 -15 34 -16 35 -16 10 -1 -51 16 -78 49 -78 16 0 30 -5 30 -11 0 -8 -11 -9 -31 -5 -27 5 -30 4 -19 -9 34 -41 90 9 90 80 0 44 -17 105 -29 105 -4 0 -12 -5 -18 -11 -17 -17 -38 -5 -56 34 -19 39 -23 92 -7 82 6 -3 10 -18 10 -33z m811 13 c62 -34 109 -76 114 -102 10 -55 71 -128 116 -138 15 -4 33 -12 39 -20 7 -9 31 -12 81 -10 61 3 70 1 65 -12 -9 -22 21 -63 45 -63 12 0 43 16 69 35 26 19 60 35 74 35 39 0 84 -26 101 -60 26 -51 15 -158 -20 -182 -5 -4 -24 -5 -40 -2 -23 4 -40 -2 -73 -26 -24 -17 -47 -28 -51 -25 -5 3 -21 -9 -35 -26 -24 -28 -31 -46 -27 -76 1 -6 -3 -14 -9 -18 -6 -4 -10 -3 -9 2 5 29 -14 55 -34 47 -13 -5 -14 -10 -6 -26 6 -11 8 -27 5 -35 -5 -13 -4 -14 8 -4 11 10 17 7 30 -11 9 -12 12 -25 8 -29 -15 -13 -79 -30 -134 -36 -53 -5 -58 -4 -58 15 0 23 10 28 74 37 26 4 43 11 40 17 -4 5 -21 7 -39 4 -35 -7 -71 16 -59 36 4 6 7 24 6 39 0 21 4 29 16 29 9 0 28 9 42 20 21 17 22 19 5 14 -20 -6 -20 -6 0 12 19 16 15 16 -27 -1 -11 -4 -18 -3 -18 4 0 21 -29 11 -33 -11 -3 -16 -5 -11 -6 12 -2 52 -18 106 -57 187 -30 63 -84 132 -96 122 -2 -2 -15 3 -28 12 -14 9 -46 19 -73 22 -84 12 -166 66 -164 109 1 15 4 25 7 24 3 -2 28 21 55 50 28 29 51 53 51 53 1 1 21 -10 45 -24z m-886 -105 c28 -11 29 -12 12 -25 -34 -24 -86 15 -87 65 l0 25 23 -27 c12 -15 36 -32 52 -38z m-80 0 c7 -32 47 -66 65 -55 6 4 10 -6 10 -27 0 -57 21 -111 56 -146 29 -29 32 -36 22 -58 -6 -13 -18 -24 -26 -24 -24 0 -88 58 -122 110 -18 28 -39 50 -47 50 -11 0 -14 7 -9 28 3 15 11 57 18 94 12 70 22 78 33 28z m718 -31 c20 -5 66 -30 102 -54 61 -42 98 -56 186 -70 70 -11 119 -73 158 -198 58 -188 28 -360 -94 -545 -76 -116 -146 -154 -95 -52 81 160 120 351 102 499 -10 84 -32 135 -32 75 0 -49 -58 -134 -120 -177 -73 -50 -131 -57 -220 -27 -64 22 -120 54 -120 70 0 4 24 13 53 20 125 29 235 119 296 241 17 34 29 65 26 69 -2 4 -26 5 -53 2 -41 -4 -61 1 -124 32 -41 20 -88 36 -104 36 -47 -1 -66 -15 -231 -172 -46 -43 -91 -78 -101 -78 -11 0 -24 12 -31 26 -11 24 -8 30 46 83 32 31 82 85 112 120 37 43 71 71 105 87 56 26 83 29 139 13z m24 -138 c17 -7 49 -21 69 -32 21 -10 46 -19 54 -19 9 0 20 -3 23 -6 9 -10 -34 -84 -49 -84 -7 0 -15 -6 -17 -12 -3 -8 -6 -7 -6 4 -1 9 -10 20 -22 23 -23 8 -103 -11 -133 -31 -13 -9 -26 -10 -43 -3 -40 15 -68 10 -96 -15 -14 -13 -23 -27 -20 -30 4 -3 1 -6 -5 -6 -7 0 -12 -6 -12 -12 0 -7 -9 -24 -20 -38 -22 -28 -26 -45 -8 -34 7 4 8 3 4 -4 -11 -17 -24 -15 -59 12 -18 13 -42 27 -54 30 -14 5 -20 12 -16 21 3 8 9 12 15 9 13 -8 85 40 139 95 149 150 175 163 256 132z m53 -159 c0 -14 -53 -59 -95 -80 -47 -24 -100 -38 -174 -47 -49 -5 -53 -4 -41 9 8 11 31 16 69 17 31 0 65 4 76 9 13 6 0 7 -36 3 -34 -3 -59 -1 -63 5 -10 17 5 43 32 53 22 8 29 6 43 -12 15 -20 20 -22 43 -11 15 6 29 19 32 27 7 16 34 21 34 5 0 -12 -41 -50 -54 -50 -5 0 -6 -3 -3 -6 9 -10 77 44 77 61 0 7 6 16 13 18 20 9 47 8 47 -1z m-500 -26 c0 -24 -16 -33 -88 -49 -26 -6 -52 16 -52 43 0 16 9 20 53 23 28 2 60 4 70 5 12 1 17 -5 17 -22z m-285 -42 c30 -20 31 -30 4 -44 -34 -19 -66 -4 -79 35 -15 46 -5 61 26 41 13 -9 35 -23 49 -32z m145 -43 c0 -14 -5 -18 -20 -14 -23 6 -26 19 -7 26 22 9 27 7 27 -12z m206 -17 c32 -15 95 -74 79 -74 -5 0 -16 6 -24 14 -23 19 -160 58 -188 53 -22 -4 -31 11 -15 27 10 11 111 -3 148 -20z m-268 -31 l20 -28 32 23 c42 32 50 20 12 -18 -26 -26 -38 -30 -84 -30 -51 0 -89 12 -77 25 4 3 18 1 33 -5 15 -5 37 -10 49 -9 24 1 18 4 -24 13 -30 7 -46 35 -27 48 24 15 46 8 66 -19z m479 -50 c34 -24 87 -55 119 -69 55 -24 57 -27 39 -40 -10 -8 -35 -14 -54 -14 -85 0 -234 133 -195 173 8 7 9 7 91 -50z m1293 27 c0 -4 8 -25 17 -46 9 -22 17 -42 17 -46 1 -3 4 -10 9 -14 15 -15 19 -9 -104 -145 -42 -46 -90 -100 -105 -119 -16 -19 -33 -38 -39 -42 -5 -4 -7 -8 -3 -8 3 0 -7 -14 -22 -30 -16 -17 -32 -30 -37 -28 -4 2 -8 23 -8 48 -2 51 -24 130 -37 130 -4 0 -8 7 -8 15 0 7 -8 18 -17 24 -14 8 -15 12 -4 25 19 22 78 20 108 -4 31 -25 56 -19 98 22 27 26 30 35 30 94 0 35 3 64 7 64 4 0 21 20 38 46 26 36 34 43 46 33 8 -6 14 -15 14 -19z m-354 -5 c4 -8 1 -22 -6 -30 -8 -9 -10 -28 -6 -50 13 -65 93 -91 141 -45 14 13 25 21 25 18 0 -4 3 -13 6 -21 15 -40 -78 -63 -136 -34 -52 26 -84 108 -64 161 8 20 33 21 40 1z m-479 -110 c-5 -72 -9 -93 -18 -110 -3 -5 -14 -39 -24 -75 -10 -36 -28 -80 -40 -97 l-22 -33 -13 41 c-9 27 -42 69 -97 127 l-83 86 22 23 c12 13 31 23 42 23 48 0 166 51 166 70 0 6 6 10 14 10 7 0 22 12 32 28 l19 27 3 -25 c2 -13 2 -56 -1 -95z m553 100 c14 -16 4 -55 -14 -55 -30 0 -50 53 -23 63 20 9 24 8 37 -8z m58 -68 c-2 -11 -15 -29 -30 -40 -23 -17 -31 -18 -56 -8 -28 12 -59 57 -47 69 2 3 13 -2 23 -11 26 -24 49 -21 68 8 13 20 19 23 31 14 8 -7 13 -21 11 -32z m-1108 -26 c21 -22 72 -55 112 -74 91 -43 195 -144 235 -227 47 -99 42 -234 -12 -298 -34 -41 -149 -98 -222 -112 -66 -11 -118 -6 -233 25 -30 8 -80 15 -110 15 -55 0 -69 -7 -164 -74 -14 -10 -33 -15 -42 -12 -12 5 0 17 47 49 115 77 119 78 302 46 86 -15 140 -19 182 -14 99 11 199 65 230 125 26 51 16 54 -31 10 -65 -60 -123 -83 -222 -88 -96 -5 -305 23 -322 43 -15 18 -14 163 1 181 6 8 70 46 140 85 71 39 138 83 149 96 22 28 27 82 9 100 -6 6 -9 17 -7 25 7 19 88 -65 88 -91 0 -17 4 -21 19 -16 11 3 22 1 26 -5 3 -6 11 -8 16 -5 5 4 9 1 9 -5 0 -6 5 -8 13 -4 9 6 9 4 -1 -8 -11 -14 -10 -16 6 -11 13 3 25 -3 36 -18 18 -26 21 -43 6 -34 -6 4 -7 -1 -3 -11 5 -13 3 -15 -7 -9 -8 5 -11 3 -8 -5 7 -23 28 -23 28 0 0 12 4 18 10 15 6 -4 8 -16 5 -28 -5 -16 -4 -18 3 -8 6 8 12 9 16 3 3 -6 2 -13 -4 -17 -15 -9 -12 -22 5 -22 8 0 11 5 8 10 -3 5 -1 12 5 16 38 23 -130 202 -255 273 -50 28 -113 89 -113 108 0 18 12 11 50 -29z m-56 -217 c15 -6 11 -34 -5 -34 -4 0 -31 -13 -59 -30 -28 -16 -61 -32 -75 -36 -21 -5 -23 -3 -18 18 14 58 101 104 157 82z m1826 -133 c0 -13 -13 -24 -42 -36 -24 -9 -45 -16 -48 -16 -11 2 -4 36 8 37 6 1 17 2 23 3 5 0 7 5 4 11 -3 6 1 7 9 4 9 -3 16 -1 16 5 0 6 7 11 15 11 8 0 15 -9 15 -19z m-2190 -500 c9 -2 -33 -31 -44 -31 -6 0 -4 5 4 10 10 6 11 10 3 10 -7 0 -13 4 -13 8 0 7 25 8 50 3z m1240 -546 c0 -5 -121 -161 -193 -250 -196 -241 -254 -305 -273 -305 -7 0 -35 -23 -64 -52 -34 -34 -54 -48 -61 -41 -6 6 21 44 82 111 50 56 96 102 101 102 6 0 20 12 32 27 11 16 71 82 131 148 61 66 137 153 169 193 50 62 76 85 76 67z m-996 -117 c-4 -13 -10 -25 -13 -28 -14 -10 -62 -148 -66 -190 -1 -8 -3 -19 -4 -25 -2 -5 -2 -36 -1 -67 1 -53 -11 -77 -22 -45 -13 34 4 178 28 232 10 22 17 45 16 51 -1 6 5 17 13 24 8 7 15 20 15 29 0 18 18 41 33 41 4 0 5 -10 1 -22z m35 -81 c-15 -34 -43 -37 -33 -4 10 32 26 49 36 39 5 -5 4 -20 -3 -35z m-16 -43 c9 -10 -4 -34 -19 -34 -8 0 -14 6 -14 13 0 22 19 35 33 21z m-151 -19 c3 -3 -3 -39 -13 -81 -10 -41 -17 -99 -16 -129 2 -47 0 -55 -16 -55 -16 0 -18 7 -13 71 3 40 9 76 15 82 5 5 7 16 4 23 -3 8 0 21 7 29 6 8 9 18 6 24 -12 19 11 51 26 36z m138 -85 c0 -11 -7 -20 -15 -20 -15 0 -21 21 -8 33 12 13 23 7 23 -13z m490 -330 c0 -25 -29 -38 -41 -19 -6 9 -3 18 8 27 24 17 33 15 33 -8z"/> <path d="M1835 4058 c-32 -25 -50 -65 -60 -130 -7 -49 -6 -52 32 -42 18 5 24 16 29 54 8 59 11 65 50 81 27 12 31 17 23 37 -11 28 -38 28 -74 0z"/> <path d="M1963 4016 c21 -16 9 -29 -13 -15 -44 27 -85 -2 -94 -66 l-6 -40 11 35 c11 38 36 70 52 70 6 0 1 -10 -11 -23 -13 -14 -22 -36 -22 -55 0 -26 5 -35 27 -43 23 -8 30 -6 51 15 l25 24 -29 25 c-16 14 -26 28 -22 32 4 4 17 -3 30 -14 37 -35 99 -10 77 31 -12 22 -41 38 -71 38 -22 -1 -22 -1 -5 -14z"/> <path d="M1979 3872 c-7 -21 -20 -34 -35 -38 -30 -8 -91 3 -100 18 -5 8 0 9 17 4 59 -16 75 -17 94 -1 20 16 20 16 -2 5 -17 -8 -32 -6 -63 6 -44 18 -90 12 -90 -11 0 -20 71 -55 111 -55 62 0 122 61 90 93 -8 8 -14 2 -22 -21z"/> <path d="M1863 3623 c4 -3 -1 -12 -11 -19 -15 -12 -14 -12 8 -7 l25 5 -23 -16 c-12 -10 -27 -14 -32 -11 -6 3 -10 -1 -10 -9 0 -20 9 -20 34 -1 10 8 23 12 29 8 6 -3 7 -1 3 6 -4 6 0 14 9 17 14 6 14 8 -2 20 -18 13 -42 20 -30 7z"/> <path d="M1923 3583 c-7 -3 -13 -11 -13 -19 0 -8 -18 -27 -40 -42 -30 -21 -38 -32 -33 -47 4 -11 7 -29 8 -40 1 -14 8 -19 21 -17 26 5 53 21 36 22 -7 0 -10 4 -7 10 4 6 -1 7 -11 3 -12 -4 -15 -3 -10 5 4 7 1 12 -8 12 -23 0 -20 6 22 44 35 32 37 33 44 15 5 -11 3 -29 -2 -39 -7 -13 -7 -21 0 -25 6 -4 7 -11 4 -17 -4 -6 2 -5 15 2 15 8 20 17 16 30 -3 10 -8 27 -10 37 -11 49 -21 69 -32 66z"/> <path d="M1954 3440 c-12 -12 -5 -92 7 -84 19 11 8 -16 -11 -29 -19 -13 -19 -15 -4 -21 32 -12 44 12 38 73 -7 61 -15 76 -30 61z"/> <path d="M1864 3295 c4 -24 36 -34 36 -11 0 9 -6 16 -12 16 -9 0 -8 3 2 10 12 7 10 9 -7 7 -16 -1 -21 -7 -19 -22z"/> <path d="M1280 2944 c0 -10 44 -43 58 -44 6 0 12 5 12 11 0 5 -4 8 -10 4 -5 -3 -18 3 -30 15 -20 20 -30 25 -30 14z"/> <path d="M1316 2851 c-9 -14 40 -68 52 -57 4 4 -1 12 -11 18 -10 5 -22 19 -26 31 -5 14 -10 17 -15 8z"/> <path d="M1465 2820 c-4 -6 -12 -7 -18 -3 -8 5 -8 2 1 -9 10 -12 10 -18 -2 -28 -9 -6 -20 -9 -26 -5 -14 9 -13 25 3 21 6 -1 9 -1 4 1 -4 3 -4 10 0 16 4 7 -1 6 -10 -2 -21 -17 -21 -25 -1 -46 15 -15 18 -13 39 14 12 17 25 28 29 24 4 -4 4 0 0 10 -7 20 -10 21 -19 7z"/> <path d="M1092 2773 c5 -25 28 -28 28 -4 0 12 -6 21 -16 21 -9 0 -14 -7 -12 -17z"/> <path d="M973 2759 c-18 -18 -16 -34 2 -19 12 10 16 8 23 -11 5 -13 11 -18 15 -12 4 6 -1 21 -11 32 -14 18 -19 20 -29 10z"/> <path d="M1040 2762 c0 -4 6 -20 13 -35 13 -29 34 -38 22 -9 -4 9 -10 25 -12 35 -5 17 -23 24 -23 9z"/> <path d="M1700 4111 c0 -6 -14 -18 -32 -27 -26 -13 -29 -18 -16 -25 9 -5 30 -6 47 -3 34 7 42 33 16 54 -10 8 -15 9 -15 1z"/> <path d="M67 4074 c-13 -13 -7 -40 11 -57 19 -17 32 -14 32 9 0 18 -34 57 -43 48z"/> <path d="M320 3678 c0 -33 27 -58 36 -33 4 10 -1 25 -15 38 l-21 21 0 -26z"/> <path d="M464 3645 c2 -11 7 -37 11 -57 3 -21 10 -38 14 -38 10 0 -5 76 -20 99 -8 13 -9 13 -5 -4z"/> <path d="M320 3533 c0 -39 19 -103 31 -103 19 0 22 32 8 78 -17 53 -39 68 -39 25z"/> <path d="M2709 3073 c-92 -83 -288 -287 -420 -438 -62 -71 -118 -135 -124 -141 -10 -10 -132 -156 -247 -294 -30 -36 -115 -146 -188 -245 -97 -129 -171 -216 -264 -307 -71 -70 -127 -130 -124 -134 10 -9 214 193 312 311 51 60 114 142 141 180 27 39 74 97 104 130 69 75 191 219 250 294 118 153 441 490 512 536 21 13 63 48 95 78 51 48 57 57 45 71 -7 9 -17 16 -21 16 -3 0 -35 -26 -71 -57z"/> <path d="M1925 3030 c102 -7 139 -15 130 -30 -3 -5 0 -12 6 -16 7 -4 9 -3 5 4 -3 5 0 12 6 15 7 2 -1 11 -19 20 -24 13 -56 17 -130 15 l-98 -1 100 -7z"/> <path d="M2092 3016 c4 -5 2 -16 -4 -23 -7 -9 -8 -17 -1 -24 7 -7 14 -5 22 4 9 11 7 19 -6 33 -10 11 -15 15 -11 10z"/> <path d="M1845 3011 c3 -5 -3 -12 -12 -14 -11 -3 -7 -5 10 -6 16 0 26 3 23 7 -2 4 27 7 65 6 38 -1 69 2 69 6 0 5 -36 9 -81 9 -46 0 -78 -3 -74 -8z"/> <path d="M1848 2963 c11 -7 30 -10 51 -6 24 4 32 2 27 -6 -5 -7 -1 -9 8 -5 9 3 29 1 46 -4 38 -14 39 -7 3 12 -16 7 -56 15 -90 18 -51 3 -59 2 -45 -9z"/> <path d="M1845 2879 c3 -4 -14 -10 -37 -12 -42 -3 -42 -4 9 -5 58 -2 90 -11 74 -21 -6 -4 -1 -12 12 -20 21 -13 21 -13 7 4 -14 16 -13 17 6 11 14 -4 21 -2 21 8 0 8 -5 12 -11 10 -6 -2 -28 4 -48 15 -21 10 -35 15 -33 10z"/> <path d="M1875 2805 l30 -14 -35 5 c-28 4 -31 3 -14 -5 12 -5 39 -26 59 -47 27 -27 36 -43 32 -60 -2 -13 0 -25 6 -27 10 -3 -2 -93 -19 -132 -7 -18 -6 -19 8 -5 22 23 29 49 30 125 1 48 -2 69 -13 76 -8 5 -10 9 -5 9 4 0 1 12 -9 26 -9 14 -14 28 -12 31 3 2 17 -13 31 -34 14 -20 26 -32 26 -26 0 18 -51 74 -61 67 -5 -3 -19 2 -31 10 -12 9 -29 16 -38 16 -8 -1 -1 -7 15 -15z"/> <path d="M1665 2795 c-16 -6 -41 -17 -55 -24 l-25 -11 26 5 c140 27 226 12 292 -52 45 -45 50 -30 5 17 -40 41 -84 60 -147 64 -27 2 -53 5 -57 8 -5 2 -22 -1 -39 -7z"/> <path d="M2875 2742 c-67 -32 -152 -79 -189 -106 -71 -50 -406 -376 -406 -394 0 -22 42 3 82 50 24 27 61 66 82 86 22 20 68 64 102 97 34 33 75 72 91 86 30 27 136 99 146 99 3 0 43 17 89 39 46 21 93 41 106 45 15 5 22 15 22 32 0 13 -1 24 -2 24 -2 -1 -57 -27 -123 -58z"/> <path d="M1712 2730 c-88 -10 -89 -20 -2 -20 91 0 125 -19 175 -98 19 -31 35 -51 35 -44 0 7 -12 30 -26 52 -14 21 -23 43 -21 48 10 15 -39 62 -69 66 -16 2 -57 1 -92 -4z"/> <path d="M150 2672 c0 -34 23 -68 38 -58 17 10 15 38 -4 64 -21 30 -34 28 -34 -6z"/> <path d="M1578 2683 c6 -2 10 -9 6 -14 -6 -11 25 -11 81 0 l40 7 -42 5 c-26 3 -39 1 -36 -6 3 -5 0 -4 -8 3 -7 6 -22 12 -33 11 -12 0 -15 -3 -8 -6z"/> <path d="M1986 2645 c4 -27 8 -52 10 -54 9 -10 3 75 -6 89 -7 10 -8 -1 -4 -35z"/> <path d="M1770 2670 c-14 -4 -18 -8 -10 -9 21 -1 100 -53 95 -61 -2 -4 2 -7 10 -7 23 0 0 31 -39 52 -24 13 -31 22 -23 27 15 10 0 9 -33 -2z"/> <path d="M1746 2639 c4 -8 -4 -9 -27 -5 -27 5 -29 4 -12 -3 12 -6 34 -8 50 -7 21 3 33 -4 50 -27 13 -17 23 -27 23 -21 0 17 -58 74 -75 74 -9 0 -13 -5 -9 -11z"/> <path d="M1845 2527 c1 -31 5 -60 9 -64 4 -5 7 3 5 17 -2 14 -1 30 3 35 3 6 1 23 -6 39 -11 27 -12 25 -11 -27z"/> <path d="M1878 2538 c12 -35 20 -44 29 -37 9 8 9 14 -2 27 -8 9 -21 26 -29 37 -12 16 -11 10 2 -27z"/> <path d="M1511 2551 c10 -15 24 -21 50 -21 58 0 119 -62 119 -121 0 -12 3 -19 7 -15 10 10 11 76 1 76 -4 0 -8 7 -8 16 0 13 3 14 14 5 11 -9 16 -9 22 0 4 7 3 9 -3 6 -6 -4 -18 2 -28 13 -10 11 -21 17 -25 15 -11 -7 -40 5 -40 15 0 5 8 11 18 13 15 4 15 5 0 6 -9 0 -20 -3 -23 -9 -3 -5 -25 -9 -48 -9 l-42 2 35 7 35 7 -32 2 c-17 0 -39 4 -48 7 -15 6 -15 4 -4 -15z"/> <path d="M542 2530 c1 -13 9 -25 16 -28 17 -5 15 23 -4 39 -14 11 -15 10 -12 -11z"/> <path d="M326 2447 c-9 -49 11 -99 38 -95 29 4 32 53 6 96 -25 41 -36 41 -44 -1z"/> <path d="M1477 2458 c2 -5 10 -8 17 -8 19 0 75 -59 82 -86 4 -15 13 -24 26 -24 11 0 18 5 15 13 -2 6 -10 11 -16 9 -7 -1 -10 2 -6 8 3 5 -6 26 -21 45 -20 27 -29 33 -35 23 -5 -7 -9 -8 -9 -2 0 5 4 14 10 20 7 7 -3 10 -29 9 -21 0 -37 -3 -34 -7z"/> <path d="M1710 2441 c0 -10 9 -29 21 -42 l20 -24 -5 23 c-13 51 -18 62 -27 62 -5 0 -9 -9 -9 -19z"/> <path d="M1465 2419 c-5 -7 -1 -16 9 -21 10 -6 31 -31 48 -56 19 -29 27 -38 23 -22 -19 63 -66 122 -80 99z"/> <path d="M1430 2384 c38 -33 60 -73 61 -116 1 -27 3 -29 6 -8 3 14 9 29 14 35 5 5 9 14 9 20 0 14 -51 70 -77 83 -38 21 -46 13 -13 -14z"/> <path d="M883 2371 c-13 -11 -23 -26 -23 -34 0 -8 -7 -38 -16 -66 -16 -47 -16 -53 1 -97 21 -56 88 -129 107 -118 9 6 9 2 -2 -12 -8 -10 -11 -16 -6 -12 5 4 18 1 30 -7 29 -21 34 -19 44 18 6 17 13 40 17 50 4 9 3 17 -2 17 -5 0 -10 -6 -10 -13 0 -17 -33 -67 -44 -67 -15 0 -10 36 12 101 23 65 49 121 49 104 0 -5 -9 -34 -20 -63 -26 -67 -25 -89 1 -37 11 22 24 72 29 110 8 64 7 73 -13 102 -23 35 -44 45 -32 16 12 -28 18 -134 9 -143 -5 -5 -8 11 -5 38 2 26 0 44 -3 41 -3 -3 -7 -32 -7 -65 -1 -60 -24 -117 -44 -111 -5 2 -9 15 -8 28 10 114 10 139 2 139 -10 0 -12 -20 -9 -90 1 -25 -1 -42 -4 -39 -4 3 -9 47 -12 97 l-5 91 27 7 28 7 -24 9 c-36 13 -41 -5 -37 -132 2 -90 7 -121 21 -142 29 -44 2 -33 -29 11 -43 63 -55 140 -34 215 8 30 13 36 21 25 8 -11 9 -11 5 2 -3 9 0 22 6 28 18 18 4 12 -20 -8z"/> <path d="M1225 2372 c11 -9 31 -28 44 -42 23 -25 23 -25 11 -2 -6 13 -9 26 -6 29 7 8 52 -88 60 -128 5 -27 1 -49 -16 -85 -12 -27 -24 -53 -26 -59 -3 -5 6 4 19 20 13 17 27 33 31 36 5 3 11 34 14 70 4 55 2 70 -18 103 -13 22 -30 43 -38 47 -22 11 -52 22 -75 25 -20 4 -20 4 0 -14z"/> <path d="M1197 2338 c19 -53 25 -125 12 -133 -11 -8 -12 -55 0 -55 16 0 34 88 27 132 -7 41 -34 98 -47 98 -4 0 0 -19 8 -42z"/> <path d="M1321 2370 c9 -5 22 -23 29 -40 16 -38 24 -33 10 6 -11 29 -27 44 -45 44 -5 -1 -3 -5 6 -10z"/> <path d="M1380 2365 c-9 -10 -9 -15 -1 -15 6 0 11 5 11 10 0 22 20 8 27 -17 9 -38 43 -93 43 -71 0 21 -31 90 -45 100 -15 11 -21 10 -35 -7z"/> <path d="M841 2355 c-1 -5 -15 -26 -31 -45 -26 -31 -30 -42 -29 -92 1 -41 7 -63 21 -78 10 -11 15 -20 11 -20 -4 -1 3 -9 16 -20 12 -11 27 -18 31 -15 5 3 11 1 15 -5 3 -5 1 -10 -5 -10 -6 0 -8 -4 -5 -10 9 -15 25 -12 25 4 0 8 -9 21 -20 29 -11 8 -17 18 -12 23 4 4 -2 2 -12 -6 -14 -11 -18 -11 -12 -2 5 8 1 21 -8 31 -9 10 -19 41 -23 68 -5 43 -2 55 22 91 15 23 25 47 22 54 -3 7 -6 9 -6 3z"/> <path d="M1130 2352 c0 -6 4 -12 9 -12 4 0 14 -27 21 -59 9 -45 10 -67 1 -92 -14 -40 -14 -39 3 -39 18 0 29 27 13 34 -9 3 -9 7 1 14 19 13 -2 120 -28 147 -12 11 -20 14 -20 7z"/> <path d="M1093 2297 c-2 -48 -1 -50 8 -19 9 29 29 37 29 11 0 -6 -4 -7 -10 -4 -6 4 -10 -11 -9 -37 l1 -43 11 30 12 30 6 -40 6 -40 2 43 c1 41 -30 122 -47 122 -4 0 -8 -24 -9 -53z"/> <path d="M1389 2283 c5 -61 8 -57 13 15 2 24 -1 42 -7 42 -6 0 -8 -22 -6 -57z"/> <path d="M1247 2305 c3 -16 10 -33 16 -36 5 -4 5 -14 -2 -27 -14 -25 -14 -43 -1 -22 21 32 -3 -97 -26 -142 -12 -23 -12 -27 -1 -22 15 6 57 83 57 106 0 8 5 19 12 26 8 8 9 12 1 12 -6 0 -15 15 -18 33 -4 17 -16 48 -26 67 -19 35 -19 35 -12 5z"/> <path d="M160 2291 c0 -12 6 -21 16 -21 9 0 14 7 12 17 -5 25 -28 28 -28 4z"/> <path d="M80 2271 c0 -30 11 -51 26 -51 17 0 18 24 4 51 -14 24 -30 25 -30 0z"/> <path d="M400 2226 c0 -34 10 -56 25 -56 21 0 27 31 10 56 -20 31 -35 31 -35 0z"/> <path d="M2960 2231 c-65 -17 -204 -64 -214 -72 -6 -5 -42 -33 -80 -62 -38 -28 -88 -69 -110 -89 -22 -21 -44 -38 -49 -38 -4 0 -5 -4 -2 -10 3 -5 0 -10 -7 -10 -7 0 -28 -18 -47 -40 -19 -22 -42 -40 -50 -39 -11 0 -12 2 -3 6 6 2 12 13 12 24 0 10 5 19 11 19 5 0 8 4 4 9 -3 5 -1 12 5 16 5 3 10 11 10 16 0 17 -109 -115 -245 -296 -70 -93 -132 -173 -136 -176 -5 -3 -25 -32 -44 -64 -31 -51 -34 -60 -21 -73 11 -11 12 -20 4 -38 -6 -13 -9 -26 -6 -29 13 -13 38 13 105 108 258 364 354 478 513 611 137 115 164 131 281 167 85 26 109 38 109 51 0 19 -1 19 -40 9z m-857 -768 c-20 -33 -63 -79 -63 -69 0 23 55 96 72 96 5 0 1 -12 -9 -27z"/> <path d="M1117 2186 c-4 -10 -3 -15 3 -11 6 3 10 1 10 -4 0 -6 -4 -11 -8 -11 -5 0 -22 -25 -38 -55 -16 -31 -30 -51 -32 -46 -2 5 2 19 8 30 7 13 7 21 1 21 -12 0 -33 -69 -25 -82 3 -4 0 -8 -7 -8 -7 0 -10 -3 -7 -6 26 -25 129 138 110 172 -8 15 -10 15 -15 0z"/> <path d="M165 2181 c-4 -8 -1 -19 8 -28 19 -20 30 -1 13 22 -10 14 -15 15 -21 6z"/> <path d="M2924 2136 c-40 -19 -87 -39 -106 -45 -19 -6 -80 -51 -134 -100 -101 -89 -192 -195 -319 -372 -38 -53 -111 -151 -162 -217 -67 -88 -88 -122 -77 -126 7 -3 14 -14 14 -25 0 -10 7 -21 15 -25 8 -3 15 -15 15 -26 0 -11 3 -20 8 -20 6 0 184 293 233 385 50 94 154 221 291 357 92 90 123 114 203 155 77 39 95 52 95 71 0 12 -1 22 -2 22 -2 -1 -35 -16 -74 -34z m-628 -711 c-9 -14 -14 -25 -11 -25 2 0 -4 -15 -15 -32 -11 -18 -28 -49 -38 -68 -20 -41 -55 -48 -60 -13 -3 21 27 65 106 153 12 13 23 29 23 35 1 5 3 2 6 -8 3 -10 -3 -29 -11 -42z"/> <path d="M1220 2130 c-17 -41 -32 -49 -25 -13 5 25 4 26 -4 5 -13 -27 -4 -53 14 -45 14 5 41 71 32 79 -2 3 -10 -9 -17 -26z"/> <path d="M247 2133 c-13 -12 -7 -54 9 -60 25 -10 39 12 26 42 -12 25 -23 31 -35 18z"/> <path d="M1143 2126 c3 -8 2 -16 -2 -18 -5 -2 -11 -14 -15 -28 -3 -14 -3 -19 0 -12 3 6 10 10 15 7 5 -4 6 2 2 11 -4 11 -2 15 4 11 6 -4 14 0 17 9 10 25 7 34 -10 34 -10 0 -14 -6 -11 -14z"/> <path d="M2379 2096 c-19 -13 -43 -26 -54 -30 -22 -7 -276 -328 -365 -460 -30 -45 -83 -116 -117 -158 -33 -41 -80 -103 -104 -138 -23 -34 -48 -64 -55 -67 -7 -2 -15 -16 -18 -29 -4 -14 -11 -22 -16 -19 -5 3 -6 13 -3 23 4 13 2 13 -10 -3 -22 -27 -21 -35 6 -35 21 1 97 62 97 79 0 5 7 15 16 22 9 8 27 30 39 49 12 19 35 49 51 66 16 17 36 44 44 59 8 16 36 51 61 79 25 28 84 103 131 166 96 130 172 223 272 334 38 42 67 78 64 81 -2 2 -20 -6 -39 -19z"/> <path d="M2190 2020 c-40 -49 -79 -91 -86 -94 -8 -3 -14 -11 -14 -17 0 -7 -15 -30 -33 -53 -18 -23 -55 -72 -82 -111 -67 -94 -244 -333 -275 -369 -14 -16 -56 -65 -94 -108 -51 -58 -66 -82 -58 -90 9 -9 26 3 67 45 38 39 55 52 55 40 0 -10 9 0 21 22 34 63 94 146 313 431 81 105 233 292 256 314 3 3 18 20 34 37 23 26 25 31 10 29 -11 -2 -24 0 -30 5 -7 6 -37 -23 -84 -81z"/> <path d="M2420 2080 c-269 -329 -352 -437 -440 -572 -34 -54 -66 -96 -70 -93 -4 3 -10 -9 -14 -26 -6 -31 -52 -105 -81 -129 -14 -12 -15 -9 -10 31 5 38 4 41 -6 19 -6 -14 -17 -38 -25 -53 -13 -26 -12 -28 10 -37 13 -5 31 -18 39 -30 20 -29 48 -17 41 19 -6 29 44 145 65 153 6 1 23 22 38 44 60 90 279 370 354 454 54 60 79 96 76 107 -4 17 -5 17 -6 0 0 -10 -5 -16 -10 -13 -11 7 -3 46 9 46 13 0 52 68 48 84 -2 11 -6 10 -18 -4z"/> <path d="M578 2068 c-6 -37 6 -83 23 -86 24 -4 30 23 16 65 -14 43 -33 53 -39 21z"/> <path d="M2937 2050 c-184 -93 -357 -277 -563 -598 -32 -51 -94 -146 -136 -211 -43 -65 -78 -126 -78 -135 0 -23 42 -38 53 -19 6 10 18 12 36 8 19 -4 32 -1 41 10 16 19 39 19 65 -1 17 -13 21 -27 24 -86 1 -10 7 -15 14 -13 20 8 39 -11 35 -36 -5 -41 43 -74 69 -48 9 9 18 8 37 -5 39 -25 34 6 -5 37 -33 26 -32 53 2 44 11 -3 19 -1 19 4 0 5 -11 11 -24 15 -36 9 -39 38 -5 63 15 11 35 18 43 15 29 -11 17 15 -14 31 -16 9 -30 19 -30 24 0 18 39 43 58 37 15 -5 22 1 32 25 8 17 27 37 45 46 28 14 34 13 66 -4 18 -11 35 -28 37 -39 7 -45 12 -48 37 -24 22 20 25 21 31 6 9 -22 24 -20 24 4 0 28 42 53 75 44 19 -5 26 -3 21 4 -9 15 14 26 27 13 17 -17 27 -13 27 9 0 11 -6 20 -13 20 -7 0 -22 6 -32 14 -18 13 -18 14 0 42 26 39 25 53 -7 85 -16 15 -28 37 -28 48 0 22 46 52 68 44 7 -3 12 4 12 16 0 39 -71 18 -95 -28 -20 -40 -19 -57 6 -92 17 -25 19 -34 10 -62 -6 -17 -9 -42 -7 -54 4 -19 -1 -24 -34 -33 -22 -6 -42 -15 -45 -20 -9 -15 -42 -12 -59 5 -8 8 -19 15 -25 15 -6 0 -11 4 -11 9 0 14 -71 24 -83 12 -6 -6 -17 -11 -23 -11 -7 0 -26 -12 -41 -27 -16 -16 -44 -39 -61 -53 -30 -24 -52 -80 -31 -80 6 0 1 -12 -10 -26 -12 -15 -21 -41 -21 -61 l0 -34 -31 23 c-19 15 -29 29 -26 40 3 10 0 18 -6 18 -6 0 -8 3 -4 6 8 9 -42 53 -68 60 -11 3 -33 0 -49 -5 -65 -25 -83 -5 -45 54 10 17 22 37 26 45 7 16 62 98 76 115 37 45 161 230 159 237 -1 5 2 7 7 3 6 -3 15 5 22 17 27 52 133 182 204 251 49 47 207 155 241 163 17 4 24 13 24 30 0 13 -1 24 -2 24 -2 0 -29 -14 -61 -30z"/> <path d="M37 2031 c-5 -20 9 -51 23 -51 11 0 13 30 4 54 -8 21 -21 20 -27 -3z"/> <path d="M117 2043 c-13 -13 -7 -61 9 -67 21 -8 21 -8 28 9 6 18 -9 65 -22 65 -5 0 -12 -3 -15 -7z"/> <path d="M424 1946 c-9 -38 -1 -61 23 -64 26 -4 38 25 24 62 -13 33 -39 34 -47 2z"/> <path d="M2955 1853 c-42 -21 -115 -94 -108 -106 3 -6 2 -7 -4 -4 -15 9 -151 -149 -169 -198 -14 -35 17 -10 75 60 73 88 191 204 226 223 14 7 25 19 25 27 0 19 -7 18 -45 -2z"/> <path d="M2918 1750 c-58 -44 -225 -229 -237 -263 -7 -18 78 53 107 90 56 72 135 143 185 165 18 9 27 21 27 35 0 13 -3 23 -7 23 -5 0 -38 -23 -75 -50z"/> <path d="M302 1699 c1 -13 8 -23 13 -21 15 3 12 35 -3 40 -9 3 -13 -3 -10 -19z"/> <path d="M378 1645 c-8 -18 -8 -29 -1 -36 17 -17 33 -1 33 32 0 36 -16 38 -32 4z"/> <path d="M1123 882 c-6 -4 -14 -19 -18 -33 -5 -21 -2 -30 16 -43 21 -14 24 -14 46 10 28 31 28 32 1 55 -23 21 -28 22 -45 11z m35 -40 c2 -14 -2 -22 -11 -22 -17 0 -30 27 -21 41 9 16 29 4 32 -19z"/> <path d="M184 572 c-12 -9 -31 -24 -44 -32 -32 -22 -42 -45 -30 -74 9 -25 67 -69 80 -61 4 2 6 -15 6 -40 -1 -32 5 -50 22 -67 12 -14 22 -34 22 -45 0 -32 11 -54 23 -46 6 3 7 1 3 -5 -4 -6 0 -27 8 -46 19 -44 96 -85 168 -87 27 -1 51 -6 54 -11 3 -4 14 -8 24 -8 18 0 21 -14 7 -36 -4 -8 11 -7 51 2 31 8 65 11 75 8 23 -7 22 9 -4 32 -16 15 -24 16 -39 6 -26 -16 -44 -7 -59 31 l-12 32 -10 -25 c-10 -24 -11 -24 -24 -7 -10 13 -20 17 -36 12 -14 -5 -25 -2 -30 6 -7 12 -12 12 -29 1 -17 -11 -23 -10 -37 3 -8 9 -29 19 -45 22 -36 7 -31 29 6 26 36 -3 29 21 -7 25 -19 2 -27 9 -27 23 0 10 4 19 8 19 5 0 15 6 23 12 8 7 13 12 11 11 -2 0 -15 5 -29 12 -15 8 -30 12 -35 9 -13 -8 -9 21 5 35 10 11 6 13 -21 8 -31 -6 -32 -5 -21 14 8 16 8 20 0 14 -7 -4 -19 -4 -29 0 -14 5 -12 8 8 18 28 14 37 54 20 87 -14 26 -30 26 -37 0 -5 -20 -23 -28 -23 -10 0 6 -9 10 -21 10 -14 0 -19 5 -16 14 3 8 1 16 -5 18 -6 2 -8 10 -4 16 11 17 66 15 72 -3 4 -9 13 -13 24 -10 9 3 23 -1 30 -10 7 -8 25 -15 41 -15 15 0 40 -5 54 -10 23 -9 25 -13 15 -25 -10 -12 -10 -18 -1 -29 13 -16 9 -20 -31 -30 -25 -6 -28 -4 -28 18 0 33 -16 42 -30 16 -7 -13 -7 -20 0 -20 5 0 10 -9 10 -20 0 -10 9 -24 20 -30 11 -6 20 -17 20 -24 0 -22 72 -28 115 -10 28 11 40 12 51 3 8 -6 14 -8 14 -4 0 4 7 2 15 -5 9 -7 15 -29 15 -53 0 -39 0 -40 20 -22 19 17 20 16 47 -16 15 -18 33 -39 38 -46 12 -16 49 -6 40 11 -3 6 -8 19 -11 29 -4 9 -14 18 -23 19 -9 0 -20 2 -26 3 -5 2 -14 3 -20 4 -7 1 -6 4 0 9 6 4 18 18 27 32 8 14 32 34 53 45 36 19 37 19 51 0 8 -10 14 -15 14 -10 0 5 15 -5 33 -23 22 -22 39 -30 53 -26 27 7 58 60 48 82 -4 9 -8 23 -10 30 -7 34 -14 39 -49 37 -21 -1 -41 -8 -45 -16 -7 -10 -12 -6 -21 13 -10 24 -8 29 20 57 17 17 31 37 31 46 0 23 17 18 24 -7 l6 -23 19 23 c12 13 25 20 35 16 19 -7 11 -24 -12 -24 -12 0 -17 -9 -18 -33 0 -27 5 -37 29 -51 21 -12 28 -22 24 -36 -7 -26 -1 -25 14 1 9 17 7 23 -10 36 -22 15 -29 70 -12 88 6 6 4 17 -5 30 -12 16 -18 18 -34 7 -24 -15 -33 -15 -25 -2 3 6 -4 10 -16 10 -26 0 -97 -72 -106 -108 -5 -20 0 -30 26 -51 18 -15 29 -30 25 -34 -8 -8 -54 2 -71 15 -13 10 -28 -7 -18 -22 3 -6 0 -10 -8 -10 -8 0 -28 -15 -44 -33 -42 -48 -55 -50 -74 -12 -17 32 -17 32 7 27 19 -3 24 0 24 17 0 18 -3 20 -19 12 -12 -7 -31 -7 -56 0 -27 8 -51 7 -83 -1 -52 -13 -75 -1 -49 24 8 9 18 29 22 46 11 50 -31 86 -119 104 -5 1 -14 20 -21 42 -8 31 -16 40 -35 41 -14 2 -35 -5 -46 -15z m51 -23 c8 -25 1 -34 -20 -26 -19 8 -20 47 -1 47 8 0 18 -9 21 -21z m610 -219 c0 -22 -29 -18 -33 3 -3 14 1 18 15 15 10 -2 18 -10 18 -18z m0 -50 c-7 -12 -55 1 -55 16 0 10 6 11 30 3 16 -6 28 -14 25 -19z"/> <path d="M910 460 c0 -12 42 -31 50 -23 6 5 -30 33 -42 33 -4 0 -8 -5 -8 -10z"/> <path d="M2975 412 c16 -11 15 -41 -1 -35 -21 8 -17 -11 6 -25 19 -11 20 -10 20 28 0 31 -4 40 -17 40 -10 0 -14 -4 -8 -8z"/> <path d="M2827 382 c-10 -11 -14 -26 -10 -40 3 -12 1 -22 -3 -22 -14 -1 -57 -40 -51 -46 3 -3 18 6 34 20 15 14 34 24 41 21 8 -3 25 -5 38 -5 13 0 24 -5 24 -11 0 -6 -7 -8 -16 -5 -25 9 -75 -25 -68 -46 4 -13 0 -18 -14 -18 -25 0 -35 -25 -16 -40 17 -15 18 -30 3 -30 -6 0 -13 9 -16 20 -5 20 -33 29 -33 10 0 -20 -2 -25 -13 -39 -10 -12 -9 -12 10 -3 25 14 43 15 43 5 -1 -13 -81 -64 -91 -58 -5 4 -9 2 -9 -3 0 -12 -50 -62 -61 -62 -5 0 -6 7 -2 16 5 14 1 16 -18 12 -13 -3 -33 -9 -43 -13 -16 -7 -18 -5 -13 8 3 9 2 17 -3 17 -6 0 -10 -7 -10 -16 0 -9 -10 -24 -22 -35 l-23 -18 28 -1 c16 0 38 5 49 11 15 8 26 8 43 -1 20 -10 28 -9 56 11 19 13 36 26 39 30 3 3 22 15 42 28 49 29 78 67 78 100 0 30 60 101 85 101 9 0 13 4 10 10 -4 7 3 7 20 0 46 -17 65 -13 65 15 0 23 -2 24 -20 13 -17 -11 -22 -10 -29 1 -5 8 -7 20 -4 27 6 17 -16 29 -30 15 -18 -18 -34 -13 -41 14 -7 29 -26 32 -49 7z"/> <path d="M1983 323 c-7 -2 -9 -12 -6 -21 5 -13 3 -15 -7 -5 -10 9 -18 8 -36 -4 -29 -19 -31 -43 -3 -43 13 0 18 4 13 12 -5 8 -2 9 11 4 11 -4 21 -2 26 5 4 7 13 -2 24 -24 9 -20 24 -42 32 -49 17 -14 17 -16 -3 52 -3 13 -13 30 -20 38 -8 7 -14 19 -14 25 0 7 4 6 10 -3 5 -8 10 -11 10 -6 0 5 7 3 15 -4 9 -7 14 -18 12 -24 -2 -6 9 -24 25 -41 15 -16 26 -35 24 -42 -3 -6 3 -17 12 -25 11 -9 14 -10 8 0 -9 15 4 15 25 -1 9 -7 14 -17 12 -24 -2 -6 1 -14 7 -18 27 -17 -1 41 -48 97 -28 35 -57 70 -64 79 -14 19 -47 30 -65 22z"/> <path d="M1860 236 c-6 -8 -21 -16 -33 -18 -38 -5 -32 -35 12 -56 42 -21 58 -12 44 25 -5 12 -3 14 8 8 11 -6 12 -5 2 6 -24 24 -15 39 20 34 28 -4 29 -4 7 4 -37 13 -46 13 -60 -3z"/> <path d="M1397 233 c-12 -11 -8 -21 12 -26 24 -6 36 19 15 27 -19 7 -19 7 -27 -1z"/> <path d="M445 210 c-11 -18 5 -31 26 -20 11 6 17 15 14 21 -8 12 -32 12 -40 -1z"/> <path d="M1930 214 c0 -18 42 -93 64 -113 38 -36 32 -8 -14 60 -38 54 -50 68 -50 53z"/> <path d="M790 185 c0 -30 10 -32 32 -6 18 21 14 31 -14 31 -13 0 -18 -7 -18 -25z"/> <path d="M2605 198 c-11 -6 -21 -11 -21 -12 -1 -1 -5 -11 -8 -23 -6 -19 -3 -23 13 -23 12 0 21 -4 21 -10 0 -15 46 -12 59 4 10 11 9 21 -4 45 -17 33 -28 37 -60 19z"/> <path d="M767 144 c-9 -9 44 -54 64 -54 9 0 26 -3 36 -7 16 -6 16 -5 5 10 -8 8 -20 13 -28 10 -9 -3 -14 1 -14 12 0 9 -4 13 -10 10 -5 -3 -10 1 -10 9 0 15 -30 22 -43 10z"/> <path d="M2060 106 c16 -24 37 -49 47 -57 16 -12 17 -12 6 1 -6 8 -12 20 -13 25 -3 11 -57 75 -64 75 -3 0 8 -20 24 -44z"/> <path d="M1702 118 c-15 -19 -33 -90 -20 -82 6 4 14 0 19 -7 6 -9 9 -10 9 -2 0 6 -4 14 -9 18 -5 3 1 16 15 30 13 13 24 31 24 40 0 18 -24 20 -38 3z"/> <path d="M1901 83 c44 -48 47 -58 22 -72 -13 -8 14 -10 97 -11 62 0 110 3 105 8 -6 4 -27 23 -49 42 l-39 35 6 -32 c8 -43 -11 -43 -38 -1 -27 43 -43 46 -37 8 5 -34 -12 -41 -28 -11 -7 14 -7 20 2 23 14 5 2 58 -13 58 -7 0 -9 -10 -4 -27 6 -27 6 -27 -14 -9 -11 10 -18 22 -16 27 3 4 -3 7 -14 6 -17 -1 -14 -7 20 -44z"/> <path d="M2180 116 c0 -7 7 -19 16 -27 8 -7 24 -30 35 -51 11 -22 27 -38 37 -38 14 0 15 2 2 10 -8 5 -16 18 -16 29 -1 20 -52 89 -66 90 -5 1 -8 -5 -8 -13z"/> <path d="M1645 78 c-34 -20 -57 -58 -35 -58 6 0 10 6 10 14 0 8 4 17 9 20 5 4 7 -3 4 -14 -5 -21 11 -28 22 -10 3 6 2 10 -3 10 -5 0 -9 7 -9 15 0 8 6 15 14 15 7 0 13 5 13 10 0 12 0 12 -25 -2z"/> <path d="M1006 61 c-25 -28 -28 -57 -5 -58 10 -1 21 2 24 8 4 5 -4 9 -16 9 -20 0 -21 2 -7 18 32 37 36 59 4 23z"/> <path d="M880 56 c0 -8 -8 -17 -17 -20 -15 -6 -15 -8 0 -23 9 -9 18 -15 21 -12 9 9 14 69 5 69 -5 0 -9 -6 -9 -14z"/> <path d="M1750 62 c0 -4 13 -13 30 -19 28 -10 29 -10 20 8 -10 18 -50 27 -50 11z"/> <path d="M1840 25 c0 -21 5 -25 32 -25 l31 0 -23 25 c-13 14 -27 25 -32 25 -4 0 -8 -11 -8 -25z"/> </g> </svg> 