<?xml version="1.0" standalone="no"?>
<!DOCTYPE svg PUBLIC "-//W3C//DTD SVG 20010904//EN"
 "http://www.w3.org/TR/2001/REC-SVG-20010904/DTD/svg10.dtd">
<svg version="1.0" xmlns="http://www.w3.org/2000/svg"
 width="300.000000pt" height="361.000000pt" viewBox="0 0 300.000000 361.000000"
 preserveAspectRatio="xMidYMid meet">
<metadata>
Created by potrace 1.10, written by Peter Selinger 2001-2011
</metadata>
<g transform="translate(0.000000,361.000000) scale(0.100000,-0.100000)"
fill="#000000" stroke="none">
<path d="M1320 3440 c-11 -11 -20 -26 -20 -34 0 -20 -27 -27 -40 -10 -16 18
-41 18 -65 0 -18 -13 -18 -17 -5 -57 16 -49 15 -77 -6 -100 -8 -8 -14 -21 -14
-27 0 -6 -14 -27 -31 -46 -36 -41 -56 -103 -40 -119 6 -6 11 -18 11 -26 0 -9
11 -29 24 -46 19 -23 22 -34 14 -49 -6 -11 -7 -44 -3 -81 6 -58 5 -64 -17 -79
-22 -16 -24 -16 -38 5 -8 12 -28 35 -43 52 -24 26 -33 29 -68 24 -45 -6 -67
-21 -80 -54 -7 -20 -16 -23 -57 -23 -68 0 -92 -27 -92 -101 0 -30 -5 -60 -12
-67 -21 -21 7 -14 36 9 25 20 26 22 11 39 -43 48 14 116 73 88 29 -14 43 -61
23 -81 -16 -16 -14 -23 14 -35 l25 -12 0 88 c0 106 11 126 65 126 41 0 65 -22
65 -61 0 -14 6 -23 15 -23 8 0 15 -9 15 -20 0 -12 -7 -20 -16 -20 -14 0 -16
-12 -13 -85 4 -83 3 -85 -18 -85 -22 0 -23 3 -23 91 0 88 -1 90 -22 87 -22 -3
-23 -7 -23 -91 0 -84 -1 -87 -22 -87 -18 0 -23 6 -23 25 0 31 -10 32 -39 1
-21 -23 -81 -41 -81 -25 0 4 17 21 37 38 30 25 34 31 20 37 -10 3 -28 -1 -42
-10 -13 -9 -35 -16 -48 -16 -25 0 -25 0 7 -34 l31 -35 83 3 c45 1 85 5 88 9 4
3 15 2 26 -4 11 -6 30 -8 43 -5 26 7 31 24 39 120 2 26 9 53 15 59 14 14 44
-11 36 -32 -24 -60 -6 -133 37 -147 29 -9 75 -6 99 6 13 7 24 7 38 -2 16 -10
25 -9 45 1 33 18 167 20 184 4 18 -17 47 -16 61 1 7 8 17 59 22 113 10 96 10
98 -13 115 -13 10 -34 27 -47 37 l-24 19 26 75 c16 44 27 96 27 126 0 31 8 67
19 89 28 56 33 116 20 222 -9 71 -14 88 -19 69 -4 -15 -3 -51 2 -80 13 -69 6
-136 -17 -180 -11 -20 -21 -67 -25 -116 -5 -64 -13 -95 -37 -143 l-32 -60 21
-19 c24 -23 15 -45 -14 -35 -23 7 -58 40 -58 54 0 6 -13 10 -30 10 -32 0 -52
23 -65 75 l-8 30 -10 -27 c-13 -33 -18 -34 -35 -7 -11 17 -11 23 0 37 8 9 8
13 1 9 -16 -10 -58 -86 -73 -132 -16 -52 -25 -61 -44 -46 -12 10 -13 18 -5 33
8 15 7 28 -5 53 -15 32 -15 36 4 74 12 22 28 45 36 52 8 6 14 18 14 25 0 12
-6 12 -36 -1 -44 -18 -54 -13 -54 26 0 16 -4 29 -10 29 -15 0 -12 43 6 68 22
32 49 27 74 -14 23 -36 33 -36 45 4 5 17 2 22 -13 22 -11 0 -30 8 -42 18 -18
15 -20 21 -11 44 6 15 20 37 31 48 25 25 21 64 -12 105 -23 30 -23 31 15 40
23 6 27 4 27 -14 0 -23 36 -65 49 -57 5 3 11 24 15 47 8 51 22 79 41 79 16 0
54 -58 53 -80 -3 -41 3 -70 17 -84 8 -8 15 -21 15 -30 0 -31 23 -64 56 -80 45
-21 54 -20 54 5 0 15 -5 19 -15 15 -20 -7 -53 28 -77 84 -18 41 -24 65 -27
112 -1 21 -58 78 -77 78 -8 0 -23 -9 -34 -20z m29 -609 c11 -11 29 -24 40 -31
38 -20 22 -30 -48 -30 -60 0 -70 3 -76 19 -8 27 15 61 42 61 13 0 32 -9 42
-19z m269 -113 c2 -11 -3 -18 -12 -18 -13 0 -16 -14 -16 -85 l0 -85 -26 0
c-26 0 -27 1 -21 50 5 45 4 50 -13 50 -13 0 -20 -7 -20 -18 0 -30 -29 -62 -56
-62 -43 0 -64 17 -64 53 0 41 15 57 53 57 23 0 28 4 25 20 -2 12 -6 21 -10 20
-5 0 -30 0 -58 0 l-50 0 0 -85 c0 -78 -2 -85 -20 -85 -17 0 -19 8 -22 87 -2
71 -6 88 -19 91 -11 2 -18 -7 -23 -29 -8 -40 -23 -59 -47 -59 -14 0 -19 -7
-19 -25 0 -16 6 -25 15 -25 8 0 15 7 15 16 0 10 7 14 23 12 16 -2 21 -9 19
-23 -6 -32 -22 -45 -58 -45 -42 0 -64 30 -64 88 0 37 3 43 16 38 27 -10 54 3
54 27 0 20 -4 22 -45 19 -40 -4 -45 -2 -45 17 0 21 1 21 242 19 222 -3 243 -4
246 -20z"/>
<path d="M1510 2685 c0 -20 4 -26 18 -23 9 2 17 12 17 23 0 11 -8 21 -17 23
-14 3 -18 -3 -18 -23z"/>
<path d="M1433 2615 c-3 -9 -3 -18 0 -22 10 -10 37 6 37 22 0 20 -29 20 -37 0z"/>
<path d="M1578 3398 c-1 -7 -2 -49 -3 -93 0 -44 -4 -97 -9 -118 -7 -32 -6 -36
8 -31 20 7 30 62 22 111 -11 58 -11 85 -3 116 5 16 3 27 -3 27 -5 0 -11 -6
-12 -12z"/>
<path d="M1241 3191 c-10 -7 -8 -12 10 -25 16 -11 25 -13 28 -5 5 17 -22 39
-38 30z"/>
<path d="M1390 3160 c0 -11 5 -20 10 -20 6 0 10 -9 10 -20 0 -21 44 -185 65
-240 l13 -35 7 40 c19 116 37 191 49 210 14 21 12 21 -32 24 -37 2 -54 9 -77
32 -36 34 -45 36 -45 9z m109 -82 c5 -13 7 -34 5 -48 -1 -14 -3 -33 -3 -43 -1
-10 -6 -17 -13 -15 -14 5 -41 95 -34 114 8 22 36 16 45 -8z"/>
<path d="M1536 3028 c-3 -13 -10 -48 -16 -78 -6 -30 -13 -66 -16 -80 -4 -18 1
-15 17 15 13 23 24 65 27 102 5 61 -3 86 -12 41z"/>
<path d="M967 2784 c-4 -4 -7 -16 -7 -26 0 -13 7 -18 26 -18 21 0 25 4 22 22
-3 23 -27 35 -41 22z"/>
<path d="M407 2770 c-163 -5 -180 -7 -193 -25 -8 -11 -11 -26 -8 -35 4 -8 10
-41 13 -73 5 -38 13 -64 26 -76 23 -21 81 -35 90 -21 10 16 34 11 55 -10 26
-26 52 -25 75 0 12 13 25 18 34 14 9 -4 36 -11 61 -16 25 -5 57 -11 71 -14 39
-9 59 26 59 101 0 36 6 69 14 80 10 14 11 25 3 42 -16 36 -51 40 -300 33z
m283 -50 c0 -11 -7 -20 -15 -20 -12 0 -15 -16 -15 -85 0 -85 0 -85 -26 -85
-21 0 -24 3 -19 21 6 18 4 20 -17 13 -55 -19 -100 3 -113 56 -5 20 -1 27 17
35 13 6 24 19 26 30 2 17 -3 20 -38 20 l-40 0 0 -87 c0 -87 0 -88 -25 -88 -23
0 -25 3 -25 50 0 59 -17 66 -40 17 -31 -66 -120 -38 -120 38 0 31 3 35 25 35
22 0 25 -4 25 -36 0 -28 3 -35 18 -32 12 2 17 13 17 36 0 30 2 32 37 32 30 0
38 4 38 18 0 15 -10 17 -90 14 -86 -4 -90 -3 -90 17 0 21 3 21 235 21 228 0
235 -1 235 -20z"/>
<path d="M577 2704 c-4 -4 -7 -18 -7 -30 0 -13 -10 -30 -22 -39 -23 -16 -23
-16 -4 -30 28 -21 43 -19 61 9 20 30 16 90 -5 94 -9 1 -19 0 -23 -4z"/>
<path d="M814 2696 c-7 -19 3 -36 22 -36 10 0 14 8 12 22 -4 26 -26 36 -34 14z"/>
<path d="M2384 2547 c-11 -5 -32 -22 -49 -37 -42 -38 -106 -53 -217 -49 -86 4
-98 7 -132 33 -38 28 -38 28 -34 5 7 -54 193 -78 339 -42 61 14 69 19 69 40 0
25 10 29 28 11 9 -9 12 -7 12 13 1 23 1 23 15 5 15 -20 15 -20 16 0 0 18 1 18
8 -1 7 -17 1 -24 -43 -47 -121 -64 -327 -77 -417 -26 -32 17 -44 30 -43 46 1
30 -2 28 -21 -12 -13 -27 -14 -39 -6 -55 25 -46 106 -71 231 -71 221 0 369 79
319 169 -16 28 -45 35 -75 18z m76 -66 c0 -19 -81 -62 -154 -81 -94 -24 -231
-26 -301 -6 -46 14 -95 50 -95 69 0 6 10 1 23 -10 42 -38 71 -47 182 -51 91
-4 124 -1 191 17 44 12 93 33 110 46 31 26 44 31 44 16z"/>
<path d="M1800 2238 c-56 -32 -68 -48 -100 -138 -45 -129 -41 -279 8 -281 14
0 14 -2 -3 -9 -11 -5 -17 -9 -13 -9 4 -1 0 -17 -8 -36 -19 -46 -18 -181 2
-258 9 -34 31 -96 51 -138 34 -74 34 -78 19 -108 -9 -17 -21 -31 -27 -31 -5 0
-29 -9 -51 -20 -23 -11 -48 -20 -55 -20 -7 0 -13 -4 -13 -8 0 -5 -6 -9 -14 -9
-11 0 -15 28 -18 126 -4 108 -9 135 -31 190 -19 45 -27 80 -25 115 4 119 -54
264 -130 322 -50 38 -68 43 -53 17 9 -18 11 -25 11 -44 0 -5 10 -9 22 -7 25 3
52 -38 93 -142 l24 -60 -28 0 c-51 0 -91 -65 -91 -148 0 -40 8 -59 50 -122 27
-41 50 -82 50 -91 0 -9 -11 -28 -25 -43 -14 -15 -25 -31 -25 -37 0 -5 14 6 30
24 17 19 30 43 30 53 0 11 -16 43 -35 71 -19 29 -35 56 -35 61 0 5 -7 16 -16
23 -24 20 -13 113 17 145 23 24 73 46 83 37 3 -4 6 -21 6 -40 0 -30 -3 -33
-23 -28 -29 8 -67 -27 -67 -61 0 -14 4 -22 10 -19 6 3 7 -1 4 -9 -3 -9 -1 -16
4 -16 19 0 42 31 42 57 0 47 23 17 47 -63 39 -128 41 -240 7 -356 -5 -16 -3
-16 33 -2 21 8 66 29 100 45 68 32 89 35 116 15 20 -16 21 -26 5 -61 -16 -36
-51 -30 -60 10 l-7 30 2 -30 c1 -20 -7 -39 -21 -53 -22 -22 -31 -82 -12 -82 5
0 -2 -11 -15 -25 -27 -26 -32 -54 -13 -73 9 -9 8 -15 -5 -24 -26 -20 -32 -71
-12 -92 17 -16 17 -18 -4 -32 -22 -16 -28 -58 -11 -84 6 -10 4 -21 -8 -34 -17
-20 -17 -20 10 -3 26 16 28 16 38 -3 13 -23 6 -52 -15 -70 -12 -10 -17 -6 -29
22 -11 25 -15 28 -15 13 -1 -19 86 -146 109 -160 5 -3 3 13 -5 36 -8 23 -15
50 -15 60 0 22 -11 24 -28 7 -8 -8 -12 -8 -12 -1 0 6 7 17 16 24 12 9 15 24
11 51 -4 30 -1 40 13 48 27 14 34 46 17 79 -14 27 -13 31 4 47 20 18 26 69 9
79 -5 3 0 15 11 26 16 16 20 29 16 56 -5 26 -1 39 14 54 21 21 26 64 8 75 -8
5 -6 10 5 16 9 5 29 35 43 66 l25 57 14 -80 c8 -44 26 -111 40 -150 14 -38 30
-84 35 -102 5 -18 14 -35 19 -38 6 -4 10 -15 10 -26 0 -11 13 -40 30 -64 16
-24 30 -48 30 -53 0 -5 6 -15 13 -21 8 -6 40 -50 72 -97 32 -47 90 -121 130
-163 162 -169 165 -175 128 -193 -15 -7 -32 -26 -38 -42 -8 -24 -6 -31 14 -47
13 -10 34 -19 47 -19 30 0 64 33 64 61 0 16 24 -1 109 -80 59 -56 113 -101
120 -101 6 0 -41 47 -105 105 -64 58 -120 105 -125 105 -5 0 -9 5 -9 10 0 6 9
10 20 10 28 0 48 45 32 71 -16 25 -15 29 6 29 23 0 52 30 52 54 0 9 -5 26 -10
37 -9 16 -7 19 8 19 43 0 57 55 22 90 -20 20 -20 20 5 20 15 0 31 9 41 25 15
23 15 27 0 50 -13 20 -14 25 -3 25 19 0 47 33 47 55 0 10 -7 27 -17 37 -14 16
-14 18 0 18 39 0 61 55 33 83 -13 12 -12 16 8 25 32 14 38 47 14 77 -16 21
-17 25 -4 25 9 0 23 12 32 26 16 24 16 28 1 53 -15 25 -15 28 4 39 23 15 26
64 4 82 -13 11 -14 10 -9 -4 4 -9 1 -16 -6 -16 -9 0 -10 -3 -1 -13 14 -17 4
-27 -25 -27 -31 0 -38 16 -24 51 8 18 20 29 34 30 20 1 20 2 1 6 -29 7 -57 35
-51 50 3 7 0 13 -6 13 -7 0 -22 10 -35 22 -13 12 -23 17 -23 11 0 -16 61 -103
72 -103 6 0 3 -9 -7 -20 -12 -13 -16 -30 -13 -56 3 -27 -1 -43 -14 -56 -21
-21 -24 -66 -4 -74 11 -4 8 -11 -10 -29 -27 -27 -30 -43 -11 -69 12 -16 10
-22 -10 -42 -24 -24 -30 -58 -13 -69 6 -4 0 -15 -16 -27 -21 -17 -25 -28 -22
-54 2 -19 1 -34 -3 -34 -29 0 -54 -80 -30 -95 5 -3 -2 -17 -16 -31 -21 -21
-24 -32 -20 -60 4 -24 2 -34 -7 -34 -7 0 -21 -9 -31 -21 -16 -16 -17 -25 -9
-48 10 -25 8 -29 -18 -44 -15 -9 -28 -24 -28 -34 -1 -17 -1 -17 -14 0 -8 10
-50 60 -94 110 -233 267 -393 565 -407 761 -3 40 -14 68 -49 125 -74 120 -107
225 -113 362 -4 77 -2 118 5 123 6 3 13 -7 17 -25 5 -20 16 -34 32 -40 34 -12
41 -4 11 12 -42 22 -50 52 -18 69 19 10 20 9 14 -15 -13 -52 42 -75 72 -30 16
24 15 27 -1 45 -18 20 -73 42 -110 44 -19 1 -20 7 -19 96 1 72 7 110 25 160
33 90 52 114 82 107 21 -6 23 -4 19 23 -6 42 2 37 27 -15 12 -25 28 -45 36
-45 9 0 18 -7 21 -15 4 -8 12 -15 20 -15 8 0 11 -6 8 -15 -7 -17 21 -21 31 -5
7 12 71 40 89 40 6 0 3 -5 -6 -11 -10 -5 -18 -14 -18 -19 0 -10 69 8 90 24 13
10 13 9 0 -8 -14 -18 -13 -19 30 -13 25 4 68 9 95 12 28 3 64 8 80 11 l30 7
-30 8 c-39 11 -325 10 -345 -1 -19 -10 -46 6 -103 63 -21 20 -41 37 -45 36 -4
0 -23 -9 -42 -21z m23 -997 c6 -22 -9 -51 -27 -51 -21 0 -38 27 -31 50 8 26
51 27 58 1z m879 -200 c1 -32 -14 -51 -39 -51 -15 0 -18 56 -3 65 6 3 10 16
10 28 0 37 31 -4 32 -42z m-942 11 c0 -28 -24 -55 -45 -51 -24 5 -30 52 -10
73 20 20 55 5 55 -22z m-32 -106 c4 -35 -14 -58 -28 -36 -8 13 -10 12 -10 -2
0 -10 -4 -18 -9 -18 -12 0 -21 27 -16 45 3 8 7 22 10 31 3 9 14 14 27 12 17
-2 24 -11 26 -32z m952 -27 c0 -22 -5 -29 -20 -29 -26 0 -34 19 -20 54 9 23
13 26 25 16 8 -7 15 -25 15 -41z m-970 -80 c0 -60 -52 -78 -66 -23 -8 31 7 60
30 58 9 -1 16 3 16 10 0 23 20 -20 20 -45z m939 12 c19 -35 -24 -93 -45 -60
-5 9 24 79 33 79 1 0 7 -8 12 -19z m-959 -141 c0 -28 -5 -39 -18 -42 -38 -10
-60 61 -25 80 28 16 43 3 43 -38z m935 20 c8 -36 0 -50 -26 -50 -21 0 -24 16
-9 54 13 34 27 33 35 -4z m-43 -92 c8 -23 -7 -63 -25 -66 -12 -2 -17 3 -17 18
0 42 32 78 42 48z m-35 -124 c21 -20 2 -67 -25 -62 -16 3 -17 10 -10 66 2 16
16 15 35 -4z m-43 -90 c31 -12 13 -74 -21 -74 -18 0 -28 47 -13 65 14 17 13
17 34 9z m-48 -119 c9 -23 -5 -65 -21 -65 -24 0 -38 36 -23 60 15 24 36 26 44
5z m-26 -103 c-1 -56 -41 -90 -75 -62 -15 13 -11 32 17 72 16 23 23 26 39 18
10 -6 19 -18 19 -28z"/>
<path d="M1185 2209 c-55 -16 -79 -20 -210 -28 -123 -7 -134 -10 -217 -48 -48
-23 -93 -46 -100 -52 -119 -97 -176 -166 -242 -293 -24 -46 -59 -112 -77 -148
-41 -78 -75 -162 -84 -210 -4 -19 -16 -50 -26 -68 -20 -35 -21 -30 10 -149 10
-37 8 -54 -20 -145 -24 -80 -32 -129 -36 -219 -7 -139 3 -166 79 -228 68 -55
84 -77 68 -96 -11 -13 -7 -15 18 -15 34 0 71 40 89 95 9 28 13 30 50 27 91 -7
169 62 167 150 0 47 3 51 36 49 10 0 11 1 2 5 -21 10 17 62 50 66 15 3 28 1
28 -3 0 -4 10 -5 22 -1 13 3 19 1 15 -5 -5 -7 1 -9 15 -6 19 4 20 3 8 -6 -16
-11 -16 -11 33 -15 6 -1 21 -9 32 -19 10 -10 26 -15 34 -12 9 3 12 3 8 -1 -7
-8 89 -66 111 -67 6 0 12 -3 12 -7 0 -10 112 -83 127 -83 6 0 11 -3 10 -7 -1
-4 25 -29 58 -57 188 -156 303 -305 411 -530 42 -88 63 -110 38 -41 -46 131
-135 283 -224 383 -212 238 -513 447 -709 491 -39 9 -71 20 -71 25 0 13 41 11
96 -6 57 -17 65 -18 42 -4 -31 17 -20 26 37 31 51 4 61 9 105 53 55 54 75 93
66 129 -7 29 -53 86 -69 86 -7 0 -2 -8 10 -18 35 -27 47 -73 29 -113 -12 -29
-14 -31 -15 -11 -1 32 -27 78 -48 86 -16 6 -16 6 -1 -11 31 -34 33 -70 4 -107
-42 -56 -57 -67 -85 -66 -46 3 -62 0 -56 -10 8 -12 -25 -13 -44 -1 -8 5 -15
17 -16 28 -1 10 -5 28 -9 41 -6 19 0 31 37 67 l44 44 44 -20 c24 -12 54 -33
66 -48 l22 -26 1 25 c0 37 -24 65 -68 78 -58 17 -77 43 -63 83 6 18 11 46 11
63 0 18 5 37 11 43 8 8 8 31 -2 85 -16 85 -14 111 9 146 9 15 11 23 5 19 -7
-5 -13 -4 -13 2 0 6 4 11 9 11 4 0 20 17 34 39 l25 38 -31 -1 c-23 -1 -33 -6
-35 -21 -3 -10 -11 -30 -20 -43 -19 -29 -25 -60 -26 -129 -1 -29 -2 -53 -4
-53 -10 0 -68 35 -74 44 -15 22 -8 191 9 242 38 112 141 219 261 271 55 24 79
26 102 6 11 -10 26 -18 32 -18 49 0 -48 -112 -129 -150 -66 -30 -65 -40 2 -25
59 13 108 38 100 50 -4 6 3 10 14 10 12 0 21 -6 21 -14 0 -18 47 -56 69 -55 9
0 1 8 -16 16 -30 15 -34 20 -33 39 1 3 -9 14 -22 24 -24 20 -18 26 11 11 14
-8 17 -5 19 15 1 14 6 33 12 44 8 15 3 24 -25 49 -20 17 -49 38 -66 47 -31 16
-33 15 -118 -27 -104 -51 -201 -143 -246 -234 -29 -57 -30 -67 -33 -212 l-4
-153 30 6 c44 9 72 -10 72 -49 0 -18 -5 -38 -11 -44 -7 -7 -1 -12 22 -17 30
-6 31 -8 26 -42 -4 -20 -15 -47 -27 -59 -11 -12 -20 -29 -20 -39 0 -48 -60
-92 -111 -82 -35 7 -38 -1 -5 -14 14 -5 33 -21 42 -35 16 -25 16 -29 -7 -98
-20 -57 -30 -75 -53 -86 -21 -10 -34 -10 -51 -3 -19 9 -27 6 -51 -19 -16 -17
-38 -29 -53 -29 -18 0 -32 -10 -47 -33 -32 -50 -35 -69 -16 -107 17 -34 16
-36 -7 -85 -13 -27 -25 -52 -27 -54 -1 -2 -27 21 -57 50 -30 30 -71 68 -91 85
l-36 31 0 101 c0 78 7 130 30 229 30 126 58 193 44 106 -5 -33 -2 -50 15 -78
26 -44 26 -49 3 -41 -16 6 -16 5 1 -8 10 -8 35 -17 55 -21 29 -5 39 -3 52 13
9 10 29 27 45 36 17 10 21 14 10 11 -44 -15 -56 -17 -79 -11 -26 6 -39 28 -30
50 8 22 98 56 146 56 46 0 62 -7 64 -27 3 -34 4 -35 19 -23 20 17 20 -3 0 -33
-16 -25 -45 -128 -38 -139 11 -20 31 9 36 54 4 28 11 56 17 62 5 5 10 23 10
38 0 15 5 28 10 28 6 0 5 8 -2 20 -15 23 -33 27 -25 6 3 -8 0 -17 -7 -19 -10
-4 -12 1 -9 14 3 10 0 19 -6 19 -6 0 -11 8 -11 18 0 14 2 15 10 2 5 -8 12 -11
15 -8 11 11 -5 28 -26 28 -10 0 -19 5 -19 10 0 6 6 10 13 10 8 0 7 4 -3 10
-12 8 -11 10 7 10 25 0 39 15 23 25 -5 3 -10 1 -10 -4 0 -6 -4 -11 -10 -11 -5
0 -7 7 -4 15 4 9 0 15 -8 15 -10 0 -15 -12 -16 -37 -1 -20 -7 -41 -14 -46 -9
-6 -8 -7 4 -4 9 3 19 -1 22 -9 5 -13 -7 -14 -92 -9 -136 10 -167 19 -182 54
-6 17 -9 35 -5 41 4 6 -1 23 -11 37 -16 26 -16 27 5 44 13 10 21 29 21 46 0
44 25 119 68 203 118 229 145 277 184 327 58 76 138 139 235 186 79 38 88 39
220 47 79 5 157 15 182 24 56 21 84 20 103 -1 21 -24 71 -124 65 -130 -3 -2
-16 2 -29 11 -34 22 -136 56 -167 56 -14 0 -34 -7 -45 -15 -17 -13 -16 -15 16
-28 18 -8 47 -27 63 -44 17 -16 38 -32 47 -36 10 -3 26 -19 35 -34 19 -30 47
-33 57 -6 9 23 -3 31 -18 11 -10 -14 -14 -13 -28 13 -10 16 -26 29 -36 29 -11
0 -23 7 -26 16 -8 22 -1 28 21 19 10 -4 40 -9 66 -11 42 -2 49 0 59 20 8 19 5
34 -18 81 -39 80 -82 104 -149 84z m-590 -1409 c5 -27 -15 -80 -39 -99 -9 -7
-31 -17 -49 -20 -25 -5 -35 -3 -49 14 -14 18 -15 23 -1 45 12 21 122 92 131
85 1 -1 5 -12 7 -25z m45 0 c0 -18 -26 -80 -33 -80 -4 0 3 71 8 88 7 20 25 14
25 -8z"/>
<path d="M2286 2101 c-8 -12 97 -53 124 -49 20 3 18 6 -20 31 -41 26 -93 36
-104 18z"/>
<path d="M1957 2030 c-3 -14 -9 -47 -12 -74 -4 -27 -9 -56 -12 -65 -4 -14 -3
-14 6 -1 9 13 11 13 11 -2 0 -25 17 -22 31 5 10 19 10 20 -2 10 -12 -10 -13
-3 -11 41 2 29 2 66 0 82 -4 29 -4 29 -11 4z"/>
<path d="M2367 2020 c3 -11 10 -20 15 -20 6 0 8 -7 4 -15 -3 -10 1 -15 13 -15
10 0 21 -8 24 -18 2 -11 14 -21 25 -24 20 -6 20 -5 5 18 -8 14 -23 29 -32 34
-10 6 -11 10 -3 10 6 0 12 9 12 21 0 14 -5 19 -15 16 -8 -4 -17 -2 -20 3 -12
19 -33 11 -28 -10z"/>
<path d="M1873 1945 c0 -33 2 -45 4 -27 2 18 2 45 0 60 -2 15 -4 0 -4 -33z"/>
<path d="M1200 1950 c-14 -27 -4 -57 20 -65 40 -13 53 22 24 63 -19 27 -30 28
-44 2z"/>
<path d="M2391 1918 c6 -13 21 -34 33 -47 11 -13 15 -21 9 -17 -18 10 -16 -2
5 -32 16 -23 19 -49 20 -172 3 -194 -3 -234 -39 -275 -22 -24 -29 -43 -29 -71
l1 -39 24 28 c14 15 25 33 25 39 0 7 -7 3 -16 -8 -14 -17 -15 -17 -10 -1 3 10
6 21 6 23 0 2 6 4 14 4 8 0 24 25 37 58 19 47 24 82 27 195 3 111 7 137 18
137 8 0 24 15 35 34 36 61 76 50 94 -26 4 -16 11 -26 15 -23 10 6 -3 -50 -22
-95 -18 -41 -64 -111 -80 -122 -9 -5 -8 -28 1 -88 16 -106 18 -110 52 -110 18
0 32 -7 39 -20 8 -15 17 -19 34 -14 30 7 69 -38 60 -70 -5 -20 3 -26 63 -54
82 -37 170 -72 183 -72 6 0 10 8 10 18 0 13 -13 21 -44 30 -25 6 -74 25 -110
42 -53 24 -69 37 -83 67 -14 28 -32 45 -77 68 -68 35 -84 54 -92 117 -8 57 -1
87 26 116 42 45 70 122 70 195 0 62 -3 71 -29 98 -31 30 -46 36 -56 19 -3 -5
3 -10 14 -10 26 0 51 -37 50 -75 l-1 -30 -8 32 c-8 33 -26 63 -38 61 -26 -3
-34 4 -29 23 5 18 -1 16 -31 -14 -51 -49 -73 -51 -86 -7 -6 19 -15 41 -19 48
-5 6 -6 16 -3 20 3 5 -11 16 -30 25 -45 22 -47 21 -33 -5z"/>
<path d="M1710 1901 c0 -4 23 -18 50 -30 63 -28 120 -81 120 -110 0 -15 -4
-20 -12 -15 -7 4 -5 -2 5 -13 19 -21 17 -70 -3 -118 -5 -11 -15 -42 -24 -68
-15 -47 -15 -48 12 -79 18 -19 35 -29 47 -26 17 3 14 7 -17 26 -38 23 -50 56
-29 77 15 16 51 136 51 172 0 53 -33 107 -89 142 -50 33 -111 56 -111 42z"/>
<path d="M1246 1818 c-12 -47 -8 -60 22 -56 19 2 28 9 30 26 7 45 -40 72 -52
30z"/>
<path d="M2065 1823 c-46 -10 -51 -14 -35 -23 9 -5 49 -4 95 2 58 8 102 7 163
-1 46 -7 86 -10 88 -8 3 2 -24 12 -60 21 -60 15 -202 20 -251 9z"/>
<path d="M973 1803 c-12 -2 -35 -15 -50 -28 -16 -13 -39 -33 -53 -44 l-25 -21
46 14 c41 12 139 69 139 81 0 6 -24 4 -57 -2z"/>
<path d="M2107 1751 c-21 -10 -33 -25 -36 -41 -3 -25 -3 -25 18 -6 21 19 21
19 21 -3 0 -14 7 -25 20 -28 11 -3 17 -10 13 -16 -3 -5 -1 -7 5 -3 5 3 12 3
15 -1 2 -5 3 -3 1 3 -1 6 8 16 22 23 14 6 24 19 24 31 0 24 9 25 36 5 18 -14
18 -16 1 -26 -9 -5 -15 -14 -12 -19 3 -5 -6 -7 -19 -4 -29 5 -39 -6 -25 -26 5
-10 9 -10 9 -3 0 7 9 10 20 8 12 -2 23 2 27 10 3 8 9 15 15 15 5 0 6 -6 2 -12
-5 -9 -3 -9 9 1 9 7 15 17 12 21 -3 5 4 6 15 3 22 -6 28 12 8 20 -8 4 -7 6 3
6 9 1 22 8 29 16 10 12 7 13 -19 5 -19 -5 -31 -5 -31 1 0 5 -3 8 -7 7 -5 -1
-19 4 -33 11 -35 20 -106 20 -143 2z"/>
<path d="M1290 1665 c-18 -21 -5 -47 22 -43 26 3 37 36 16 49 -18 12 -24 11
-38 -6z"/>
<path d="M1015 1586 c-71 -35 -137 -76 -122 -76 4 0 30 11 57 25 47 24 116 38
243 51 87 8 69 28 -29 32 -73 2 -85 0 -149 -32z"/>
<path d="M2532 1598 c-7 -7 -12 -17 -12 -22 0 -6 7 -2 15 8 15 20 15 20 15 0
0 -14 2 -16 9 -5 7 11 9 11 14 0 4 -9 6 -10 6 -2 1 19 -34 34 -47 21z"/>
<path d="M1126 1529 c-28 -4 -53 -6 -58 -3 -4 3 -11 -2 -14 -10 -3 -9 -12 -16
-20 -16 -8 0 -14 -4 -14 -10 0 -6 -10 -6 -27 0 -25 9 -26 8 -10 -4 28 -22 20
-29 -25 -23 l-43 6 37 -18 37 -17 -22 -23 -22 -23 26 16 c38 24 69 28 69 9 0
-13 2 -14 17 -2 11 9 14 10 9 2 -5 -9 -2 -11 8 -7 25 10 19 21 -15 28 -17 3
-28 10 -24 15 8 14 65 41 65 31 0 -5 -6 -10 -12 -13 -10 -3 -9 -9 3 -21 30
-32 96 8 74 44 -11 18 14 11 35 -10 15 -15 20 -16 20 -6 0 8 -11 23 -25 34
-17 14 -21 22 -13 25 18 7 2 6 -56 -4z"/>
<path d="M388 1490 c-11 -64 -26 -89 -63 -104 -52 -22 -43 -26 21 -10 75 20
134 2 114 -35 -11 -21 18 -74 50 -91 20 -11 20 -9 -5 39 -29 57 -32 99 -10
141 19 36 43 50 89 50 28 0 40 -7 65 -37 32 -39 44 -26 15 16 -25 35 -71 51
-108 38 -38 -13 -78 -42 -69 -51 3 -3 2 -6 -4 -6 -6 0 -13 -9 -16 -20 -4 -16
-12 -20 -39 -18 -42 4 -48 12 -36 55 5 19 8 42 6 51 -2 9 -7 1 -10 -18z"/>
<path d="M1856 1382 c-8 -13 30 -88 49 -96 26 -10 93 -7 100 4 4 6 -8 10 -27
10 -19 0 -43 7 -54 15 -17 14 -12 15 57 9 52 -4 79 -3 83 5 5 7 -2 11 -19 11
-14 0 -40 7 -58 17 -18 9 -43 17 -57 19 -14 1 -35 5 -46 9 -12 4 -24 2 -28 -3z"/>
<path d="M646 1326 c-31 -37 -47 -76 -31 -76 12 0 85 87 85 103 0 28 -16 20
-54 -27z"/>
<path d="M654 1255 c-20 -19 -35 -38 -32 -40 3 -3 30 10 61 28 31 19 54 37 50
41 -15 14 -44 4 -79 -29z"/>
<path d="M382 1273 c-7 -3 15 -18 49 -34 64 -30 82 -31 59 -4 -28 33 -77 51
-108 38z"/>
<path d="M657 1209 c-21 -11 -42 -17 -47 -14 -6 3 -7 -1 -4 -9 7 -17 34 -21
50 -7 5 5 26 14 47 21 20 6 35 16 32 21 -9 14 -36 10 -78 -12z"/>
<path d="M355 1199 c-10 -15 -7 -16 72 -21 80 -6 88 3 19 21 -56 14 -83 14
-91 0z"/>
<path d="M1433 1196 c3 -8 -5 -18 -19 -25 -13 -6 -24 -7 -24 -2 0 5 6 12 13
14 8 4 8 6 1 6 -13 1 -112 -60 -113 -69 -2 -13 92 -32 124 -26 27 5 36 13 41
34 4 15 11 33 17 40 6 8 5 17 -3 27 -16 19 -44 20 -37 1z m-3 -66 c0 -17 -52
-32 -75 -22 -19 10 -19 10 5 20 33 14 70 15 70 2z"/>
<path d="M2136 1165 c-116 -57 -186 -58 -238 -3 -29 31 -35 31 -18 -3 6 -10
27 -27 48 -38 37 -19 43 -21 61 -21 5 0 12 -8 14 -17 4 -14 5 -13 6 3 1 24 29
40 43 26 8 -8 168 72 168 84 0 8 -16 2 -84 -31z"/>
<path d="M1497 1057 c-8 -23 -18 -57 -22 -74 -9 -46 -47 -73 -102 -73 -27 0
-42 -4 -38 -10 4 -6 10 -8 14 -6 4 3 28 6 53 7 56 3 73 22 104 120 24 75 16
105 -9 36z"/>
<path d="M498 1052 c-49 -51 -83 -122 -59 -122 10 0 95 139 89 146 -3 2 -16
-9 -30 -24z"/>
<path d="M526 1038 c-39 -68 -63 -145 -49 -159 9 -9 14 -1 22 32 6 24 25 72
41 107 34 70 24 84 -14 20z"/>
<path d="M612 1013 c2 -17 10 -29 21 -31 17 -4 18 -2 2 27 -19 38 -27 39 -23
4z"/>
<path d="M380 961 c-16 -30 -12 -63 11 -101 l21 -34 -26 -23 c-14 -12 -26 -27
-26 -33 0 -6 12 2 26 19 14 17 36 31 47 31 13 0 17 3 11 8 -22 14 -56 95 -52
123 5 34 3 36 -12 10z"/>
<path d="M1132 937 c9 -9 24 -17 33 -17 9 0 37 -5 62 -11 l45 -12 -6 -43 c-3
-24 -14 -68 -25 -98 -14 -39 -16 -57 -8 -65 6 -6 14 -11 18 -11 3 0 12 47 18
104 10 81 16 103 26 99 17 -6 47 -95 79 -233 13 -58 25 -93 25 -79 1 14 -7 59
-18 100 -10 41 -18 89 -18 108 0 20 -6 39 -16 46 -9 7 -17 19 -17 27 0 30 -27
49 -95 68 -39 10 -81 22 -95 26 -23 7 -24 7 -8 -9z"/>
<path d="M960 862 c58 -32 119 -66 135 -76 l30 -18 -25 20 c-28 24 -223 132
-237 132 -4 0 39 -26 97 -58z"/>
<path d="M735 812 c17 -10 62 -36 100 -57 39 -21 98 -53 133 -72 35 -19 61
-37 59 -40 -3 -2 -16 1 -29 7 -22 11 -22 11 2 -9 14 -12 43 -33 65 -48 40 -28
156 -114 165 -123 3 -3 22 -18 43 -34 21 -15 52 -46 68 -69 16 -22 29 -34 29
-27 0 9 9 5 25 -10 27 -25 35 -51 10 -30 -19 16 -20 3 -1 -16 11 -10 15 -11
18 -2 3 7 22 -11 44 -39 67 -88 78 -106 81 -132 4 -36 32 -120 32 -100 1 9 -5
37 -13 62 -8 26 -11 47 -8 47 8 0 67 -87 75 -110 5 -13 6 -13 6 0 1 18 -7 30
-107 165 -41 55 -102 129 -136 163 -58 60 -189 174 -211 183 -22 9 -155 112
-150 117 2 3 11 -1 20 -8 8 -7 15 -10 15 -6 0 11 -108 77 -234 143 -115 61
-162 82 -101 45z"/>
<path d="M1493 760 c1 -14 7 -29 14 -35 7 -5 24 -37 38 -70 13 -33 24 -51 24
-40 0 11 -17 54 -39 95 -25 50 -38 67 -37 50z"/>
<path d="M847 723 c10 -3 9 -11 -2 -33 -8 -16 -14 -44 -14 -62 l2 -33 4 30 c7
53 24 87 42 80 11 -3 10 0 -3 10 -11 8 -25 15 -30 14 -6 0 -5 -3 1 -6z"/>
<path d="M1302 691 c-2 -28 -4 -32 -17 -21 -34 28 -12 -9 27 -45 24 -22 33
-29 21 -15 -13 15 -23 43 -26 70 -3 36 -4 38 -5 11z"/>
<path d="M1017 545 c3 -16 12 -43 20 -60 l14 -30 -6 29 c-3 16 -12 43 -20 60
l-14 31 6 -30z"/>
<path d="M390 506 c0 -8 -9 -24 -20 -37 -14 -17 -18 -19 -14 -6 4 11 1 17 -10
17 -9 0 -16 6 -17 13 -1 6 -4 1 -8 -13 -4 -15 -35 -44 -77 -75 -104 -74 -204
-180 -204 -215 0 -6 -9 -30 -20 -52 -24 -49 -28 -138 -6 -138 9 0 15 18 20 54
11 96 44 165 111 229 60 59 195 157 215 157 5 0 10 4 10 10 0 5 11 12 24 16
14 3 32 15 42 25 15 17 15 19 2 14 -9 -4 -19 -2 -23 4 -9 16 -25 14 -25 -3z"/>
<path d="M1591 493 c-2 -21 11 -43 22 -36 6 3 7 1 3 -5 -4 -7 -4 -28 0 -48 4
-23 9 -31 14 -23 5 7 11 -15 14 -52 13 -135 14 -141 11 -54 -3 101 -34 242
-45 209 -7 -19 -7 -19 -12 1 -3 11 -6 15 -7 8z"/>
<path d="M686 454 c-25 -18 -8 -39 23 -29 24 7 27 18 8 33 -8 7 -18 6 -31 -4z"/>
<path d="M1130 428 c-30 -16 -44 -26 -30 -22 34 9 77 32 85 44 3 5 5 9 3 9 -2
-1 -28 -15 -58 -31z"/>
<path d="M760 433 c0 -5 -10 -14 -22 -20 -20 -9 -19 -10 16 -31 34 -20 37 -21
56 -5 24 21 26 33 3 33 -9 0 -25 7 -35 17 -10 9 -18 12 -18 6z"/>
<path d="M724 340 c28 -30 52 -57 54 -60 3 -3 0 4 -6 15 -15 27 -32 45 -67 75
-16 14 -8 0 19 -30z"/>
<path d="M830 331 c-20 -6 -25 -13 -24 -39 1 -22 -3 -32 -13 -32 -7 0 -27 -7
-42 -15 -28 -14 -28 -16 -17 -50 16 -44 20 -48 45 -40 31 9 28 45 -4 45 -14 0
-25 5 -25 10 0 6 5 10 11 10 7 0 18 8 26 18 12 16 13 15 11 -8 -2 -19 2 -26
20 -28 25 -4 29 -17 7 -26 -10 -4 -15 -20 -15 -51 0 -38 3 -46 17 -43 10 2 20
17 24 36 10 49 26 61 38 29 9 -24 13 -26 35 -16 40 18 41 39 3 39 -18 0 -38 5
-45 12 -7 7 -12 8 -12 3 0 -5 -6 0 -14 10 -14 20 -12 35 5 35 5 0 9 -7 9 -15
0 -17 16 -20 25 -5 12 19 55 11 64 -12 6 -16 10 -18 16 -8 5 8 1 18 -11 28
-13 10 -15 16 -6 19 6 3 12 11 12 19 0 14 -5 16 -50 18 -16 1 -24 6 -22 15 3
13 -26 52 -37 50 -3 -1 -17 -4 -31 -8z m21 -30 c-9 -6 -11 -18 -7 -35 3 -14 4
-26 2 -26 -2 0 -12 -3 -22 -7 -14 -5 -16 -3 -10 13 8 18 14 41 15 57 1 4 9 7
19 7 13 0 14 -2 3 -9z"/>
<path d="M1289 324 c-9 -8 -38 -19 -65 -24 l-49 -9 52 4 c34 3 53 0 57 -8 2
-7 5 -2 5 10 1 12 9 27 19 32 9 6 12 11 7 11 -6 0 -18 -7 -26 -16z"/>
<path d="M930 319 c0 -5 -5 -7 -12 -3 -7 4 -8 3 -4 -4 4 -6 13 -9 21 -5 8 3
15 0 15 -6 0 -6 14 -11 30 -11 19 0 30 5 30 14 0 22 -19 29 -37 14 -13 -10
-17 -10 -20 0 -6 15 -23 16 -23 1z"/>
<path d="M1024 289 c-4 -8 1 -9 16 -4 16 5 21 4 18 -6 -3 -8 -15 -13 -28 -11
-21 4 -22 2 -11 -12 7 -9 19 -16 27 -16 16 0 37 37 29 50 -8 13 -42 13 -51 -1z"/>
<path d="M1811 260 c-1 -3 8 -28 19 -56 10 -29 17 -54 15 -58 -3 -3 0 -2 6 3
8 6 4 25 -14 63 -14 29 -26 51 -26 48z"/>
<path d="M1073 230 c-3 -11 -13 -20 -22 -20 -13 -1 -13 -2 3 -11 14 -9 20 -8
27 2 4 7 6 16 3 20 -2 4 0 10 6 14 5 3 10 1 10 -4 0 -6 7 -11 15 -11 8 0 15 7
15 15 0 24 -51 19 -57 -5z"/>
<path d="M1149 211 c-22 -18 -23 -20 -6 -27 11 -4 23 -1 30 6 10 10 7 12 -11
7 -12 -3 -20 -1 -16 4 3 5 11 9 19 9 8 0 17 5 20 10 10 17 -11 11 -36 -9z"/>
<path d="M1200 195 c0 -3 7 -17 16 -30 16 -25 44 -34 44 -15 0 6 8 10 18 10
14 0 15 2 2 10 -9 5 -16 6 -18 0 -5 -13 -32 0 -32 16 0 8 -7 14 -15 14 -8 0
-15 -2 -15 -5z"/>
<path d="M979 164 c-8 -10 -10 -21 -3 -31 11 -18 30 -17 26 1 -1 8 10 16 25
19 35 7 37 4 23 -23 -15 -28 -9 -33 23 -21 34 13 27 34 -18 55 -42 20 -59 20
-76 0z"/>
<path d="M1107 159 c6 -6 30 -13 54 -15 49 -5 29 8 -31 20 -25 5 -31 3 -23 -5z"/>
<path d="M1311 148 c-1 -9 -7 -19 -13 -21 -17 -7 12 -29 29 -22 6 2 13 1 15
-3 6 -14 124 -102 137 -102 14 0 -53 59 -113 98 -21 15 -42 35 -46 47 -7 15
-9 16 -9 3z"/>
<path d="M750 126 c18 -19 21 -19 36 -4 15 14 13 16 -20 20 l-36 4 20 -20z"/>
<path d="M1950 126 c25 -28 80 -71 80 -63 0 2 -24 23 -52 47 -30 25 -42 32
-28 16z"/>
<path d="M1863 125 c3 -11 11 -44 17 -73 7 -29 14 -51 16 -49 6 6 -23 127 -32
136 -3 3 -4 -3 -1 -14z"/>
<path d="M925 114 c-9 -14 -15 -15 -32 -5 -29 15 -37 -1 -15 -29 16 -20 20
-21 32 -8 8 8 22 13 32 10 10 -2 25 -1 34 2 15 6 15 8 -1 26 -22 24 -37 25
-50 4z"/>
<path d="M636 72 c8 -15 23 -38 34 -52 20 -24 19 -22 -1 22 -13 26 -28 49 -35
52 -8 3 -8 -3 2 -22z"/>
<path d="M1069 93 c-9 -2 -21 -15 -28 -29 -8 -17 -17 -24 -27 -20 -12 5 -14 1
-8 -17 8 -26 -4 -17 -20 15 -13 25 -37 30 -44 9 -3 -9 1 -11 17 -6 15 4 21 2
21 -9 0 -19 -17 -30 -25 -16 -8 13 -25 13 -25 1 0 -14 56 -24 90 -16 20 4 30
13 30 25 0 14 9 20 33 22 24 2 32 8 32 23 0 20 -17 27 -46 18z"/>
<path d="M1215 81 c28 -10 80 -33 115 -50 43 -20 56 -24 40 -11 -31 24 -162
80 -187 79 -10 0 5 -9 32 -18z"/>
<path d="M908 53 c-18 -4 -34 -40 -24 -50 7 -7 46 35 46 49 0 4 -1 7 -2 7 -2
-1 -11 -3 -20 -6z"/>
</g>
</svg>
